# Simplified demo mesh. See README.md for source/license.
# Simplification: vertex clustering grid=0.0020m, degenerate faces removed.
v -0.023509 0.074286 0.496184
v -0.027420 0.074989 0.495716
v -0.134235 0.093625 0.468108
v -0.131946 0.093446 0.468903
v -0.123815 0.083959 0.487550
v -0.126461 0.083979 0.487525
v -0.121417 0.083982 0.487522
v -0.079854 0.091876 0.473993
v -0.084391 0.091880 0.473982
v 0.003802 0.083740 0.487809
v -0.001327 0.083843 0.487686
v -0.083084 -0.073239 0.497148
v 0.239654 0.040619 0.487617
v 0.237780 0.041436 0.487976
v 0.206289 0.058603 0.499494
v 0.205025 0.059014 0.500411
v 0.281934 0.003950 0.474168
v 0.281934 0.006376 0.472544
v 0.281934 0.002040 0.474219
v 0.281934 -0.001718 0.475365
v 0.281934 -0.002378 0.474560
v 0.281934 -0.003735 0.474291
v -0.031363 0.074309 0.496172
v -0.115825 0.089739 0.478847
v -0.110461 0.089768 0.478790
v -0.094006 0.084057 0.487434
v -0.095149 0.083963 0.487544
v -0.064451 0.086905 0.483649
v -0.066659 0.086791 0.483811
v -0.075122 0.080421 0.491302
v -0.074468 0.080270 0.491445
v -0.088557 -0.091662 0.475660
v -0.093016 -0.091666 0.475650
v -0.066444 -0.091662 0.475660
v -0.060817 -0.091527 0.475975
v -0.060916 -0.077968 0.493828
v -0.063021 -0.078007 0.493791
v -0.032229 -0.082234 0.489947
v -0.037708 -0.082200 0.489984
v -0.036063 -0.082169 0.490017
v -0.033780 -0.082224 0.489961
v -0.048268 -0.093529 0.470283
v -0.051466 -0.093546 0.470216
v -0.021946 -0.085621 0.486030
v -0.026956 -0.085839 0.485758
v -0.022402 -0.089871 0.483445
v -0.022390 -0.088391 0.482037
v -0.026683 -0.079283 0.492733
v -0.026929 -0.080564 0.494271
v -0.048731 -0.083354 0.488754
v -0.048734 -0.084773 0.490166
v 0.014063 -0.073228 0.497155
v 0.009255 -0.073177 0.497186
v 0.235870 0.045224 0.478174
v 0.234910 0.045581 0.478541
v 0.228787 0.045330 0.489369
v 0.232021 0.044065 0.488544
v 0.233982 0.044658 0.483634
v 0.230327 0.046250 0.484095
v 0.246289 0.037575 0.486682
v 0.247096 0.037015 0.487115
v 0.248076 0.036246 0.487878
v 0.281934 0.006134 0.474106
v 0.281934 0.004058 0.472591
v 0.281934 0.002603 0.472649
v 0.281934 0.007313 0.474125
v 0.281934 0.007296 0.472624
v 0.281934 -0.000452 0.474504
v 0.281934 -0.000407 0.475310
v 0.281934 -0.000039 0.472568
v 0.281934 -0.002310 0.472201
v 0.281934 -0.004124 0.472202
v 0.281934 -0.007840 0.473158
v 0.281934 -0.007622 0.472633
v 0.281934 -0.006248 0.472610
v 0.281934 -0.005958 0.473216
v 0.281934 -0.005691 0.475592
v -0.027404 0.080668 0.491066
v -0.023970 0.084125 0.487352
v -0.027404 0.084125 0.487352
v -0.023970 0.089712 0.478899
v -0.027404 0.087152 0.483280
v -0.023970 0.087152 0.483280
v -0.030839 0.091774 0.474263
v -0.027404 0.089712 0.478899
v -0.027404 0.091774 0.474263
v -0.030839 0.094310 0.464453
v -0.027404 0.093313 0.469428
v -0.027404 0.094310 0.464453
v -0.030839 0.093313 0.469428
v -0.030839 0.089712 0.478899
v -0.031420 0.075695 0.495215
v -0.028235 0.071500 0.497911
v -0.120450 0.084659 0.486698
v -0.115825 0.083852 0.487677
v -0.117524 0.090820 0.476580
v -0.117382 0.090312 0.477685
v -0.115825 0.091880 0.473982
v -0.112884 0.093025 0.470491
v -0.115825 0.093446 0.468903
v -0.123917 0.093200 0.469858
v -0.122189 0.093093 0.470250
v -0.121198 0.093446 0.468903
v -0.131946 0.091880 0.473982
v -0.135481 0.093219 0.469777
v -0.126167 0.094407 0.463755
v -0.126572 0.093446 0.468903
v -0.121198 0.087906 0.482100
v -0.126572 0.089930 0.478460
v -0.126572 0.087906 0.482100
v -0.131946 0.089985 0.478349
v -0.128610 0.085226 0.485976
v -0.131946 0.083852 0.487677
v -0.131569 0.081805 0.489929
v -0.137235 0.090312 0.477685
v -0.131946 0.087051 0.483433
v -0.130319 0.087906 0.482100
v -0.119951 0.092664 0.471686
v -0.117521 0.087906 0.482100
v -0.115825 0.087051 0.483433
v -0.116121 0.082047 0.489680
v -0.087867 0.085355 0.485806
v -0.088605 0.084865 0.486440
v -0.084391 0.083852 0.487677
v -0.084391 0.087051 0.483433
v -0.079067 0.088727 0.480718
v -0.084391 0.089739 0.478847
v -0.081449 0.093025 0.470491
v -0.084240 0.093495 0.468694
v -0.091701 0.093172 0.469964
v -0.089766 0.093446 0.468903
v -0.100320 0.091880 0.473982
v -0.100517 0.093446 0.468903
v -0.104046 0.093219 0.469777
v -0.094829 0.094407 0.463754
v -0.095142 0.094402 0.463794
v -0.095142 0.093446 0.468903
v -0.084398 0.093878 0.466967
v -0.100517 0.089930 0.478460
v -0.095142 0.089968 0.478382
v -0.096963 0.085058 0.486194
v -0.097460 0.085446 0.485687
v -0.100517 0.083852 0.487677
v -0.095576 0.080407 0.491320
v -0.100517 0.087051 0.483433
v -0.104007 0.084747 0.486589
v -0.098900 0.087906 0.482100
v -0.088289 0.092604 0.471883
v -0.086101 0.087906 0.482100
v -0.084685 0.082047 0.489681
v -0.064451 0.080668 0.491066
v -0.059101 0.083767 0.487777
v -0.064451 0.083767 0.487777
v -0.059101 0.089559 0.479195
v -0.059101 0.086905 0.483649
v -0.059101 0.093285 0.469536
v -0.064451 0.091695 0.474471
v -0.059101 0.091695 0.474471
v -0.059101 0.094310 0.464453
v -0.064451 0.093285 0.469536
v -0.064451 0.089559 0.479195
v -0.069821 0.080678 0.491058
v -0.069800 0.083767 0.487777
v -0.072311 0.084496 0.486902
v -0.040219 0.075281 0.495513
v -0.042041 0.079546 0.492110
v -0.042041 0.075281 0.495513
v -0.042041 0.083379 0.488226
v -0.047516 0.083804 0.487724
v -0.047409 0.080508 0.491215
v -0.042041 0.086724 0.483916
v -0.047112 0.091986 0.473687
v -0.042041 0.089536 0.479240
v -0.042041 0.091774 0.474264
v -0.047960 0.093359 0.469240
v -0.042041 0.093408 0.469058
v -0.042484 0.093928 0.466713
v -0.053634 0.093330 0.469348
v -0.052106 0.094366 0.464055
v -0.047594 0.092632 0.471789
v -0.047088 0.089536 0.479240
v -0.053634 0.083379 0.488226
v -0.047088 0.075281 0.495513
v 0.003874 0.080668 0.491066
v 0.009314 0.083767 0.487777
v 0.009314 0.089559 0.479195
v 0.004062 0.086905 0.483649
v 0.009314 0.086905 0.483649
v 0.009314 0.093285 0.469536
v 0.004062 0.091695 0.474471
v 0.009314 0.091695 0.474471
v 0.009314 0.094305 0.464489
v 0.004062 0.093285 0.469536
v 0.004062 0.089559 0.479195
v -0.006485 0.083922 0.487593
v -0.002350 0.080701 0.491035
v -0.011757 0.080893 0.490849
v -0.011694 0.083767 0.487777
v -0.010077 0.091695 0.474471
v -0.011694 0.089559 0.479195
v -0.010077 0.089559 0.479195
v -0.010077 0.094310 0.464453
v -0.011694 0.093285 0.469536
v -0.010077 0.093285 0.469536
v -0.011694 0.091695 0.474471
v -0.016946 0.091695 0.474471
v -0.010077 0.087676 0.482470
v -0.011694 0.086905 0.483649
v -0.003788 0.084179 0.487287
v 0.048034 0.072420 0.497374
v 0.042069 0.077306 0.494000
v 0.041903 0.072420 0.497374
v 0.048034 0.085578 0.485514
v 0.042496 0.081716 0.490025
v 0.048034 0.081716 0.490025
v 0.042401 0.088827 0.480543
v 0.047882 0.090722 0.476798
v 0.042733 0.091408 0.475196
v 0.037433 0.093279 0.469560
v 0.034565 0.094392 0.463876
v 0.032048 0.093213 0.469804
v 0.021530 0.093279 0.469560
v 0.026831 0.093279 0.469560
v 0.022698 0.093980 0.466446
v 0.016876 0.091690 0.474478
v 0.016683 0.091406 0.475195
v 0.021530 0.091408 0.475196
v 0.016229 0.088827 0.480544
v 0.021530 0.085578 0.485514
v 0.021530 0.088827 0.480543
v 0.016229 0.077306 0.494000
v 0.021530 0.081716 0.490025
v 0.016229 0.081716 0.490025
v 0.016229 0.072420 0.497374
v 0.021530 0.077306 0.494000
v 0.016229 0.085578 0.485514
v 0.023668 0.088827 0.480544
v 0.023668 0.085578 0.485514
v 0.020138 0.093498 0.468685
v 0.019223 0.093220 0.469784
v 0.029657 0.094392 0.463878
v 0.043812 0.093575 0.468360
v 0.042653 0.093818 0.467266
v 0.042733 0.093279 0.469560
v 0.034446 0.092990 0.470616
v 0.035797 0.092889 0.470961
v 0.040831 0.090614 0.477039
v 0.041017 0.090001 0.478325
v 0.041903 0.085578 0.485514
v -0.060916 -0.073268 0.497130
v -0.064311 -0.076006 0.495311
v -0.066444 -0.073268 0.497130
v -0.070083 -0.074177 0.496558
v -0.068255 -0.074301 0.496480
v -0.079973 -0.078268 0.493577
v -0.077956 -0.076675 0.494825
v -0.088557 -0.082219 0.489966
v -0.091360 -0.082068 0.490120
v -0.092427 -0.084122 0.487882
v -0.093722 -0.089681 0.479783
v -0.093483 -0.090782 0.477632
v -0.088557 -0.089120 0.480811
v -0.088232 -0.094081 0.468085
v -0.088557 -0.093543 0.470233
v -0.089856 -0.093687 0.469697
v -0.085666 -0.094455 0.466286
v -0.083029 -0.093543 0.470233
v -0.073786 -0.094639 0.465222
v -0.072105 -0.094549 0.465758
v -0.071972 -0.093543 0.470233
v -0.066180 -0.093589 0.470061
v -0.066876 -0.090296 0.478627
v -0.068190 -0.091279 0.476537
v -0.066212 -0.089513 0.480104
v -0.060530 -0.089292 0.480498
v -0.072099 -0.085956 0.485604
v -0.065992 -0.088405 0.482013
v -0.066444 -0.085956 0.485604
v -0.072017 -0.084412 0.487541
v -0.060916 -0.085956 0.485604
v -0.066444 -0.084412 0.487541
v -0.058668 -0.089120 0.480810
v -0.058202 -0.088182 0.482372
v -0.073680 -0.092825 0.472572
v -0.075383 -0.092946 0.472209
v -0.083162 -0.092128 0.474501
v -0.085670 -0.088740 0.481452
v -0.085560 -0.087487 0.483440
v -0.089763 -0.079659 0.492406
v -0.083029 -0.077968 0.493828
v -0.081826 -0.080159 0.491958
v -0.077501 -0.073268 0.497130
v -0.077415 -0.069972 0.498970
v -0.080391 -0.071411 0.498210
v -0.067223 -0.068223 0.499808
v -0.070672 -0.068297 0.499774
v -0.060916 -0.078981 0.492992
v -0.057849 -0.077968 0.493828
v -0.062109 -0.069163 0.499369
v -0.063807 -0.068672 0.499601
v -0.024736 -0.080536 0.491612
v -0.026956 -0.082051 0.490138
v -0.051600 -0.086520 0.484839
v -0.052529 -0.088083 0.482529
v -0.048268 -0.089047 0.480937
v -0.052682 -0.092688 0.472973
v -0.052159 -0.093845 0.472271
v -0.048268 -0.091624 0.475752
v -0.049836 -0.094078 0.468097
v -0.039995 -0.094721 0.464688
v -0.038794 -0.094696 0.464855
v -0.037612 -0.093529 0.470283
v -0.029345 -0.093589 0.470061
v -0.032284 -0.093529 0.470283
v -0.032033 -0.094143 0.467821
v -0.032343 -0.091551 0.475919
v -0.026956 -0.089047 0.480937
v -0.030276 -0.089285 0.480515
v -0.031028 -0.090314 0.478582
v -0.024478 -0.091260 0.476582
v -0.023155 -0.089828 0.479530
v -0.042940 -0.093529 0.470283
v -0.040074 -0.093194 0.471424
v -0.042209 -0.093087 0.471770
v -0.045592 -0.091370 0.476326
v -0.045800 -0.090298 0.478622
v -0.050333 -0.084925 0.486920
v -0.048268 -0.085839 0.485758
v -0.046823 -0.081860 0.490332
v -0.042940 -0.082051 0.490138
v -0.044626 -0.080509 0.491638
v -0.032322 -0.077797 0.493966
v -0.033841 -0.077743 0.494007
v -0.021970 -0.086778 0.484472
v -0.022447 -0.083568 0.488508
v -0.023480 -0.081835 0.490353
v -0.052546 -0.094091 0.473905
v -0.051556 -0.095112 0.471986
v -0.049894 -0.095716 0.469827
v -0.047818 -0.096118 0.468143
v -0.045724 -0.096340 0.467077
v -0.047832 -0.094424 0.466441
v -0.044633 -0.096404 0.466744
v -0.044350 -0.094683 0.464941
v -0.045724 -0.094617 0.465354
v -0.042173 -0.094725 0.464659
v -0.040357 -0.096466 0.466402
v -0.035748 -0.094550 0.465755
v -0.037377 -0.094644 0.465189
v -0.036709 -0.096332 0.467117
v -0.032279 -0.095847 0.469322
v -0.025695 -0.092309 0.474683
v -0.027460 -0.094252 0.473386
v -0.025513 -0.093551 0.476324
v -0.024467 -0.092769 0.478102
v -0.022688 -0.089047 0.480937
v -0.021948 -0.087953 0.486260
v -0.021922 -0.087322 0.487105
v -0.022002 -0.086442 0.488222
v -0.022608 -0.084592 0.490365
v -0.024052 -0.082594 0.492415
v -0.025770 -0.081205 0.493708
v -0.024736 -0.081951 0.493027
v -0.028369 -0.079983 0.494767
v -0.028208 -0.078616 0.493302
v -0.030392 -0.079479 0.495183
v -0.029892 -0.078155 0.493683
v -0.032473 -0.079210 0.495397
v -0.036717 -0.079351 0.495284
v -0.036722 -0.077929 0.493861
v -0.033841 -0.079166 0.495430
v -0.040319 -0.080137 0.494635
v -0.042482 -0.079492 0.492552
v -0.039524 -0.078483 0.493412
v -0.045838 -0.082626 0.492387
v -0.049290 -0.085280 0.489599
v -0.051466 -0.087761 0.486530
v -0.051100 -0.085839 0.485758
v -0.052954 -0.089047 0.480937
v -0.052679 -0.089852 0.483472
v -0.053276 -0.093095 0.477383
v -0.053352 -0.090934 0.477305
v -0.053352 -0.092435 0.478806
v -0.026956 -0.092768 0.472741
v -0.053255 -0.091653 0.475677
v -0.053130 -0.093536 0.476359
v -0.053063 -0.092253 0.474556
v 0.005269 -0.074657 0.496244
v 0.006338 -0.075524 0.495651
v -0.008653 -0.073177 0.497186
v -0.003997 -0.075525 0.495653
v -0.008653 -0.077957 0.493835
v -0.009684 -0.077797 0.493964
v -0.010847 -0.074373 0.496430
v -0.012363 -0.076309 0.495095
v -0.006464 -0.070776 0.498551
v -0.002683 -0.073177 0.497186
v 0.009255 -0.077797 0.493964
v 0.007254 -0.077995 0.493798
v 0.007070 -0.079250 0.492763
v 0.003218 -0.088426 0.481980
v -0.000160 -0.085628 0.486033
v -0.007032 -0.088842 0.481288
v -0.008652 -0.089523 0.480093
v -0.004183 -0.091402 0.476270
v -0.002683 -0.093329 0.470977
v -0.008653 -0.094595 0.465489
v -0.002683 -0.094595 0.465489
v 0.003286 -0.093329 0.470977
v 0.007972 -0.094595 0.465489
v 0.009074 -0.093329 0.470978
v 0.009255 -0.093068 0.471829
v 0.009330 -0.092840 0.472527
v -0.019487 -0.093329 0.470978
v -0.014622 -0.094595 0.465489
v -0.014622 -0.093329 0.470977
v -0.019412 -0.093222 0.471332
v -0.008653 -0.091402 0.476270
v -0.013924 -0.091522 0.475987
v -0.002683 -0.088842 0.481288
v -0.002683 -0.090853 0.477483
v 0.002270 -0.088842 0.481288
v 0.007246 -0.086500 0.484865
v 0.003286 -0.085689 0.485955
v 0.005149 -0.087545 0.483356
v 0.001312 -0.084860 0.486997
v 0.014236 -0.080364 0.491765
v 0.014852 -0.078481 0.493405
v 0.014905 -0.075498 0.495671
v 0.014594 -0.074379 0.496426
v 0.248656 0.039847 0.474440
v 0.245962 0.041434 0.473463
v 0.247594 0.039966 0.476156
v 0.246561 0.038977 0.481752
v 0.243350 0.040563 0.481872
v 0.246520 0.038218 0.484330
v 0.244744 0.037336 0.489636
v 0.245005 0.037090 0.489945
v 0.236524 0.045357 0.476334
v 0.233422 0.046788 0.476358
v 0.233806 0.047248 0.473420
v 0.241816 0.043226 0.474582
v 0.241507 0.043895 0.472267
v 0.236279 0.044310 0.480967
v 0.237204 0.044151 0.479901
v 0.231457 0.042742 0.492999
v 0.233748 0.042636 0.490264
v 0.232708 0.043309 0.489794
v 0.230245 0.043613 0.492243
v 0.217973 0.058936 0.481606
v 0.217125 0.058906 0.483353
v 0.219076 0.057151 0.483135
v 0.215554 0.060420 0.483515
v 0.214984 0.061502 0.482655
v 0.219519 0.060643 0.473948
v 0.221683 0.059117 0.472075
v 0.218937 0.061516 0.473251
v 0.221225 0.057265 0.478349
v 0.219308 0.059003 0.478565
v 0.218697 0.058963 0.480019
v 0.217730 0.060534 0.478730
v 0.220264 0.059042 0.476157
v 0.217148 0.061510 0.477953
v 0.221116 0.059090 0.473786
v 0.223021 0.057361 0.473576
v 0.209362 -0.061930 0.492062
v 0.212086 -0.061938 0.487881
v 0.212183 -0.059153 0.491887
v 0.213954 -0.056447 0.493525
v 0.211641 -0.056276 0.496800
v 0.210274 -0.059582 0.493959
v 0.214173 -0.061945 0.484223
v 0.215540 -0.059287 0.486376
v 0.216977 -0.056674 0.488639
v 0.215017 -0.056526 0.491894
v 0.213685 -0.059198 0.489578
v 0.214528 -0.059246 0.488154
v 0.212952 -0.060745 0.488306
v 0.221116 -0.059536 0.473786
v 0.221683 -0.059563 0.472075
v 0.223175 -0.057610 0.473749
v 0.219308 -0.059448 0.478565
v 0.220208 -0.059484 0.476309
v 0.221593 -0.057510 0.478005
v 0.218695 -0.059412 0.480017
v 0.217730 -0.060980 0.478730
v 0.214984 -0.061948 0.482655
v 0.216470 -0.061953 0.479520
v 0.217969 -0.059389 0.481600
v 0.217125 -0.059352 0.483353
v 0.216038 -0.059978 0.484244
v 0.218937 -0.061962 0.473251
v 0.220406 -0.061625 0.469620
v 0.222425 -0.059250 0.470788
v 0.225092 -0.057385 0.468696
v 0.224005 -0.057269 0.472486
v 0.202406 0.061463 0.500578
v 0.202962 0.058948 0.502615
v 0.209282 0.058585 0.495977
v 0.207824 0.058540 0.497814
v 0.210142 0.056349 0.497903
v 0.206212 0.060017 0.497929
v 0.205778 0.061473 0.496766
v 0.216533 0.057017 0.487940
v 0.214528 0.058800 0.488154
v 0.213686 0.058749 0.489581
v 0.212952 0.060299 0.488306
v 0.215543 0.058836 0.486380
v 0.212406 0.061494 0.487358
v 0.211977 0.058696 0.492200
v 0.213542 0.056855 0.492770
v 0.209866 0.060167 0.493109
v 0.209362 0.061484 0.492062
v 0.210478 0.058621 0.494383
v 0.253578 0.038116 0.470831
v 0.252954 0.037430 0.475173
v 0.251984 0.033477 0.489870
v 0.250771 0.034982 0.487466
v 0.249956 0.035266 0.487879
v 0.205758 -0.057013 0.502443
v 0.202962 -0.059394 0.502615
v 0.205025 -0.059460 0.500411
v 0.205778 -0.061919 0.496766
v 0.208232 -0.061927 0.493630
v 0.209281 -0.059034 0.495975
v 0.210383 -0.056182 0.498443
v 0.207638 -0.055977 0.501747
v 0.206692 -0.058908 0.499215
v 0.204446 -0.061915 0.498335
v -0.030839 0.087152 0.483280
v -0.030839 0.084125 0.487352
v -0.023970 0.093313 0.469428
v -0.023970 0.094310 0.464453
v -0.023970 0.091774 0.474263
v -0.030839 0.080668 0.491066
v -0.025670 0.071757 0.497763
v -0.024420 0.072495 0.497328
v -0.027920 0.078290 0.493200
v -0.030052 0.077648 0.493725
v -0.030913 0.076920 0.494301
v -0.031128 0.076575 0.494564
v -0.023404 0.075608 0.495278
v -0.023782 0.076690 0.494477
v -0.024439 0.077434 0.493898
v -0.025640 0.078058 0.493394
v -0.030913 0.073048 0.496990
v -0.029951 0.072170 0.497520
v -0.117847 0.087049 0.483431
v -0.118285 0.086361 0.484428
v -0.118958 0.085614 0.485464
v -0.110997 0.087050 0.483432
v -0.110783 0.087582 0.482615
v -0.110502 0.088727 0.480718
v -0.118430 0.091966 0.473741
v -0.121198 0.089854 0.478615
v -0.111227 0.091798 0.474197
v -0.111847 0.092400 0.472511
v -0.114400 0.093558 0.468423
v -0.116134 0.093924 0.466728
v -0.118191 0.094174 0.465338
v -0.119723 0.094288 0.464607
v -0.126199 0.093187 0.469909
v -0.128437 0.094349 0.464211
v -0.129496 0.094295 0.464593
v -0.130516 0.094221 0.465070
v -0.131969 0.094065 0.465979
v -0.136015 0.092936 0.470791
v -0.136605 0.092437 0.472388
v -0.136967 0.091880 0.473982
v -0.130965 0.091880 0.473982
v -0.129987 0.092475 0.472268
v -0.127790 0.093064 0.470359
v -0.128490 0.092954 0.470739
v -0.121863 0.094376 0.463976
v -0.124058 0.094413 0.463699
v -0.137312 0.089460 0.479383
v -0.137214 0.088362 0.481343
v -0.136865 0.087121 0.483322
v -0.129660 0.086345 0.484451
v -0.127566 0.084619 0.486748
v -0.129036 0.085582 0.485506
v -0.134489 0.083752 0.487793
v -0.133564 0.082986 0.488669
v -0.130076 0.081151 0.490596
v -0.129063 0.080831 0.490912
v -0.128016 0.080578 0.491158
v -0.126757 0.080364 0.491360
v -0.136313 0.085976 0.484973
v -0.135442 0.084747 0.486589
v -0.130123 0.087233 0.483152
v -0.121110 0.092952 0.470747
v -0.110654 0.090774 0.476682
v -0.124750 0.080197 0.491513
v -0.122544 0.080238 0.491476
v -0.113378 0.083943 0.487570
v -0.112191 0.085176 0.486043
v -0.111340 0.086387 0.484401
v -0.120375 0.080535 0.491198
v -0.119324 0.080783 0.490959
v -0.117662 0.081342 0.490403
v -0.083305 0.082873 0.488794
v -0.081993 0.083897 0.487623
v -0.086861 0.086361 0.484430
v -0.089320 0.084528 0.486862
v -0.089983 0.084000 0.487500
v -0.079562 0.087050 0.483432
v -0.079348 0.087582 0.482615
v -0.079025 0.089768 0.478790
v -0.086699 0.091734 0.474369
v -0.086333 0.091296 0.475469
v -0.089766 0.089854 0.478615
v -0.085947 0.090312 0.477685
v -0.086089 0.090820 0.476580
v -0.080412 0.092400 0.472511
v -0.082667 0.093481 0.468757
v -0.085622 0.094054 0.466035
v -0.087251 0.094219 0.465065
v -0.088287 0.094288 0.464607
v -0.096147 0.093081 0.470295
v -0.093660 0.093213 0.469811
v -0.090382 0.093054 0.470388
v -0.089720 0.092960 0.470720
v -0.097531 0.094322 0.464402
v -0.100166 0.094106 0.465745
v -0.103443 0.093455 0.468855
v -0.104579 0.092936 0.470791
v -0.105171 0.092437 0.472388
v -0.105532 0.091880 0.473982
v -0.102279 0.093769 0.467484
v -0.099033 0.092248 0.472956
v -0.098231 0.092627 0.471810
v -0.097055 0.092954 0.470739
v -0.090427 0.094376 0.463976
v -0.092622 0.094413 0.463699
v -0.105877 0.089460 0.479383
v -0.105778 0.088362 0.481343
v -0.105430 0.087121 0.483322
v -0.098210 0.086296 0.484521
v -0.096365 0.084717 0.486627
v -0.103164 0.083852 0.487677
v -0.102834 0.083553 0.488026
v -0.102129 0.082986 0.488669
v -0.101355 0.082459 0.489246
v -0.099905 0.081678 0.490062
v -0.098641 0.081151 0.490596
v -0.097628 0.080831 0.490912
v -0.104878 0.085976 0.484973
v -0.105852 0.090026 0.478266
v -0.098704 0.087233 0.483152
v -0.089177 0.092854 0.471077
v -0.087208 0.092126 0.473307
v -0.079218 0.090774 0.476682
v -0.093315 0.080197 0.491513
v -0.091109 0.080238 0.491476
v -0.091487 0.084000 0.487502
v -0.089766 0.087906 0.482100
v -0.080756 0.085176 0.486043
v -0.079904 0.086387 0.484401
v -0.088939 0.080535 0.491198
v -0.087889 0.080783 0.490959
v -0.086227 0.081342 0.490403
v -0.065240 0.083722 0.487827
v -0.068166 0.085556 0.485541
v -0.067223 0.086188 0.484680
v -0.069024 0.085136 0.486094
v -0.070066 0.084813 0.486506
v -0.065970 0.091695 0.474471
v -0.065970 0.089559 0.479195
v -0.065970 0.094310 0.464453
v -0.065970 0.093285 0.469536
v -0.075150 0.083767 0.487777
v -0.071819 0.080285 0.491432
v -0.068294 0.081305 0.490439
v -0.066612 0.082352 0.489359
v -0.073892 0.084489 0.486910
v -0.065970 0.088813 0.480569
v -0.066239 0.087494 0.482747
v -0.040219 0.080107 0.491588
v -0.047088 0.086724 0.483916
v -0.040219 0.089536 0.479240
v -0.040219 0.091842 0.474081
v -0.040307 0.092531 0.472106
v -0.040575 0.092993 0.470587
v -0.040724 0.093135 0.470071
v -0.042041 0.093810 0.467295
v -0.043696 0.094138 0.465547
v -0.045812 0.094329 0.464319
v -0.048046 0.094402 0.463781
v -0.052194 0.093105 0.470205
v -0.048303 0.092919 0.470859
v -0.049190 0.093063 0.470356
v -0.050534 0.094404 0.463764
v -0.036245 0.083624 0.487936
v -0.040219 0.084361 0.487067
v -0.053634 0.080668 0.491066
v -0.036245 0.080668 0.491066
v 0.009314 0.080668 0.491066
v 0.001832 0.086670 0.483984
v -0.000434 0.084874 0.486429
v 0.000455 0.085356 0.485805
v 0.002445 0.091695 0.474471
v 0.002445 0.089559 0.479195
v 0.002445 0.094305 0.464489
v 0.002445 0.093285 0.469536
v -0.006029 0.080205 0.491506
v -0.004064 0.080374 0.491348
v -0.001190 0.081041 0.490704
v -0.007873 0.084700 0.486650
v -0.009461 0.085816 0.485189
v -0.009792 0.086352 0.484444
v -0.015794 0.083648 0.487913
v -0.015179 0.082935 0.488725
v -0.014018 0.082024 0.489702
v -0.012650 0.081243 0.490504
v -0.016946 0.089559 0.479195
v -0.016946 0.087085 0.483382
v -0.016946 0.093285 0.469536
v -0.016946 0.094310 0.464453
v -0.016859 0.086072 0.484843
v -0.016567 0.085021 0.486242
v -0.016329 0.084489 0.486910
v -0.011063 0.080679 0.491055
v -0.009648 0.080386 0.491335
v -0.007594 0.080194 0.491516
v -0.001380 0.084538 0.486849
v 0.002445 0.088634 0.480881
v 0.002335 0.087804 0.482256
v -0.000166 0.081461 0.490282
v 0.001421 0.082298 0.489418
v 0.048034 0.088827 0.480544
v 0.048034 0.089621 0.479076
v 0.047577 0.091407 0.475195
v 0.037986 0.092507 0.472181
v 0.039770 0.091796 0.474203
v 0.040344 0.091331 0.475382
v 0.037432 0.094312 0.464473
v 0.036990 0.094330 0.464347
v 0.032120 0.094408 0.463731
v 0.026724 0.092518 0.472156
v 0.027670 0.092706 0.471560
v 0.030289 0.092990 0.470615
v 0.028938 0.092889 0.470960
v 0.024144 0.094133 0.465587
v 0.021599 0.093816 0.467272
v 0.018023 0.092653 0.471716
v 0.017273 0.092124 0.473310
v 0.023668 0.089350 0.479592
v 0.023724 0.090001 0.478325
v 0.023668 0.072420 0.497374
v 0.023668 0.077306 0.494000
v 0.023668 0.081716 0.490025
v 0.016380 0.090720 0.476801
v 0.016229 0.089621 0.479076
v 0.024790 0.091682 0.474502
v 0.025241 0.091962 0.473759
v 0.027236 0.094329 0.464354
v 0.026831 0.094312 0.464471
v 0.041540 0.093983 0.466429
v 0.040090 0.094135 0.465572
v 0.033063 0.093034 0.470461
v 0.036457 0.092812 0.471219
v 0.047381 0.091693 0.474472
v 0.046979 0.092126 0.473305
v 0.046222 0.092655 0.471709
v 0.045185 0.093163 0.469996
v 0.041073 0.089350 0.479592
v 0.048034 0.077306 0.494000
v -0.060749 -0.069737 0.499088
v -0.059112 -0.070714 0.498586
v -0.057880 -0.071777 0.498003
v -0.063774 -0.076594 0.494882
v -0.065481 -0.075144 0.495917
v -0.066362 -0.074765 0.496175
v -0.071972 -0.073268 0.497130
v -0.072279 -0.074356 0.496442
v -0.074125 -0.074807 0.496143
v -0.076345 -0.075726 0.495513
v -0.083029 -0.081736 0.490454
v -0.088557 -0.078149 0.493682
v -0.088557 -0.085956 0.485604
v -0.093704 -0.088182 0.482367
v -0.093201 -0.086089 0.485424
v -0.090947 -0.093274 0.471153
v -0.092569 -0.092193 0.474328
v -0.091864 -0.092768 0.472733
v -0.083532 -0.094613 0.465380
v -0.077352 -0.094727 0.464653
v -0.077501 -0.093543 0.470233
v -0.079866 -0.094723 0.464678
v -0.082396 -0.094667 0.465046
v -0.075481 -0.094695 0.464860
v -0.067935 -0.094103 0.467993
v -0.070494 -0.094423 0.466456
v -0.064723 -0.093408 0.470706
v -0.071972 -0.088405 0.482013
v -0.060916 -0.084412 0.487541
v -0.057311 -0.085956 0.485604
v -0.070048 -0.092118 0.474525
v -0.069074 -0.091755 0.475437
v -0.072281 -0.092649 0.473087
v -0.079349 -0.092900 0.472347
v -0.078108 -0.092968 0.472139
v -0.082651 -0.092317 0.474004
v -0.085191 -0.090539 0.478135
v -0.085608 -0.089360 0.480380
v -0.084478 -0.091365 0.476348
v -0.084873 -0.090977 0.477210
v -0.084856 -0.085159 0.486630
v -0.085149 -0.085955 0.485604
v -0.082805 -0.081415 0.490772
v -0.085713 -0.075231 0.495857
v -0.074068 -0.068874 0.499506
v -0.062804 -0.078776 0.493163
v -0.065946 -0.068327 0.499760
v -0.056250 -0.073997 0.496671
v -0.030209 -0.084264 0.487706
v -0.029609 -0.085490 0.486205
v -0.031257 -0.083141 0.488988
v -0.042493 -0.084865 0.486992
v -0.041360 -0.084013 0.488009
v -0.040053 -0.083249 0.488869
v -0.042941 -0.085264 0.486495
v -0.047680 -0.082506 0.489661
v -0.053132 -0.089566 0.480013
v -0.034405 -0.094438 0.466375
v -0.031806 -0.091030 0.477094
v -0.026327 -0.091658 0.475669
v -0.037881 -0.093100 0.471728
v -0.036192 -0.092854 0.472485
v -0.033896 -0.092193 0.474332
v -0.044997 -0.092146 0.474454
v -0.042940 -0.092978 0.472110
v -0.043554 -0.092823 0.472574
v -0.045579 -0.089261 0.480561
v -0.043509 -0.085836 0.485757
v -0.044229 -0.086705 0.484575
v -0.044844 -0.087642 0.483209
v -0.045311 -0.088563 0.481755
v -0.037612 -0.078064 0.493754
v -0.029624 -0.087725 0.483085
v -0.029468 -0.086731 0.484544
v -0.042886 -0.096460 0.466436
v -0.037849 -0.096391 0.466809
v -0.034405 -0.096135 0.468073
v -0.029515 -0.095255 0.471515
v -0.028789 -0.095039 0.472224
v -0.023508 -0.091783 0.480110
v -0.023155 -0.091304 0.481006
v -0.022271 -0.085393 0.489468
v -0.023160 -0.083655 0.491358
v -0.029105 -0.079757 0.494956
v -0.038933 -0.079755 0.494955
v -0.042176 -0.080781 0.494082
v -0.044677 -0.081951 0.493028
v -0.046823 -0.083275 0.491746
v -0.050333 -0.086347 0.488342
v -0.053132 -0.091037 0.481483
v -0.053302 -0.091781 0.480109
v -0.027459 -0.092977 0.472111
v 0.009737 -0.069440 0.499234
v 0.011458 -0.070407 0.498747
v 0.003286 -0.073177 0.497186
v 0.004311 -0.074259 0.496505
v -0.000337 -0.074105 0.496607
v -0.002086 -0.074587 0.496291
v -0.005646 -0.076767 0.494755
v -0.006674 -0.077809 0.493953
v -0.008653 -0.072279 0.497720
v -0.009007 -0.072572 0.497548
v -0.002683 -0.069091 0.499403
v -0.004445 -0.069739 0.499087
v -0.001842 -0.068851 0.499517
v 0.003461 -0.068198 0.499818
v 0.000874 -0.068348 0.499751
v 0.009255 -0.081988 0.490201
v 0.009263 -0.085369 0.486365
v 0.004893 -0.082513 0.489660
v 0.008722 -0.085689 0.485954
v 0.003775 -0.083365 0.488738
v -0.002683 -0.086868 0.484351
v -0.008653 -0.093329 0.470977
v 0.003286 -0.094595 0.465489
v 0.003286 -0.092840 0.472527
v -0.020591 -0.094595 0.465489
v -0.008597 -0.092840 0.472527
v 0.002570 -0.084140 0.487855
v 0.013470 -0.081716 0.490476
v 0.005019 -0.068253 0.499795
v 0.007771 -0.068714 0.499585
v 0.015031 -0.076649 0.494843
v 0.249851 0.040080 0.470756
v 0.249725 0.039473 0.473714
v 0.252603 0.038698 0.470542
v 0.252071 0.038200 0.473926
v 0.251983 0.039037 0.470481
v 0.250806 0.038979 0.473441
v 0.244605 0.041522 0.475937
v 0.246627 0.041290 0.472645
v 0.248258 0.040744 0.471419
v 0.247130 0.041145 0.472169
v 0.246682 0.039309 0.480376
v 0.246870 0.039601 0.478973
v 0.243602 0.041058 0.479668
v 0.243973 0.041342 0.477899
v 0.247149 0.039830 0.477574
v 0.243377 0.039349 0.485790
v 0.243911 0.038311 0.488080
v 0.231843 0.046085 0.482131
v 0.234015 0.045738 0.479588
v 0.237712 0.045577 0.472835
v 0.237270 0.045137 0.475782
v 0.239079 0.043800 0.477739
v 0.240301 0.043553 0.476329
v 0.232744 0.047081 0.476459
v 0.235354 0.044460 0.482034
v 0.238128 0.043983 0.478835
v 0.228791 0.045761 0.488066
v 0.229288 0.046175 0.486007
v 0.232439 0.044680 0.486009
v 0.234090 0.041352 0.493232
v 0.236017 0.041694 0.489757
v 0.232384 0.042197 0.493232
v 0.239779 0.039853 0.489632
v 0.238034 0.039997 0.491621
v 0.238959 0.039847 0.490783
v 0.237056 0.041439 0.489016
v 0.235918 0.040608 0.492796
v 0.238287 0.041548 0.486887
v 0.228959 0.044932 0.490288
v 0.229151 0.044654 0.490820
v 0.216407 0.058857 0.484799
v 0.217878 0.056298 0.487015
v 0.219537 0.056428 0.483775
v 0.225092 0.056939 0.468696
v 0.220877 0.060838 0.469123
v 0.222425 0.058804 0.470788
v 0.220298 0.056490 0.482158
v 0.221692 0.056608 0.478928
v 0.223483 0.056771 0.474095
v 0.213542 -0.057301 0.492770
v 0.216533 -0.057463 0.487940
v 0.219076 -0.057597 0.483135
v 0.219537 -0.056874 0.483775
v 0.217148 -0.061955 0.477953
v 0.219519 -0.061089 0.473948
v 0.205758 0.056567 0.502443
v 0.200277 0.061456 0.502737
v 0.215017 0.056080 0.491894
v 0.216977 0.056228 0.488639
v 0.211641 0.055830 0.496800
v 0.213954 0.056001 0.493525
v 0.255973 0.036116 0.473858
v 0.253082 0.037231 0.475698
v 0.253252 0.036604 0.477762
v 0.256399 0.035395 0.475839
v 0.256486 0.034877 0.477657
v 0.253177 0.035999 0.480129
v 0.256412 0.034369 0.479684
v 0.255335 0.036810 0.472398
v 0.254607 0.037410 0.471510
v 0.256163 0.033903 0.481783
v 0.253072 0.035731 0.481261
v 0.251830 0.034898 0.486052
v 0.255570 0.033406 0.484473
v 0.252600 0.035140 0.484049
v 0.255261 0.033277 0.485397
v 0.254694 0.033153 0.486692
v 0.253437 0.033174 0.488572
v 0.251041 0.034920 0.487233
v 0.249825 0.034253 0.490841
v 0.247224 0.035540 0.491032
v 0.248261 0.034978 0.491090
v 0.245896 0.036398 0.490576
v 0.200277 -0.061902 0.502737
v 0.202406 -0.061909 0.500578
v 0.207824 -0.058986 0.497814
v 0.206212 -0.060463 0.497929
v 0.210021 -0.057101 0.497633
f 5 6 7
f 38 39 40
f 38 40 41
f 61 60 62
f 17 65 64
f 72 71 22
f 78 79 80
f 81 82 83
f 84 85 86
f 87 88 89
f 90 86 88
f 91 82 85
f 83 80 79
f 92 23 2
f 96 97 24
f 98 99 100
f 101 102 103
f 104 4 105
f 108 109 110
f 6 113 114
f 111 116 117
f 119 120 24
f 122 123 124
f 125 126 127
f 9 128 129
f 132 133 134
f 135 136 137
f 141 142 143
f 145 146 143
f 139 145 147
f 149 125 127
f 151 152 153
f 154 28 155
f 156 157 158
f 159 160 156
f 158 161 154
f 155 153 152
f 165 166 167
f 168 169 170
f 168 171 169
f 172 173 174
f 175 176 177
f 178 175 179
f 180 172 174
f 181 171 173
f 182 170 169
f 183 166 170
f 184 185 10
f 186 187 188
f 189 190 191
f 192 193 189
f 191 194 186
f 11 195 196
f 199 200 201
f 202 203 204
f 204 205 199
f 206 200 205
f 207 200 208
f 188 10 185
f 210 211 212
f 213 214 215
f 216 217 218
f 219 220 221
f 222 223 224
f 225 226 227
f 228 229 230
f 231 232 233
f 234 235 231
f 236 232 229
f 237 229 238
f 239 240 222
f 223 221 241
f 242 243 244
f 245 246 219
f 218 247 248
f 252 253 254
f 12 255 256
f 257 258 259
f 260 261 262
f 263 264 265
f 263 266 267
f 268 269 270
f 34 272 273
f 276 277 278
f 280 281 278
f 275 282 283
f 270 284 285
f 262 287 288
f 258 257 289
f 290 291 255
f 292 293 294
f 295 296 252
f 36 297 298
f 299 300 252
f 301 48 302
f 303 304 305
f 306 307 308
f 310 311 312
f 313 314 315
f 317 318 319
f 320 321 317
f 322 323 324
f 308 325 326
f 327 328 50
f 329 330 331
f 332 333 38
f 47 334 45
f 335 336 302
f 307 337 338
f 339 43 338
f 309 339 340
f 341 342 340
f 343 344 345
f 310 346 347
f 348 349 350
f 351 313 315
f 352 353 354
f 46 47 356
f 357 358 44
f 359 335 44
f 360 336 335
f 362 301 363
f 364 365 48
f 369 370 371
f 372 373 374
f 331 375 329
f 50 376 327
f 377 303 378
f 379 304 380
f 381 382 383
f 307 306 337
f 387 386 337
f 53 388 389
f 394 395 393
f 398 399 400
f 403 404 405
f 406 407 408
f 409 410 411
f 414 415 416
f 416 417 414
f 418 404 419
f 420 421 422
f 423 424 425
f 424 426 402
f 427 428 398
f 429 430 398
f 431 432 433
f 434 435 436
f 437 438 60
f 440 439 441
f 444 445 54
f 446 447 448
f 450 451 452
f 453 450 454
f 455 456 457
f 458 459 460
f 461 462 463
f 456 464 465
f 461 460 459
f 466 467 468
f 469 470 471
f 467 472 473
f 474 475 476
f 477 476 478
f 479 480 481
f 482 483 484
f 482 485 486
f 487 488 489
f 492 493 480
f 494 495 496
f 497 498 16
f 499 500 501
f 502 499 503
f 504 505 506
f 507 508 509
f 512 510 513
f 511 510 514
f 517 518 519
f 520 521 522
f 523 524 525
f 526 527 528
f 530 531 80
f 81 85 82
f 532 88 86
f 533 89 88
f 534 86 85
f 91 530 82
f 531 535 78
f 536 537 2
f 537 1 2
f 540 541 2
f 541 92 2
f 2 1 542
f 543 544 2
f 545 538 2
f 546 547 2
f 547 93 2
f 120 548 549
f 7 95 94
f 95 120 549
f 549 550 95
f 120 551 552
f 553 25 24
f 24 98 96
f 98 556 557
f 99 558 100
f 559 560 103
f 560 561 103
f 107 562 101
f 107 106 563
f 564 565 107
f 565 566 4
f 4 3 105
f 567 568 104
f 568 569 104
f 566 3 4
f 104 570 571
f 107 4 572
f 562 107 572
f 573 572 4
f 574 575 103
f 103 575 107
f 576 577 111
f 116 113 579
f 112 581 113
f 583 114 113
f 114 584 6
f 585 586 6
f 588 589 116
f 589 582 113
f 116 590 117
f 103 591 118
f 98 100 554
f 118 554 100
f 25 592 24
f 24 592 98
f 593 594 7
f 555 108 119
f 24 555 119
f 595 596 95
f 597 551 120
f 598 599 7
f 7 600 95
f 601 602 124
f 124 125 603
f 125 606 607
f 126 608 127
f 9 609 610
f 127 9 613
f 9 8 614
f 128 615 129
f 138 616 129
f 617 618 131
f 137 619 620
f 621 622 131
f 131 620 130
f 137 136 623
f 623 624 137
f 133 625 134
f 626 627 132
f 627 628 132
f 624 629 133
f 629 625 133
f 630 631 133
f 137 133 619
f 632 619 133
f 633 634 131
f 131 634 137
f 635 636 139
f 145 143 638
f 142 638 143
f 143 640 641
f 642 643 143
f 143 644 27
f 645 646 27
f 647 146 145
f 145 649 147
f 131 622 650
f 129 131 148
f 148 131 650
f 148 651 129
f 608 652 127
f 127 652 9
f 27 144 653
f 653 654 605
f 611 656 149
f 127 611 149
f 657 658 125
f 658 606 125
f 659 660 605
f 605 661 124
f 153 28 662
f 28 664 662
f 662 663 665
f 667 668 161
f 669 670 160
f 670 667 157
f 158 157 161
f 671 30 31
f 163 162 673
f 674 662 163
f 671 163 164
f 675 671 164
f 161 668 676
f 29 28 677
f 155 28 153
f 165 678 166
f 166 168 170
f 171 679 169
f 680 173 171
f 682 683 174
f 176 685 177
f 177 686 175
f 687 688 175
f 690 180 175
f 692 179 175
f 175 180 176
f 174 176 180
f 681 174 173
f 168 693 694
f 182 695 170
f 678 696 693
f 183 167 166
f 184 697 185
f 187 698 10
f 11 10 699
f 700 699 10
f 701 702 194
f 703 704 193
f 704 701 190
f 705 706 195
f 196 707 11
f 208 198 709
f 198 195 708
f 711 712 198
f 713 714 198
f 200 715 716
f 199 205 200
f 717 206 205
f 718 717 203
f 206 715 200
f 719 720 208
f 720 721 198
f 721 711 198
f 207 201 200
f 198 197 722
f 723 724 195
f 195 11 209
f 194 726 727
f 698 187 727
f 11 707 728
f 728 729 11
f 213 249 214
f 216 730 731
f 217 732 218
f 218 244 734
f 734 735 218
f 219 736 737
f 220 738 221
f 223 739 740
f 223 740 742
f 743 224 223
f 240 745 222
f 222 745 227
f 746 225 227
f 230 747 748
f 227 230 748
f 228 236 229
f 238 229 232
f 749 750 235
f 750 751 232
f 237 230 229
f 752 753 230
f 753 228 230
f 227 754 755
f 222 227 755
f 738 241 221
f 756 757 223
f 243 758 244
f 758 759 219
f 221 760 245
f 761 733 219
f 219 221 245
f 218 732 762
f 763 764 218
f 764 765 244
f 766 216 248
f 767 215 214
f 768 250 769
f 36 250 771
f 250 252 772
f 252 773 772
f 251 771 250
f 252 774 253
f 774 775 253
f 254 773 252
f 775 774 776
f 292 777 776
f 292 12 256
f 12 290 255
f 778 290 779
f 779 257 778
f 780 257 259
f 262 780 781
f 32 262 261
f 264 32 783
f 784 785 32
f 786 267 266
f 787 788 789
f 788 267 789
f 267 786 790
f 270 788 268
f 787 791 788
f 271 270 792
f 793 792 270
f 34 271 794
f 274 34 35
f 275 280 277
f 280 278 277
f 276 795 277
f 280 796 281
f 797 280 283
f 270 271 798
f 271 34 798
f 34 799 798
f 788 270 285
f 270 800 284
f 267 788 801
f 788 802 801
f 803 286 267
f 32 264 286
f 264 267 286
f 262 32 804
f 805 262 804
f 32 806 807
f 780 262 288
f 262 805 287
f 257 780 808
f 780 809 808
f 257 779 289
f 290 810 291
f 290 12 811
f 12 292 294
f 292 774 812
f 293 292 812
f 774 252 296
f 297 36 813
f 252 250 299
f 250 768 299
f 250 36 298
f 336 301 302
f 45 302 816
f 817 45 816
f 302 818 816
f 330 819 820
f 330 820 821
f 822 330 823
f 823 328 822
f 379 305 304
f 328 378 303
f 308 305 382
f 305 379 824
f 42 308 307
f 385 387 308
f 387 306 308
f 342 42 309
f 346 322 344
f 344 322 345
f 349 312 311
f 312 322 310
f 315 314 825
f 316 314 313
f 827 317 319
f 319 826 827
f 827 384 352
f 317 827 320
f 312 314 829
f 314 316 830
f 312 828 323
f 308 42 831
f 325 308 831
f 322 832 833
f 305 308 326
f 835 328 836
f 836 328 837
f 305 834 838
f 328 823 50
f 330 373 331
f 330 39 373
f 839 39 370
f 39 38 333
f 317 45 840
f 45 817 841
f 44 45 334
f 317 356 47
f 38 302 365
f 302 48 365
f 302 45 335
f 339 309 43
f 340 342 309
f 345 341 343
f 347 843 311
f 349 843 350
f 825 348 350
f 844 351 315
f 351 845 313
f 845 846 313
f 320 827 354
f 355 847 321
f 848 46 356
f 334 357 44
f 358 359 44
f 360 850 336
f 850 361 336
f 361 363 301
f 851 366 367
f 366 368 332
f 368 371 333
f 370 369 839
f 369 852 839
f 375 855 329
f 329 855 823
f 376 856 327
f 856 377 378
f 380 857 379
f 824 857 858
f 381 385 382
f 859 353 384
f 860 53 861
f 398 53 389
f 53 862 863
f 53 863 388
f 862 397 864
f 397 865 864
f 397 390 391
f 390 392 866
f 392 867 866
f 392 390 394
f 390 868 869
f 390 397 396
f 397 870 871
f 870 397 872
f 862 873 874
f 875 398 400
f 876 875 877
f 424 878 879
f 879 878 877
f 401 424 402
f 880 420 422
f 404 418 405
f 421 420 403
f 881 418 419
f 406 881 407
f 409 882 410
f 883 409 411
f 414 884 415
f 416 419 417
f 881 406 885
f 885 405 418
f 424 401 425
f 424 886 426
f 427 875 887
f 873 862 888
f 860 889 53
f 53 398 430
f 52 53 430
f 890 429 398
f 515 893 894
f 893 895 894
f 516 515 894
f 891 896 894
f 897 433 432
f 898 432 431
f 899 900 431
f 891 899 431
f 901 902 903
f 435 901 903
f 904 903 902
f 906 907 60
f 907 437 60
f 59 58 908
f 909 54 55
f 911 439 912
f 913 910 911
f 439 910 441
f 441 914 440
f 54 58 915
f 916 912 54
f 445 916 54
f 917 56 57
f 919 918 57
f 59 918 919
f 919 58 59
f 922 920 447
f 449 446 448
f 57 449 448
f 920 921 447
f 13 14 923
f 924 925 926
f 920 927 921
f 921 924 926
f 13 928 14
f 56 929 57
f 930 449 57
f 931 932 933
f 451 450 453
f 464 456 455
f 934 935 936
f 460 937 938
f 459 462 461
f 939 465 462
f 471 466 468
f 940 469 471
f 478 467 473
f 477 941 476
f 942 943 491
f 486 944 483
f 482 484 485
f 489 490 491
f 491 487 489
f 480 479 945
f 494 493 495
f 16 498 946
f 497 947 498
f 500 499 502
f 506 948 949
f 505 508 507
f 514 950 951
f 952 516 953
f 953 954 955
f 952 959 516
f 959 960 516
f 958 957 961
f 964 963 966
f 966 963 967
f 967 963 968
f 517 968 969
f 518 517 969
f 970 517 519
f 971 972 62
f 62 972 519
f 973 971 62
f 521 974 975
f 525 976 977
f 976 978 528
f 522 975 529
