# Simplified Clearpath Husky demo mesh. See README.md for source/license.
# from top_plate.dae, exact deduplication
v 0.305000 -0.295000 0.006350
v -0.345000 -0.295000 0.006350
v 0.305000 -0.295000 0.000000
v -0.345000 -0.295000 0.000000
v -0.365000 -0.275000 0.000000
v -0.365000 0.275000 0.000000
v -0.345000 0.295000 0.000000
v 0.305000 0.295000 0.000000
v 0.365000 -0.235000 0.000000
v 0.365000 0.235000 0.000000
v 0.305000 0.295000 0.006350
v -0.345000 0.295000 0.006350
v 0.365000 -0.235000 0.006350
v 0.365000 0.235000 0.006350
v -0.365000 -0.275000 0.006350
v -0.365000 0.275000 0.006350
f 1 2 3
f 3 2 4
f 5 6 4
f 4 6 7
f 4 7 3
f 3 7 8
f 3 8 9
f 9 8 10
f 8 7 11
f 11 7 12
f 13 14 1
f 1 14 11
f 2 1 15
f 15 1 11
f 15 11 16
f 16 11 12
f 9 10 13
f 13 10 14
f 6 5 16
f 16 5 15
f 16 12 6
f 6 12 7
f 5 4 15
f 15 4 2
f 3 9 1
f 1 9 13
f 11 14 8
f 8 14 10
