# Simplified Clearpath Husky demo mesh. See README.md for source/license.
# from base_link.dae, grid=0.005m
v -0.349940 -0.205237 -0.003175
v -0.349940 -0.180825 -0.003175
v -0.344407 -0.179555 -0.003092
v 0.344407 0.179555 -0.003092
v 0.344407 -0.179555 -0.003092
v 0.349940 0.205237 -0.003175
v 0.349940 0.180825 -0.003175
v 0.349940 -0.180825 -0.003175
v 0.349940 -0.205237 -0.003175
v -0.344407 0.179555 -0.003092
v -0.349940 0.180825 -0.003175
v -0.349940 0.205237 -0.003175
v 0.349905 -0.205938 0.000169
v 0.349394 -0.179575 0.000059
v 0.345538 -0.179360 0.000478
v -0.345566 -0.179351 0.000503
v -0.349906 0.205927 0.000165
v -0.349394 0.179575 0.000059
v -0.349394 -0.179575 0.000059
v -0.349905 -0.205938 0.000169
v 0.345538 0.179360 0.000478
v 0.349394 0.179575 0.000059
v 0.349906 0.205927 0.000165
v -0.345566 0.179351 0.000503
v -0.349940 0.179237 0.009825
v -0.346765 0.179237 0.009825
v -0.346765 -0.179237 0.009825
v -0.349940 -0.179237 0.009825
v 0.346765 0.179237 0.009825
v 0.349940 0.179237 0.009825
v 0.349940 -0.179237 0.009825
v 0.346765 -0.179237 0.009825
v -0.248250 0.251024 0.035311
v -0.248581 0.254417 0.033846
v -0.248717 0.276701 0.034531
v -0.247873 0.285474 0.035003
v -0.248559 0.278080 0.033393
v -0.248348 0.251024 0.030040
v -0.248848 0.254251 0.030812
v -0.248164 0.285474 0.029973
v -0.248658 0.278176 0.031252
v -0.249403 0.276594 0.029865
v -0.251030 0.251024 0.026217
v -0.251174 0.285474 0.025933
v -0.254897 0.251024 0.024761
v -0.255267 0.285474 0.024443
v -0.260071 0.251024 0.025773
v -0.260169 0.285474 0.025603
v -0.263652 0.251024 0.030040
v -0.263836 0.285474 0.029973
v -0.263750 0.251024 0.035311
v -0.264127 0.285474 0.035003
v -0.262963 0.251024 0.037700
v -0.262963 0.285474 0.037700
v -0.260071 0.251024 0.039877
v -0.260169 0.285474 0.040047
v -0.254897 0.251024 0.040889
v -0.255267 0.285474 0.041207
v -0.250698 0.251024 0.039144
v -0.250640 0.285474 0.039213
v -0.247873 0.152274 0.035003
v -0.248581 0.154217 0.033846
v -0.248760 0.176641 0.034468
v -0.248250 0.203724 0.035311
v -0.248491 0.177963 0.033270
v -0.248164 0.152274 0.029973
v -0.248848 0.154051 0.030812
v -0.248348 0.203724 0.030040
v -0.248577 0.178054 0.031372
v -0.249385 0.176585 0.029950
v -0.251174 0.152274 0.025933
v -0.251030 0.203724 0.026217
v -0.255267 0.152274 0.024443
v -0.254897 0.203724 0.024761
v -0.260169 0.152274 0.025603
v -0.260071 0.203724 0.025773
v -0.263836 0.152274 0.029973
v -0.263652 0.203724 0.030040
v -0.264127 0.152274 0.035003
v -0.263750 0.203724 0.035311
v -0.262963 0.152274 0.037700
v -0.262963 0.203724 0.037700
v -0.260169 0.152274 0.040047
v -0.260071 0.203724 0.039877
v -0.255267 0.152274 0.041207
v -0.254897 0.203724 0.040889
v -0.250640 0.152274 0.039213
v -0.250698 0.203724 0.039144
v 0.260007 0.204024 0.039821
v 0.259383 0.253961 0.040079
v 0.254870 0.204024 0.040963
v 0.256619 0.254818 0.039758
v 0.256507 0.276699 0.040288
v 0.254843 0.285474 0.041159
v 0.256882 0.277902 0.039003
v 0.259077 0.278219 0.040140
v 0.259798 0.285474 0.040249
v 0.261271 0.276584 0.039492
v 0.262707 0.204024 0.038047
v 0.262707 0.285474 0.038047
v 0.263937 0.204024 0.034643
v 0.264128 0.285474 0.034687
v 0.263613 0.204024 0.029734
v 0.263796 0.285474 0.029660
v 0.260423 0.204024 0.025988
v 0.260530 0.285474 0.025824
v 0.254994 0.204024 0.024745
v 0.254970 0.285474 0.024550
v 0.251013 0.204024 0.026230
v 0.250893 0.285474 0.026071
v 0.248499 0.204024 0.029656
v 0.248318 0.285474 0.029579
v 0.248217 0.204024 0.035219
v 0.248029 0.285474 0.035276
v 0.250953 0.204024 0.039308
v 0.250831 0.285474 0.039464
v 0.259520 0.131367 0.039867
v 0.259827 0.133070 0.040237
v 0.255055 0.130755 0.040754
v 0.256591 0.133629 0.039975
v 0.256614 0.155820 0.039759
v 0.259392 0.156683 0.040046
v 0.262707 0.130624 0.038047
v 0.263937 0.130624 0.034643
v 0.263613 0.130624 0.029734
v 0.260423 0.130624 0.025988
v 0.254994 0.130624 0.024745
v 0.251013 0.130624 0.026230
v 0.248499 0.130624 0.029656
v 0.248217 0.130624 0.035219
v 0.250953 0.130624 0.039308
v 0.263796 0.120174 0.029660
v 0.254843 0.120174 0.041159
v 0.248318 0.120174 0.029579
v 0.250893 0.120174 0.026071
v 0.254970 0.120174 0.024550
v 0.260530 0.120174 0.025824
v 0.248029 0.120174 0.035276
v 0.250831 0.120174 0.039464
v 0.259798 0.120174 0.040249
v 0.264128 0.120174 0.034687
v 0.262707 0.120174 0.038047
v 0.259955 0.133499 0.037155
v 0.259955 0.155849 0.037155
v 0.259955 0.254799 0.037155
v 0.260264 0.276609 0.037030
v 0.259543 0.277870 0.037323
v -0.266376 0.207174 0.219436
v -0.268969 0.206115 0.221290
v -0.400253 0.206279 0.110903
v 0.400252 0.206283 0.110946
v 0.268966 0.206134 0.221288
v 0.266376 0.207174 0.219436
v -0.260512 0.207174 0.015986
v -0.350124 0.206306 0.004109
v 0.400351 0.206305 0.046150
v -0.271070 0.205987 0.224206
v 0.271070 0.205987 0.224206
v 0.265999 0.207174 0.018544
v 0.260512 0.207174 0.015986
v 0.350124 0.206308 0.004111
v -0.265999 0.207174 0.018544
v -0.269406 0.207174 0.021576
v -0.273234 0.207174 0.029786
v -0.400354 0.206300 0.046149
v -0.273367 0.207174 0.034344
v -0.243673 0.207174 0.045152
v -0.240200 0.207174 0.040193
v -0.271800 0.207174 0.025457
v -0.271800 0.207174 0.040193
v -0.269406 0.207174 0.044074
v -0.240200 0.207174 0.025457
v -0.238766 0.207174 0.029786
v -0.267249 0.207174 0.046231
v -0.264750 0.207174 0.047980
v -0.260512 0.207174 0.049664
v 0.273367 0.207174 0.034344
v 0.273234 0.207174 0.029786
v 0.271800 0.207174 0.025457
v -0.244865 0.207174 0.019555
v 0.271800 0.207174 0.040193
v 0.269406 0.207174 0.021576
v -0.238633 0.207174 0.034344
v 0.254481 0.207174 0.015458
v -0.250015 0.207174 0.016380
v -0.254481 0.207174 0.015458
v -0.254481 0.207174 0.050192
v 0.264750 0.207174 0.047980
v 0.267249 0.207174 0.046231
v -0.250015 0.207174 0.049270
v -0.247250 0.207174 0.047980
v 0.244865 0.207174 0.019555
v 0.269406 0.207174 0.044074
v 0.240200 0.207174 0.025457
v 0.238766 0.207174 0.029786
v 0.238633 0.207174 0.034344
v 0.240200 0.207174 0.040193
v 0.250015 0.207174 0.016380
v 0.254481 0.207174 0.050192
v 0.260512 0.207174 0.049664
v 0.247250 0.207174 0.047980
v 0.250015 0.207174 0.049270
v 0.243673 0.207174 0.045152
v -0.273367 0.210349 0.034344
v -0.400942 0.209458 0.045473
v -0.400537 0.209928 0.110895
v -0.268812 0.210117 0.221103
v -0.266376 0.210349 0.219436
v 0.266376 0.210349 0.219436
v 0.271800 0.210349 0.040193
v 0.269406 0.210349 0.044074
v -0.270211 0.209126 0.223388
v 0.270211 0.209126 0.223388
v -0.350310 0.209871 0.003765
v -0.273234 0.210349 0.029786
v -0.271800 0.210349 0.025457
v -0.269406 0.210349 0.044074
v -0.271800 0.210349 0.040193
v 0.273367 0.210349 0.034344
v -0.265999 0.210349 0.018544
v -0.240200 0.210349 0.025457
v 0.238633 0.210349 0.034344
v -0.244865 0.210349 0.019555
v -0.267249 0.210349 0.046231
v -0.264750 0.210349 0.047980
v 0.267249 0.210349 0.046231
v 0.264750 0.210349 0.047980
v 0.260512 0.210349 0.049664
v -0.269406 0.210349 0.021576
v 0.350306 0.209874 0.003770
v 0.271800 0.210349 0.025457
v 0.273234 0.210349 0.029786
v -0.260512 0.210349 0.015986
v -0.254481 0.210349 0.015458
v 0.260512 0.210349 0.015986
v 0.265999 0.210349 0.018544
v 0.400939 0.209460 0.045474
v -0.250015 0.210349 0.016380
v -0.240200 0.210349 0.040193
v 0.254481 0.210349 0.050192
v -0.243673 0.210349 0.045152
v -0.254481 0.210349 0.050192
v 0.269406 0.210349 0.021576
v 0.268812 0.210117 0.221103
v 0.400534 0.209929 0.110894
v -0.260512 0.210349 0.049664
v 0.238766 0.210349 0.029786
v 0.240200 0.210349 0.025457
v 0.244865 0.210349 0.019555
v 0.250015 0.210349 0.016380
v 0.254481 0.210349 0.015458
v -0.238766 0.210349 0.029786
v -0.238633 0.210349 0.034344
v 0.250015 0.210349 0.049270
v 0.247250 0.210349 0.047980
v 0.243673 0.210349 0.045152
v 0.240200 0.210349 0.040193
v -0.247250 0.210349 0.047980
v -0.250015 0.210349 0.049270
v 0.402748 0.205724 0.114068
v 0.402416 0.207168 0.113813
v 0.401675 0.208607 0.113097
v 0.276877 0.204174 0.219826
v 0.276877 0.180349 0.219826
v 0.402856 0.180349 0.114117
v 0.274836 0.204174 0.217393
v 0.274836 0.180349 0.217393
v 0.401026 0.180349 0.111232
v 0.403737 0.205923 0.045277
v 0.403233 0.208220 0.046540
v 0.403087 0.208396 0.110548
v 0.404201 0.206112 0.110704
v 0.401026 0.180349 0.045870
v 0.403634 0.180349 0.044654
v 0.404413 0.180349 0.110779
v 0.352840 0.205981 0.001241
v 0.352519 0.207612 0.001719
v 0.350758 0.208453 0.001722
v 0.350410 0.180349 0.003346
v 0.352921 0.180349 0.001085
v -0.350758 0.208445 0.001716
v -0.350410 0.180349 0.003346
v -0.402416 0.207168 0.113813
v -0.402748 0.205724 0.114068
v -0.401675 0.208607 0.113097
v -0.276877 0.204174 0.219826
v -0.276877 0.180349 0.219826
v -0.402856 0.180349 0.114117
v -0.274836 0.204174 0.217393
v -0.274836 0.180349 0.217393
v -0.401026 0.180349 0.111232
v -0.403737 0.205922 0.045277
v -0.403233 0.208220 0.046540
v -0.404201 0.206112 0.110704
v -0.403087 0.208396 0.110548
v -0.401026 0.180349 0.045870
v -0.403634 0.180349 0.044654
v -0.404413 0.180349 0.110779
v -0.352519 0.207612 0.001719
v -0.352840 0.205981 0.001241
v -0.352921 0.180349 0.001085
v 0.248250 -0.251025 0.035311
v 0.248581 -0.254423 0.033852
v 0.248717 -0.276707 0.034529
v 0.247873 -0.285475 0.035003
v 0.248559 -0.278086 0.033384
v 0.248348 -0.251025 0.030040
v 0.248848 -0.254251 0.030815
v 0.248164 -0.285475 0.029973
v 0.248657 -0.278181 0.031260
v 0.249402 -0.276602 0.029869
v 0.251030 -0.251025 0.026217
v 0.251174 -0.285475 0.025933
v 0.254897 -0.251025 0.024761
v 0.255267 -0.285475 0.024443
v 0.260071 -0.251025 0.025773
v 0.260169 -0.285475 0.025603
v 0.263652 -0.251025 0.030040
v 0.263836 -0.285475 0.029973
v 0.263750 -0.251025 0.035311
v 0.264127 -0.285475 0.035003
v 0.262963 -0.251025 0.037700
v 0.262963 -0.285475 0.037700
v 0.260071 -0.251025 0.039877
v 0.260169 -0.285475 0.040047
v 0.254897 -0.251025 0.040889
v 0.255267 -0.285475 0.041207
v 0.250698 -0.251025 0.039144
v 0.250640 -0.285475 0.039213
v 0.247873 -0.152275 0.035003
v 0.248581 -0.154218 0.033849
v 0.248759 -0.176653 0.034463
v 0.248250 -0.203725 0.035311
v 0.248490 -0.177970 0.033259
v 0.248164 -0.152275 0.029973
v 0.248848 -0.154050 0.030814
v 0.248348 -0.203725 0.030040
v 0.248575 -0.178059 0.031382
v 0.249382 -0.176604 0.029959
v 0.251174 -0.152275 0.025933
v 0.251030 -0.203725 0.026217
v 0.255267 -0.152275 0.024443
v 0.254897 -0.203725 0.024761
v 0.260169 -0.152275 0.025603
v 0.260071 -0.203725 0.025773
v 0.263836 -0.152275 0.029973
v 0.263652 -0.203725 0.030040
v 0.264127 -0.152275 0.035003
v 0.263750 -0.203725 0.035311
v 0.262963 -0.152275 0.037700
v 0.262963 -0.203725 0.037700
v 0.260169 -0.152275 0.040047
v 0.260071 -0.203725 0.039877
v 0.255267 -0.152275 0.041207
v 0.254897 -0.203725 0.040889
v 0.250640 -0.152275 0.039213
v 0.250698 -0.203725 0.039144
v -0.260007 -0.204025 0.039821
v -0.259389 -0.253970 0.040076
v -0.254870 -0.204025 0.040963
v -0.256633 -0.254848 0.039860
v -0.256512 -0.276707 0.040287
v -0.254843 -0.285475 0.041159
v -0.256882 -0.277903 0.039003
v -0.259798 -0.285475 0.040249
v -0.259078 -0.278222 0.040140
v -0.261264 -0.276609 0.039497
v -0.262707 -0.204025 0.038047
v -0.262707 -0.285475 0.038047
v -0.263937 -0.204025 0.034643
v -0.264128 -0.285475 0.034687
v -0.263613 -0.204025 0.029734
v -0.263796 -0.285475 0.029660
v -0.260423 -0.204025 0.025988
v -0.260530 -0.285475 0.025824
v -0.254994 -0.204025 0.024745
v -0.254970 -0.285475 0.024550
v -0.251013 -0.204025 0.026230
v -0.250893 -0.285475 0.026071
v -0.248499 -0.204025 0.029656
v -0.248318 -0.285475 0.029579
v -0.248217 -0.204025 0.035219
v -0.248029 -0.285475 0.035276
v -0.250953 -0.204025 0.039308
v -0.250831 -0.285475 0.039464
v -0.259524 -0.131367 0.039866
v -0.259833 -0.133082 0.040232
v -0.255055 -0.130756 0.040754
v -0.256564 -0.133616 0.039875
v -0.256635 -0.155806 0.039859
v -0.259394 -0.156688 0.040046
v -0.262707 -0.130625 0.038047
v -0.263937 -0.130625 0.034643
v -0.263613 -0.130625 0.029734
v -0.260423 -0.130625 0.025988
v -0.254994 -0.130625 0.024745
v -0.251013 -0.130625 0.026230
v -0.248499 -0.130625 0.029656
v -0.248217 -0.130625 0.035219
v -0.250953 -0.130625 0.039308
v -0.263796 -0.120175 0.029660
v -0.254843 -0.120175 0.041159
v -0.248318 -0.120175 0.029579
v -0.250893 -0.120175 0.026071
v -0.254970 -0.120175 0.024550
v -0.260530 -0.120175 0.025824
v -0.248029 -0.120175 0.035276
v -0.250831 -0.120175 0.039464
v -0.259798 -0.120175 0.040249
v -0.264128 -0.120175 0.034687
v -0.262707 -0.120175 0.038047
v -0.259955 -0.133500 0.037155
v -0.259955 -0.155850 0.037155
v -0.259955 -0.254800 0.037155
v -0.260264 -0.276610 0.037030
v -0.259543 -0.277871 0.037323
v 0.266376 -0.207175 0.219436
v 0.268969 -0.206116 0.221290
v 0.400246 -0.206289 0.110900
v -0.400248 -0.206287 0.110944
v -0.268966 -0.206135 0.221288
v -0.266376 -0.207175 0.219436
v 0.260512 -0.207175 0.015986
v 0.350122 -0.206316 0.004113
v -0.400377 -0.206281 0.046145
v 0.271070 -0.205988 0.224206
v -0.271070 -0.205988 0.224206
v -0.265999 -0.207175 0.018544
v -0.260512 -0.207175 0.015986
v -0.350099 -0.206331 0.004126
v 0.265999 -0.207175 0.018544
v 0.269406 -0.207175 0.021576
v 0.273234 -0.207175 0.029786
v 0.400374 -0.206286 0.046147
v 0.273367 -0.207175 0.034344
v 0.243673 -0.207175 0.045152
v 0.240200 -0.207175 0.040193
v 0.271800 -0.207175 0.025457
v 0.271800 -0.207175 0.040193
v 0.269406 -0.207175 0.044074
v 0.240200 -0.207175 0.025457
v 0.238766 -0.207175 0.029786
v 0.267249 -0.207175 0.046231
v 0.264750 -0.207175 0.047980
v 0.260512 -0.207175 0.049664
v -0.273367 -0.207175 0.034344
v -0.273234 -0.207175 0.029786
v -0.271800 -0.207175 0.025457
v 0.244865 -0.207175 0.019555
v -0.271800 -0.207175 0.040193
v -0.269406 -0.207175 0.021576
v 0.238633 -0.207175 0.034344
v -0.254481 -0.207175 0.015458
v 0.250015 -0.207175 0.016380
v 0.254481 -0.207175 0.015458
v 0.254481 -0.207175 0.050192
v -0.264750 -0.207175 0.047980
v -0.267249 -0.207175 0.046231
v 0.250015 -0.207175 0.049270
v 0.247250 -0.207175 0.047980
v -0.244865 -0.207175 0.019555
v -0.269406 -0.207175 0.044074
v -0.240200 -0.207175 0.025457
v -0.238766 -0.207175 0.029786
v -0.238633 -0.207175 0.034344
v -0.240200 -0.207175 0.040193
v -0.250015 -0.207175 0.016380
v -0.254481 -0.207175 0.050192
v -0.260512 -0.207175 0.049664
v -0.247250 -0.207175 0.047980
v -0.250015 -0.207175 0.049270
v -0.243673 -0.207175 0.045152
v 0.273367 -0.210350 0.034344
v 0.400933 -0.209467 0.045476
v 0.400530 -0.209930 0.110890
v 0.268812 -0.210118 0.221103
v 0.266376 -0.210350 0.219436
v -0.266376 -0.210350 0.219436
v -0.271800 -0.210350 0.040193
v -0.269406 -0.210350 0.044074
v 0.270211 -0.209127 0.223388
v -0.270211 -0.209127 0.223388
v 0.350307 -0.209874 0.003772
v 0.273234 -0.210350 0.029786
v 0.271800 -0.210350 0.025457
v 0.269406 -0.210350 0.044074
v 0.271800 -0.210350 0.040193
v -0.273367 -0.210350 0.034344
v 0.265999 -0.210350 0.018544
v 0.240200 -0.210350 0.025457
v -0.238633 -0.210350 0.034344
v 0.244865 -0.210350 0.019555
v 0.267249 -0.210350 0.046231
v 0.264750 -0.210350 0.047980
v -0.267249 -0.210350 0.046231
v -0.264750 -0.210350 0.047980
v -0.260512 -0.210350 0.049664
v 0.269406 -0.210350 0.021576
v -0.350304 -0.209878 0.003776
v -0.271800 -0.210350 0.025457
v -0.273234 -0.210350 0.029786
v 0.260512 -0.210350 0.015986
v 0.254481 -0.210350 0.015458
v -0.260512 -0.210350 0.015986
v -0.265999 -0.210350 0.018544
v -0.400940 -0.209463 0.045474
v 0.250015 -0.210350 0.016380
v 0.240200 -0.210350 0.040193
v -0.254481 -0.210350 0.050192
v 0.243673 -0.210350 0.045152
v 0.254481 -0.210350 0.050192
v -0.269406 -0.210350 0.021576
v -0.268812 -0.210118 0.221103
v -0.400537 -0.209929 0.110895
v 0.260512 -0.210350 0.049664
v -0.238766 -0.210350 0.029786
v -0.240200 -0.210350 0.025457
v -0.244865 -0.210350 0.019555
v -0.250015 -0.210350 0.016380
v -0.254481 -0.210350 0.015458
v 0.238766 -0.210350 0.029786
v 0.238633 -0.210350 0.034344
v -0.250015 -0.210350 0.049270
v -0.247250 -0.210350 0.047980
v -0.243673 -0.210350 0.045152
v -0.240200 -0.210350 0.040193
v 0.247250 -0.210350 0.047980
v 0.250015 -0.210350 0.049270
v -0.402748 -0.205724 0.114068
v -0.402411 -0.207189 0.113809
v -0.401675 -0.208608 0.113097
v -0.276877 -0.204175 0.219826
v -0.276877 -0.180350 0.219826
v -0.402856 -0.180350 0.114117
v -0.274836 -0.204175 0.217393
v -0.274836 -0.180350 0.217393
v -0.401026 -0.180350 0.111232
v -0.403735 -0.205928 0.045277
v -0.403233 -0.208221 0.046540
v -0.403087 -0.208397 0.110548
v -0.404201 -0.206113 0.110704
v -0.401026 -0.180350 0.045870
v -0.403634 -0.180350 0.044654
v -0.404413 -0.180350 0.110779
v -0.352839 -0.205990 0.001243
v -0.352519 -0.207613 0.001719
v -0.350758 -0.208446 0.001716
v -0.350410 -0.180350 0.003346
v -0.352921 -0.180350 0.001085
v 0.350758 -0.208454 0.001722
v 0.350410 -0.180350 0.003346
v 0.402748 -0.205724 0.114068
v 0.402411 -0.207189 0.113809
v 0.401675 -0.208608 0.113097
v 0.276877 -0.204175 0.219826
v 0.276877 -0.180350 0.219826
v 0.402856 -0.180350 0.114117
v 0.274836 -0.204175 0.217393
v 0.274836 -0.180350 0.217393
v 0.401026 -0.180350 0.111232
v 0.403734 -0.205933 0.045278
v 0.403233 -0.208221 0.046540
v 0.404201 -0.206113 0.110704
v 0.403087 -0.208397 0.110548
v 0.401026 -0.180350 0.045870
v 0.403634 -0.180350 0.044654
v 0.404413 -0.180350 0.110779
v 0.352519 -0.207613 0.001719
v 0.352839 -0.205990 0.001243
v 0.352921 -0.180350 0.001085
f 1 2 3
f 6 7 4
f 8 9 5
f 5 9 1
f 11 12 10
f 10 12 6
f 10 6 3
f 3 6 4
f 3 4 1
f 1 4 5
f 13 14 15
f 17 18 24
f 19 20 16
f 16 20 13
f 22 23 21
f 21 23 17
f 16 13 24
f 24 13 15
f 24 15 17
f 17 15 21
f 7 6 22
f 22 6 23
f 14 13 8
f 8 13 9
f 2 1 19
f 19 1 20
f 18 17 11
f 11 17 12
f 1 9 20
f 20 9 13
f 6 12 23
f 23 12 17
f 2 19 3
f 3 19 16
f 10 24 11
f 11 24 18
f 10 3 16
f 10 16 24
f 24 16 19
f 24 19 18
f 25 26 18
f 18 26 24
f 27 28 16
f 16 28 19
f 28 25 19
f 19 25 18
f 24 26 16
f 16 26 27
f 25 28 26
f 26 28 27
f 7 22 4
f 4 22 21
f 5 15 8
f 8 15 14
f 5 4 21
f 5 21 15
f 15 21 22
f 15 22 14
f 21 29 22
f 22 29 30
f 14 31 15
f 15 31 32
f 30 31 22
f 22 31 14
f 15 32 21
f 21 32 29
f 31 30 32
f 32 30 29
f 36 35 37
f 34 33 38
f 34 38 39
f 40 41 42
f 39 38 42
f 36 37 41
f 36 41 40
f 42 38 40
f 40 38 43
f 40 43 44
f 44 43 45
f 44 45 46
f 46 45 47
f 46 47 48
f 48 47 49
f 48 49 50
f 50 49 51
f 50 51 52
f 52 51 53
f 52 53 54
f 54 53 55
f 54 55 56
f 56 55 57
f 56 57 58
f 58 57 59
f 58 59 60
f 60 59 33
f 60 33 36
f 36 33 34
f 36 34 35
f 64 63 65
f 62 61 66
f 62 66 67
f 68 69 70
f 67 66 70
f 64 65 68
f 68 65 69
f 70 66 68
f 68 66 71
f 68 71 72
f 72 71 73
f 72 73 74
f 74 73 75
f 74 75 76
f 76 75 77
f 76 77 78
f 78 77 79
f 78 79 80
f 80 79 81
f 80 81 82
f 82 81 83
f 82 83 84
f 84 83 85
f 84 85 86
f 86 85 87
f 86 87 88
f 88 87 61
f 88 61 64
f 64 61 62
f 64 62 63
f 61 81 79
f 85 83 61
f 85 61 87
f 77 75 61
f 83 81 61
f 79 77 61
f 61 75 73
f 61 73 66
f 66 73 71
f 80 82 84
f 45 74 76
f 45 76 47
f 47 76 78
f 47 78 49
f 49 78 80
f 49 80 51
f 51 80 82
f 51 82 53
f 53 82 84
f 53 84 55
f 55 84 86
f 55 86 57
f 57 86 88
f 57 88 59
f 59 88 64
f 59 64 33
f 33 64 68
f 33 68 38
f 38 68 72
f 38 72 43
f 43 72 74
f 43 74 45
f 51 53 55
f 36 40 46
f 46 48 36
f 50 52 36
f 44 46 40
f 58 60 36
f 58 36 56
f 56 36 54
f 54 36 52
f 50 36 48
f 63 62 67
f 65 63 69
f 67 70 63
f 69 63 70
f 42 41 37
f 34 39 35
f 35 39 42
f 35 42 37
f 89 90 91
f 91 90 92
f 94 93 95
f 96 97 94
f 96 94 95
f 97 96 98
f 98 90 89
f 98 89 97
f 97 89 99
f 97 99 100
f 100 99 101
f 100 101 102
f 102 101 103
f 102 103 104
f 104 103 105
f 104 105 106
f 106 105 107
f 106 107 108
f 108 107 109
f 108 109 110
f 110 109 111
f 110 111 112
f 112 111 113
f 112 113 114
f 114 113 115
f 114 115 116
f 116 115 91
f 116 91 94
f 94 91 92
f 94 92 93
f 117 118 119
f 119 118 120
f 91 121 122
f 91 122 89
f 122 118 117
f 122 117 89
f 89 117 123
f 89 123 99
f 99 123 124
f 99 124 101
f 101 124 125
f 101 125 103
f 103 125 126
f 103 126 105
f 105 126 127
f 105 127 107
f 107 127 128
f 107 128 109
f 109 128 129
f 109 129 111
f 111 129 130
f 111 130 113
f 113 130 131
f 113 131 115
f 115 131 119
f 115 119 91
f 91 119 120
f 91 120 121
f 133 134 135
f 133 136 137
f 138 133 139
f 134 133 138
f 136 133 135
f 137 132 133
f 133 132 140
f 140 132 141
f 140 141 142
f 125 132 137
f 125 137 126
f 126 137 136
f 126 136 127
f 127 136 135
f 127 135 128
f 128 135 134
f 128 134 129
f 129 134 138
f 129 138 130
f 130 138 139
f 130 139 131
f 131 139 133
f 131 133 119
f 119 133 140
f 119 140 117
f 117 140 142
f 117 142 123
f 123 142 141
f 123 141 124
f 124 141 132
f 124 132 125
f 117 123 124
f 89 99 101
f 112 114 94
f 97 104 94
f 94 104 106
f 94 108 110
f 102 104 100
f 100 104 97
f 114 116 94
f 112 94 110
f 106 108 94
f 118 143 117
f 120 117 119
f 120 118 117
f 144 143 122
f 122 143 118
f 120 143 121
f 121 143 144
f 144 122 121
f 120 119 143
f 119 117 143
f 146 145 98
f 98 145 90
f 146 98 147
f 147 98 96
f 92 90 145
f 96 95 93
f 92 145 93
f 93 145 146
f 93 146 147
f 96 93 147
f 148 149 150
f 151 152 153
f 151 153 156
f 148 153 157
f 157 153 158
f 159 160 161
f 154 162 155
f 155 162 163
f 155 164 165
f 165 164 166
f 150 165 148
f 148 165 166
f 167 168 153
f 163 169 155
f 155 169 164
f 166 170 148
f 148 170 171
f 172 161 173
f 171 174 148
f 148 174 175
f 148 175 176
f 177 178 161
f 161 178 179
f 172 180 161
f 161 156 177
f 177 156 153
f 177 153 181
f 179 182 161
f 161 182 159
f 183 173 184
f 184 173 161
f 184 161 160
f 180 185 161
f 161 185 186
f 161 186 155
f 155 186 154
f 148 176 187
f 183 184 168
f 188 189 153
f 187 190 148
f 148 190 191
f 148 191 153
f 153 191 167
f 189 193 153
f 153 193 181
f 192 194 168
f 168 194 195
f 195 196 168
f 168 196 197
f 168 184 198
f 168 198 192
f 199 200 153
f 153 200 188
f 201 202 153
f 153 202 199
f 168 197 203
f 168 203 153
f 153 203 201
f 206 207 205
f 205 207 208
f 209 210 211
f 212 213 208
f 208 213 209
f 205 204 214
f 214 204 215
f 214 215 216
f 217 218 205
f 205 218 204
f 209 219 210
f 221 222 223
f 217 205 224
f 224 205 208
f 224 208 225
f 211 226 209
f 209 226 227
f 209 227 228
f 214 216 229
f 214 229 220
f 230 231 232
f 220 233 214
f 214 233 234
f 230 235 236
f 230 232 237
f 234 238 222
f 222 238 223
f 240 239 241
f 236 243 230
f 230 243 231
f 244 245 209
f 209 245 237
f 209 237 219
f 219 237 232
f 242 246 208
f 208 246 225
f 234 222 247
f 234 247 214
f 214 247 248
f 248 249 214
f 249 250 214
f 214 250 251
f 214 251 230
f 230 251 235
f 221 252 240
f 240 252 253
f 240 253 239
f 221 240 254
f 221 254 255
f 255 256 221
f 221 256 257
f 221 257 222
f 240 241 258
f 240 258 208
f 208 258 259
f 208 259 242
f 208 209 228
f 208 228 240
f 213 212 158
f 158 212 157
f 213 158 209
f 209 158 153
f 209 153 244
f 244 153 152
f 260 151 261
f 151 245 262
f 151 262 261
f 152 158 213
f 152 213 244
f 213 245 244
f 213 262 245
f 158 262 213
f 158 261 262
f 158 260 261
f 263 264 265
f 265 260 263
f 263 260 158
f 266 152 151
f 266 151 267
f 267 151 268
f 264 267 265
f 265 267 268
f 263 158 266
f 266 158 152
f 264 263 267
f 267 263 266
f 268 151 265
f 265 151 260
f 269 156 270
f 270 156 237
f 245 151 271
f 271 151 272
f 245 271 270
f 237 245 270
f 270 271 269
f 269 271 272
f 273 156 274
f 274 156 269
f 272 275 269
f 269 275 274
f 273 268 156
f 156 268 151
f 275 268 274
f 274 268 273
f 272 151 275
f 275 151 268
f 276 161 277
f 277 161 278
f 278 161 230
f 230 237 278
f 278 237 277
f 277 237 276
f 276 237 156
f 276 156 269
f 279 161 280
f 280 161 276
f 269 274 276
f 276 274 280
f 279 273 161
f 161 273 156
f 274 273 280
f 280 273 279
f 161 23 278
f 214 230 281
f 281 230 278
f 23 17 278
f 278 17 281
f 22 18 23
f 23 18 17
f 155 282 161
f 161 282 279
f 279 282 22
f 22 282 18
f 23 161 22
f 22 161 279
f 195 222 196
f 196 222 257
f 196 257 197
f 197 257 256
f 197 256 203
f 203 256 255
f 203 255 201
f 201 255 254
f 201 254 202
f 202 254 240
f 202 240 199
f 199 240 228
f 199 228 200
f 200 228 227
f 200 227 188
f 188 227 226
f 188 226 189
f 189 226 211
f 189 211 193
f 193 211 210
f 193 210 181
f 181 210 219
f 181 219 177
f 177 219 232
f 177 232 178
f 178 232 231
f 178 231 179
f 179 231 243
f 179 243 182
f 182 243 236
f 182 236 159
f 159 236 235
f 159 235 160
f 160 235 251
f 160 251 184
f 184 251 250
f 184 250 198
f 198 250 249
f 198 249 192
f 192 249 248
f 192 248 194
f 194 248 247
f 194 247 195
f 195 247 222
f 157 212 148
f 148 212 208
f 148 208 149
f 149 208 207
f 283 150 284
f 150 283 285
f 150 285 206
f 207 212 149
f 149 212 157
f 284 157 283
f 212 285 157
f 157 285 283
f 207 206 212
f 212 206 285
f 286 157 284
f 286 284 287
f 287 284 288
f 289 290 291
f 291 150 289
f 289 150 149
f 290 287 291
f 291 287 288
f 157 286 149
f 149 286 289
f 286 287 289
f 289 287 290
f 150 291 284
f 284 291 288
f 205 165 293
f 293 165 292
f 294 150 295
f 295 150 206
f 206 205 295
f 295 205 293
f 295 293 292
f 295 292 294
f 165 296 292
f 292 296 297
f 298 294 297
f 297 294 292
f 291 296 150
f 150 296 165
f 291 298 296
f 296 298 297
f 150 294 291
f 291 294 298
f 214 155 281
f 281 155 299
f 299 155 300
f 292 165 300
f 300 165 205
f 300 205 299
f 299 205 281
f 281 205 214
f 155 282 300
f 300 282 301
f 297 292 301
f 301 292 300
f 296 282 165
f 165 282 155
f 296 297 282
f 282 297 301
f 17 155 281
f 155 17 282
f 282 17 18
f 183 253 252
f 183 252 173
f 173 252 221
f 173 221 172
f 172 221 223
f 172 223 180
f 180 223 238
f 180 238 185
f 185 238 234
f 185 234 186
f 186 234 233
f 186 233 154
f 154 233 220
f 154 220 162
f 162 220 229
f 162 229 163
f 163 229 216
f 163 216 169
f 169 216 215
f 169 215 164
f 164 215 204
f 164 204 166
f 166 204 218
f 166 218 170
f 170 218 217
f 170 217 171
f 171 217 224
f 171 224 174
f 174 224 225
f 174 225 175
f 175 225 246
f 175 246 176
f 176 246 242
f 176 242 187
f 187 242 259
f 187 259 190
f 190 259 258
f 190 258 191
f 191 258 241
f 191 241 167
f 167 241 239
f 167 239 168
f 168 239 253
f 168 253 183
f 305 304 306
f 303 302 307
f 303 307 308
f 309 310 311
f 308 307 311
f 305 306 310
f 305 310 309
f 311 307 309
f 309 307 312
f 309 312 313
f 313 312 314
f 313 314 315
f 315 314 316
f 315 316 317
f 317 316 318
f 317 318 319
f 319 318 320
f 319 320 321
f 321 320 322
f 321 322 323
f 323 322 324
f 323 324 325
f 325 324 326
f 325 326 327
f 327 326 328
f 327 328 329
f 329 328 302
f 329 302 305
f 305 302 303
f 305 303 304
f 333 332 334
f 331 330 335
f 331 335 336
f 337 338 339
f 336 335 339
f 333 334 337
f 337 334 338
f 339 335 337
f 337 335 340
f 337 340 341
f 341 340 342
f 341 342 343
f 343 342 344
f 343 344 345
f 345 344 346
f 345 346 347
f 347 346 348
f 347 348 349
f 349 348 350
f 349 350 351
f 351 350 352
f 351 352 353
f 353 352 354
f 353 354 355
f 355 354 356
f 355 356 357
f 357 356 330
f 357 330 333
f 333 330 331
f 333 331 332
f 330 350 348
f 354 352 330
f 354 330 356
f 346 344 330
f 352 350 330
f 348 346 330
f 330 344 342
f 330 342 335
f 335 342 340
f 349 351 353
f 314 343 345
f 314 345 316
f 316 345 347
f 316 347 318
f 318 347 349
f 318 349 320
f 320 349 351
f 320 351 322
f 322 351 353
f 322 353 324
f 324 353 355
f 324 355 326
f 326 355 357
f 326 357 328
f 328 357 333
f 328 333 302
f 302 333 337
f 302 337 307
f 307 337 341
f 307 341 312
f 312 341 343
f 312 343 314
f 320 322 324
f 305 309 315
f 315 317 305
f 319 321 305
f 313 315 309
f 327 329 305
f 327 305 325
f 325 305 323
f 323 305 321
f 319 305 317
f 332 331 336
f 334 332 338
f 336 339 332
f 338 332 339
f 311 310 306
f 303 308 304
f 304 308 311
f 304 311 306
f 358 359 360
f 360 359 361
f 363 362 364
f 366 365 363
f 366 363 364
f 365 366 367
f 367 359 358
f 367 358 365
f 365 358 368
f 365 368 369
f 369 368 370
f 369 370 371
f 371 370 372
f 371 372 373
f 373 372 374
f 373 374 375
f 375 374 376
f 375 376 377
f 377 376 378
f 377 378 379
f 379 378 380
f 379 380 381
f 381 380 382
f 381 382 383
f 383 382 384
f 383 384 385
f 385 384 360
f 385 360 363
f 363 360 361
f 363 361 362
f 386 387 388
f 388 387 389
f 360 390 391
f 360 391 358
f 391 387 386
f 391 386 358
f 358 386 392
f 358 392 368
f 368 392 393
f 368 393 370
f 370 393 394
f 370 394 372
f 372 394 395
f 372 395 374
f 374 395 396
f 374 396 376
f 376 396 397
f 376 397 378
f 378 397 398
f 378 398 380
f 380 398 399
f 380 399 382
f 382 399 400
f 382 400 384
f 384 400 388
f 384 388 360
f 360 388 389
f 360 389 390
f 402 403 404
f 402 405 406
f 407 402 408
f 403 402 407
f 405 402 404
f 406 401 402
f 402 401 409
f 409 401 410
f 409 410 411
f 394 401 406
f 394 406 395
f 395 406 405
f 395 405 396
f 396 405 404
f 396 404 397
f 397 404 403
f 397 403 398
f 398 403 407
f 398 407 399
f 399 407 408
f 399 408 400
f 400 408 402
f 400 402 388
f 388 402 409
f 388 409 386
f 386 409 411
f 386 411 392
f 392 411 410
f 392 410 393
f 393 410 401
f 393 401 394
f 386 392 393
f 358 368 370
f 381 383 363
f 365 373 363
f 363 373 375
f 363 377 379
f 371 373 369
f 369 373 365
f 383 385 363
f 381 363 379
f 375 377 363
f 387 412 386
f 389 386 388
f 389 387 386
f 413 412 391
f 391 412 387
f 389 412 390
f 390 412 413
f 413 391 390
f 389 388 412
f 388 386 412
f 415 414 367
f 367 414 359
f 415 367 416
f 416 367 366
f 361 359 414
f 366 364 362
f 361 414 362
f 362 414 415
f 362 415 416
f 366 362 416
f 417 418 419
f 420 421 422
f 420 422 425
f 417 422 426
f 426 422 427
f 428 429 430
f 423 431 424
f 424 431 432
f 424 433 434
f 434 433 435
f 419 434 417
f 417 434 435
f 436 437 422
f 432 438 424
f 424 438 433
f 435 439 417
f 417 439 440
f 441 430 442
f 440 443 417
f 417 443 444
f 417 444 445
f 446 447 430
f 430 447 448
f 441 449 430
f 430 425 446
f 446 425 422
f 446 422 450
f 448 451 430
f 430 451 428
f 452 442 453
f 453 442 430
f 453 430 429
f 449 454 430
f 430 454 455
f 430 455 424
f 424 455 423
f 417 445 456
f 452 453 437
f 457 458 422
f 456 459 417
f 417 459 460
f 417 460 422
f 422 460 436
f 458 462 422
f 422 462 450
f 461 463 437
f 437 463 464
f 464 465 437
f 437 465 466
f 437 453 467
f 437 467 461
f 468 469 422
f 422 469 457
f 470 471 422
f 422 471 468
f 437 466 472
f 437 472 422
f 422 472 470
f 475 476 474
f 474 476 477
f 478 479 480
f 481 482 477
f 477 482 478
f 474 473 483
f 483 473 484
f 483 484 485
f 486 487 474
f 474 487 473
f 478 488 479
f 490 491 492
f 486 474 493
f 493 474 477
f 493 477 494
f 480 495 478
f 478 495 496
f 478 496 497
f 483 485 498
f 483 498 489
f 499 500 501
f 489 502 483
f 483 502 503
f 499 504 505
f 499 501 506
f 503 507 491
f 491 507 492
f 509 508 510
f 505 512 499
f 499 512 500
f 513 514 478
f 478 514 506
f 478 506 488
f 488 506 501
f 511 515 477
f 477 515 494
f 503 491 516
f 503 516 483
f 483 516 517
f 517 518 483
f 518 519 483
f 483 519 520
f 483 520 499
f 499 520 504
f 490 521 509
f 509 521 522
f 509 522 508
f 490 509 523
f 490 523 524
f 524 525 490
f 490 525 526
f 490 526 491
f 509 510 527
f 509 527 477
f 477 527 528
f 477 528 511
f 477 478 497
f 477 497 509
f 482 481 427
f 427 481 426
f 482 427 478
f 478 427 422
f 478 422 513
f 513 422 421
f 529 420 530
f 420 514 531
f 420 531 530
f 421 427 482
f 421 482 513
f 482 514 513
f 482 531 514
f 427 531 482
f 427 530 531
f 427 529 530
f 532 533 534
f 534 529 532
f 532 529 427
f 535 421 420
f 535 420 536
f 536 420 537
f 533 536 534
f 534 536 537
f 532 427 535
f 535 427 421
f 533 532 536
f 536 532 535
f 537 420 534
f 534 420 529
f 538 425 539
f 539 425 506
f 514 420 540
f 540 420 541
f 514 540 539
f 506 514 539
f 539 540 538
f 538 540 541
f 542 425 543
f 543 425 538
f 541 544 538
f 538 544 543
f 542 537 425
f 425 537 420
f 544 537 543
f 543 537 542
f 541 420 544
f 544 420 537
f 545 430 546
f 546 430 547
f 547 430 499
f 499 506 547
f 547 506 546
f 546 506 545
f 545 506 425
f 545 425 538
f 548 430 549
f 549 430 545
f 538 543 545
f 545 543 549
f 548 542 430
f 430 542 425
f 543 542 549
f 549 542 548
f 430 20 547
f 483 499 550
f 550 499 547
f 20 13 547
f 547 13 550
f 19 14 20
f 20 14 13
f 424 551 430
f 430 551 548
f 548 551 19
f 19 551 14
f 20 430 19
f 19 430 548
f 464 491 465
f 465 491 526
f 465 526 466
f 466 526 525
f 466 525 472
f 472 525 524
f 472 524 470
f 470 524 523
f 470 523 471
f 471 523 509
f 471 509 468
f 468 509 497
f 468 497 469
f 469 497 496
f 469 496 457
f 457 496 495
f 457 495 458
f 458 495 480
f 458 480 462
f 462 480 479
f 462 479 450
f 450 479 488
f 450 488 446
f 446 488 501
f 446 501 447
f 447 501 500
f 447 500 448
f 448 500 512
f 448 512 451
f 451 512 505
f 451 505 428
f 428 505 504
f 428 504 429
f 429 504 520
f 429 520 453
f 453 520 519
f 453 519 467
f 467 519 518
f 467 518 461
f 461 518 517
f 461 517 463
f 463 517 516
f 463 516 464
f 464 516 491
f 426 481 417
f 417 481 477
f 417 477 418
f 418 477 476
f 553 419 552
f 419 553 554
f 419 554 475
f 476 481 418
f 418 481 426
f 552 426 553
f 481 554 426
f 426 554 553
f 476 475 481
f 481 475 554
f 555 426 552
f 555 552 556
f 556 552 557
f 558 559 560
f 560 419 558
f 558 419 418
f 559 556 560
f 560 556 557
f 426 555 418
f 418 555 558
f 555 556 558
f 558 556 559
f 419 560 552
f 552 560 557
f 474 434 562
f 562 434 561
f 563 419 564
f 564 419 475
f 475 474 564
f 564 474 562
f 564 562 561
f 564 561 563
f 434 565 561
f 561 565 566
f 567 563 566
f 566 563 561
f 560 565 419
f 419 565 434
f 560 567 565
f 565 567 566
f 419 563 560
f 560 563 567
f 483 424 550
f 550 424 568
f 568 424 569
f 561 434 569
f 569 434 474
f 569 474 568
f 568 474 550
f 550 474 483
f 424 551 569
f 569 551 570
f 566 561 570
f 570 561 569
f 565 551 434
f 434 551 424
f 565 566 551
f 551 566 570
f 13 424 550
f 424 13 551
f 551 13 14
f 452 522 521
f 452 521 442
f 442 521 490
f 442 490 441
f 441 490 492
f 441 492 449
f 449 492 507
f 449 507 454
f 454 507 503
f 454 503 455
f 455 503 502
f 455 502 423
f 423 502 489
f 423 489 431
f 431 489 498
f 431 498 432
f 432 498 485
f 432 485 438
f 438 485 484
f 438 484 433
f 433 484 473
f 433 473 435
f 435 473 487
f 435 487 439
f 439 487 486
f 439 486 440
f 440 486 493
f 440 493 443
f 443 493 494
f 443 494 444
f 444 494 515
f 444 515 445
f 445 515 511
f 445 511 456
f 456 511 528
f 456 528 459
f 459 528 527
f 459 527 460
f 460 527 510
f 460 510 436
f 436 510 508
f 436 508 437
f 437 508 522
f 437 522 452
