# Simplified Clearpath Husky demo mesh. See README.md for source/license.
# from user_rail.dae, grid=0.005m
v -0.545756 0.209495 -0.018500
v -0.545748 0.209500 0.000500
v -0.545765 0.190503 -0.018490
v -0.545765 0.190506 0.000492
v 0.001579 0.190465 -0.018520
v 0.001577 0.190462 0.000521
v 0.001765 0.209493 -0.018493
v 0.001756 0.209499 0.000497
v -0.081034 -0.207000 -0.036045
v -0.076304 -0.207000 -0.019378
v -0.090619 -0.207000 -0.026789
v -0.090466 -0.207000 -0.030114
v -0.086239 -0.207000 -0.030534
v -0.085025 -0.207000 -0.033871
v -0.080547 -0.207000 -0.053621
v -0.088525 -0.207000 -0.034333
v -0.092970 -0.207000 -0.024109
v -0.110547 -0.207000 -0.023621
v -0.110547 -0.207000 -0.019378
v -0.076304 -0.207000 -0.053621
v -0.090388 -0.195000 -0.030038
v -0.088492 -0.195000 -0.034258
v -0.081034 -0.195000 -0.036045
v -0.076304 -0.195000 -0.019378
v -0.086239 -0.195000 -0.030534
v -0.085025 -0.195000 -0.033871
v -0.090619 -0.195000 -0.026789
v -0.076304 -0.195000 -0.053621
v -0.080547 -0.195000 -0.053621
v -0.092970 -0.195000 -0.024109
v -0.110547 -0.195000 -0.023621
v -0.110547 -0.195000 -0.019378
v -0.103275 -0.200000 -0.024000
v -0.100925 -0.202667 -0.024000
v -0.099202 -0.200000 -0.024000
v -0.100925 -0.197333 -0.024000
v -0.080925 -0.200000 -0.045723
v -0.080925 -0.200000 -0.041650
v -0.080925 -0.202667 -0.044000
v -0.080925 -0.197333 -0.044000
v -0.075925 -0.200000 -0.041650
v -0.075925 -0.200000 -0.045723
v -0.075925 -0.202667 -0.044000
v -0.075925 -0.197333 -0.044000
v -0.099202 -0.200000 -0.019000
v -0.100925 -0.197333 -0.019000
v -0.103275 -0.200000 -0.019000
v -0.100925 -0.202667 -0.019000
v -0.355837 -0.207000 -0.024109
v -0.372136 -0.207000 -0.019052
v -0.364643 -0.207000 -0.033944
v -0.360843 -0.207000 -0.034028
v -0.372749 -0.207000 -0.019596
v -0.362818 -0.207000 -0.031144
v -0.359989 -0.207000 -0.029719
v -0.358188 -0.207000 -0.026789
v -0.338261 -0.207000 -0.023621
v -0.356721 -0.207000 -0.030383
v -0.367773 -0.207000 -0.036045
v -0.369368 -0.207000 -0.053715
v -0.372749 -0.207000 -0.053404
v -0.338261 -0.207000 -0.019378
v -0.360932 -0.195000 -0.033998
v -0.359988 -0.195000 -0.029724
v -0.355837 -0.195000 -0.024109
v -0.372136 -0.195000 -0.019052
v -0.358188 -0.195000 -0.026789
v -0.356719 -0.195000 -0.030549
v -0.362818 -0.195000 -0.031144
v -0.372749 -0.195000 -0.019596
v -0.364643 -0.195000 -0.033944
v -0.338261 -0.195000 -0.019378
v -0.338261 -0.195000 -0.023621
v -0.367773 -0.195000 -0.036045
v -0.369368 -0.195000 -0.053715
v -0.372749 -0.195000 -0.053404
v -0.367883 -0.200000 -0.045723
v -0.367883 -0.202667 -0.044000
v -0.367882 -0.200000 -0.041650
v -0.367883 -0.197333 -0.044000
v -0.345683 -0.200000 -0.024000
v -0.350082 -0.200000 -0.024000
v -0.347174 -0.202646 -0.024000
v -0.347174 -0.197354 -0.024000
v -0.348355 -0.197319 -0.024000
v -0.348355 -0.202681 -0.024000
v -0.350082 -0.200000 -0.019000
v -0.345683 -0.200000 -0.019000
v -0.347174 -0.202646 -0.019000
v -0.347174 -0.197354 -0.019000
v -0.348355 -0.202681 -0.019000
v -0.348355 -0.197319 -0.019000
v -0.372883 -0.200000 -0.041650
v -0.372883 -0.197333 -0.044000
v -0.372883 -0.200000 -0.045723
v -0.372883 -0.202667 -0.044000
v 0.001749 -0.209500 -0.018498
v 0.001756 -0.209497 0.000498
v 0.001569 -0.190461 -0.018526
v 0.001578 -0.190464 0.000523
v -0.545756 -0.190505 -0.018501
v -0.545756 -0.190503 0.000497
v -0.545749 -0.209499 -0.018499
v -0.545765 -0.209494 0.000493
v 0.000000 -0.204500 -0.000675
v 0.000000 -0.204667 -0.004767
v -0.544000 -0.204500 -0.000675
v -0.544000 -0.204667 -0.004767
v 0.000000 -0.208667 -0.005000
v -0.544000 -0.208667 -0.005000
v 0.000000 -0.204000 -0.011700
v -0.544000 -0.204000 -0.011700
v 0.000000 -0.205000 -0.015660
v -0.544000 -0.205000 -0.015660
v 0.000000 -0.208000 -0.015000
v -0.544000 -0.208000 -0.015000
v 0.000000 -0.209000 -0.012000
v -0.544000 -0.209000 -0.012000
v 0.000000 -0.203000 -0.019000
v -0.544000 -0.203000 -0.019000
v 0.000000 -0.195000 -0.015660
v -0.544000 -0.195000 -0.015660
v 0.000000 -0.197000 -0.019000
v -0.544000 -0.197000 -0.019000
v -0.000667 -0.190667 -0.012000
v -0.544000 -0.191000 -0.012000
v -0.001000 -0.191000 -0.015000
v -0.544000 -0.192000 -0.015000
v 0.000000 -0.196000 -0.011700
v -0.544000 -0.196000 -0.011700
v 0.000000 -0.195333 -0.004767
v -0.544000 -0.195333 -0.004767
v -0.000800 -0.190800 -0.004800
v -0.544000 -0.191333 -0.005000
v 0.000000 -0.195500 -0.000675
v -0.544000 -0.195500 -0.000675
v 0.000000 -0.200000 -0.009631
v -0.544000 -0.200000 -0.009631
v -0.544000 -0.200000 -0.007107
v 0.000000 -0.200000 -0.007107
v -0.005500 0.190000 -0.000675
v -0.005333 0.190000 -0.004767
v -0.005500 -0.190000 -0.000675
v -0.005333 -0.190000 -0.004767
v -0.000800 0.190800 -0.004800
v -0.006000 0.190000 -0.011700
v -0.006000 -0.190000 -0.011700
v -0.005000 0.190000 -0.015660
v -0.005000 -0.190000 -0.015660
v -0.001000 0.191000 -0.015000
v -0.000667 0.190667 -0.012000
v -0.007000 0.190000 -0.019000
v -0.007000 -0.190000 -0.019000
v -0.015000 0.190000 -0.015660
v -0.015000 -0.190000 -0.015660
v -0.013000 0.190000 -0.019000
v -0.013000 -0.190000 -0.019000
v -0.019621 0.190000 -0.018621
v -0.019621 -0.190000 -0.018621
v -0.019000 0.190000 -0.012000
v -0.019000 -0.190000 -0.012000
v -0.018000 0.190000 -0.015000
v -0.018000 -0.190000 -0.015000
v -0.014000 0.190000 -0.011700
v -0.014000 -0.190000 -0.011700
v -0.014667 0.190000 -0.004767
v -0.014667 -0.190000 -0.004767
v -0.018667 0.190000 -0.005000
v -0.018667 -0.190000 -0.005000
v -0.019621 0.190000 0.000622
v -0.019621 -0.190000 0.000622
v -0.014500 0.190000 -0.000675
v -0.014500 -0.190000 -0.000675
v -0.010000 0.190000 -0.009631
v -0.010000 -0.190000 -0.009631
v -0.010000 -0.190000 -0.007107
v -0.010000 0.190000 -0.007107
v -0.503797 0.190000 0.000265
v -0.510722 0.190000 -0.006676
v -0.503797 -0.190000 0.000265
v -0.510722 -0.190000 -0.006676
v -0.509177 0.190000 0.000000
v -0.509177 -0.190000 0.000000
v -0.502266 -0.190000 0.000332
v -0.502266 0.190000 0.000332
v -0.502177 0.190000 -0.006000
v -0.502177 -0.190000 -0.006000
v -0.504410 0.190000 -0.004000
v -0.504410 -0.190000 -0.004000
v -0.510542 0.190000 -0.009818
v -0.510542 -0.190000 -0.009818
v -0.505352 0.190000 -0.015825
v -0.505352 -0.190000 -0.015825
v -0.504177 0.190000 -0.012000
v -0.504177 -0.190000 -0.012000
v -0.502177 0.190000 -0.012000
v -0.502177 -0.190000 -0.012000
v -0.502266 0.190000 -0.018332
v -0.502266 -0.190000 -0.018332
v -0.502845 -0.190000 -0.018911
v -0.502845 0.190000 -0.018911
v -0.509177 0.190000 -0.019000
v -0.509177 -0.190000 -0.019000
v -0.509327 0.190000 -0.015000
v -0.509327 -0.190000 -0.015000
v -0.515027 0.190000 -0.015000
v -0.515027 -0.190000 -0.015000
v -0.519002 0.190000 -0.015825
v -0.519002 -0.190000 -0.015825
v -0.515177 0.190000 -0.019000
v -0.515177 -0.190000 -0.019000
v -0.521798 0.190000 -0.018621
v -0.521798 -0.190000 -0.018621
v -0.521177 0.190000 -0.012000
v -0.521177 -0.190000 -0.012000
v -0.513928 0.190000 -0.009726
v -0.513928 -0.190000 -0.009726
v -0.513874 0.190000 -0.006638
v -0.513874 -0.190000 -0.006638
v -0.520502 0.190000 -0.004500
v -0.520502 -0.190000 -0.004500
v -0.521195 0.190000 0.000293
v -0.521195 -0.190000 0.000293
v -0.515177 0.190000 0.000000
v -0.515177 -0.190000 0.000000
v -0.355837 0.193000 -0.024109
v -0.372136 0.193000 -0.019052
v -0.364643 0.193000 -0.033944
v -0.360869 0.193000 -0.034080
v -0.372749 0.193000 -0.019596
v -0.362818 0.193000 -0.031144
v -0.359984 0.193000 -0.029727
v -0.358188 0.193000 -0.026789
v -0.338261 0.193000 -0.023621
v -0.356710 0.193000 -0.030540
v -0.367773 0.193000 -0.036045
v -0.369368 0.193000 -0.053715
v -0.372749 0.193000 -0.053404
v -0.338261 0.193000 -0.019378
v -0.360935 0.205000 -0.034006
v -0.359984 0.205000 -0.029730
v -0.355837 0.205000 -0.024109
v -0.372136 0.205000 -0.019052
v -0.358188 0.205000 -0.026789
v -0.362818 0.205000 -0.031144
v -0.372749 0.205000 -0.019596
v -0.364643 0.205000 -0.033944
v -0.356706 0.205000 -0.030371
v -0.338261 0.205000 -0.019378
v -0.338261 0.205000 -0.023621
v -0.367773 0.205000 -0.036045
v -0.369368 0.205000 -0.053715
v -0.372749 0.205000 -0.053404
v -0.367883 0.200000 -0.045723
v -0.367883 0.197333 -0.044000
v -0.367882 0.200000 -0.041650
v -0.367883 0.202667 -0.044000
v -0.345683 0.200000 -0.024000
v -0.350082 0.200000 -0.024000
v -0.347174 0.197354 -0.024000
v -0.347174 0.202646 -0.024000
v -0.348355 0.202681 -0.024000
v -0.348355 0.197319 -0.024000
v -0.350082 0.200000 -0.019000
v -0.345683 0.200000 -0.019000
v -0.347174 0.197354 -0.019000
v -0.347174 0.202646 -0.019000
v -0.348355 0.197319 -0.019000
v -0.348355 0.202681 -0.019000
v -0.372883 0.200000 -0.041650
v -0.372883 0.202667 -0.044000
v -0.372883 0.200000 -0.045723
v -0.372883 0.197333 -0.044000
v -0.092970 0.207000 -0.024109
v -0.076304 0.207000 -0.019378
v -0.085025 0.207000 -0.033871
v -0.086239 0.207000 -0.030534
v -0.090394 0.207000 -0.030044
v -0.088543 0.207000 -0.034343
v -0.090619 0.207000 -0.026789
v -0.110547 0.207000 -0.023621
v -0.081034 0.207000 -0.036045
v -0.080547 0.207000 -0.053621
v -0.076304 0.207000 -0.053621
v -0.110547 0.207000 -0.019378
v -0.088501 0.195000 -0.034237
v -0.090399 0.195000 -0.030048
v -0.092970 0.195000 -0.024109
v -0.076304 0.195000 -0.019378
v -0.086239 0.195000 -0.030534
v -0.090619 0.195000 -0.026789
v -0.085025 0.195000 -0.033871
v -0.110547 0.195000 -0.019378
v -0.110547 0.195000 -0.023621
v -0.081034 0.195000 -0.036045
v -0.080547 0.195000 -0.053621
v -0.076304 0.195000 -0.053621
v -0.080925 0.200000 -0.045723
v -0.080925 0.202667 -0.044000
v -0.080925 0.200000 -0.041650
v -0.080925 0.197333 -0.044000
v -0.103275 0.200000 -0.024000
v -0.099202 0.200000 -0.024000
v -0.100925 0.202667 -0.024000
v -0.100925 0.197333 -0.024000
v -0.099202 0.200000 -0.019000
v -0.103275 0.200000 -0.019000
v -0.100925 0.202667 -0.019000
v -0.100925 0.197333 -0.019000
v -0.075925 0.200000 -0.041650
v -0.075925 0.197333 -0.044000
v -0.075925 0.200000 -0.045723
v -0.075925 0.202667 -0.044000
v -0.544000 0.204500 -0.000675
v -0.544000 0.204667 -0.004767
v 0.000000 0.204500 -0.000675
v 0.000000 0.204667 -0.004767
v -0.544000 0.208667 -0.005000
v 0.000000 0.208667 -0.005000
v -0.544000 0.204000 -0.011700
v 0.000000 0.204000 -0.011700
v -0.544000 0.205000 -0.015660
v 0.000000 0.205000 -0.015660
v -0.544000 0.208000 -0.015000
v 0.000000 0.208000 -0.015000
v -0.544000 0.209000 -0.012000
v 0.000000 0.209000 -0.012000
v -0.544000 0.203000 -0.019000
v 0.000000 0.203000 -0.019000
v -0.544000 0.195000 -0.015660
v 0.000000 0.195000 -0.015660
v -0.544000 0.197000 -0.019000
v 0.000000 0.197000 -0.019000
v -0.544000 0.191000 -0.012000
v -0.544000 0.192000 -0.015000
v -0.544000 0.196000 -0.011700
v 0.000000 0.196000 -0.011700
v -0.544000 0.195333 -0.004767
v 0.000000 0.195333 -0.004767
v -0.544000 0.191333 -0.005000
v -0.544000 0.195500 -0.000675
v 0.000000 0.195500 -0.000675
v -0.544000 0.200000 -0.009631
v 0.000000 0.200000 -0.009631
v 0.000000 0.200000 -0.007107
v -0.544000 0.200000 -0.007107
f 2 1 4
f 4 1 3
f 6 5 8
f 8 5 7
f 9 10 13
f 9 13 14
f 11 12 17
f 17 12 10
f 10 12 13
f 19 18 10
f 10 18 17
f 9 15 20
f 9 20 10
f 25 24 23
f 25 23 26
f 28 29 24
f 24 29 23
f 24 25 21
f 21 27 30
f 21 30 24
f 30 31 32
f 30 32 24
f 32 31 19
f 19 31 18
f 17 34 35
f 18 33 35
f 17 35 30
f 31 33 18
f 35 34 18
f 18 34 17
f 30 35 36
f 30 36 31
f 31 36 35
f 31 35 33
f 11 17 27
f 27 17 30
f 16 22 26
f 16 26 14
f 26 23 14
f 14 23 9
f 29 15 37
f 23 38 9
f 39 37 15
f 37 40 29
f 29 40 23
f 40 37 23
f 23 37 38
f 9 38 37
f 9 37 39
f 9 39 15
f 20 15 28
f 28 15 29
f 10 41 24
f 42 20 28
f 24 41 42
f 20 42 43
f 28 44 42
f 43 42 10
f 10 42 41
f 42 44 24
f 24 44 28
f 20 43 10
f 32 46 24
f 24 46 45
f 32 47 45
f 32 45 46
f 24 45 10
f 19 47 32
f 48 19 10
f 48 10 45
f 19 48 45
f 45 47 19
f 22 16 14
f 22 14 26
f 26 14 13
f 26 13 25
f 25 13 12
f 25 12 21
f 38 41 42
f 38 42 37
f 37 42 43
f 37 43 39
f 39 43 42
f 39 42 37
f 37 42 44
f 37 44 40
f 40 44 42
f 40 42 37
f 37 42 41
f 37 41 38
f 36 46 45
f 36 45 35
f 35 45 47
f 35 47 33
f 33 47 45
f 33 45 35
f 35 45 48
f 35 48 34
f 34 48 45
f 34 45 35
f 35 45 46
f 35 46 36
f 11 27 21
f 11 21 12
f 53 54 55
f 49 50 55
f 49 55 56
f 51 52 54
f 50 53 55
f 51 54 59
f 59 54 53
f 61 60 53
f 53 60 59
f 49 57 62
f 49 62 50
f 64 66 65
f 64 65 67
f 69 70 64
f 64 70 66
f 63 71 69
f 72 73 66
f 66 73 65
f 69 71 74
f 69 74 70
f 75 76 74
f 74 76 70
f 59 78 77
f 77 79 59
f 59 79 74
f 75 77 60
f 77 78 60
f 60 78 59
f 74 79 77
f 74 77 80
f 74 80 75
f 75 80 77
f 51 59 71
f 71 59 74
f 51 71 63
f 51 63 52
f 64 68 55
f 55 68 58
f 58 68 64
f 58 64 55
f 67 65 56
f 56 65 49
f 73 57 81
f 65 82 49
f 83 81 57
f 81 84 73
f 73 84 65
f 84 85 65
f 85 82 65
f 49 82 86
f 49 86 57
f 57 86 83
f 62 57 72
f 72 57 73
f 50 87 66
f 88 62 72
f 62 88 89
f 72 90 88
f 91 87 50
f 87 92 66
f 66 92 72
f 72 92 90
f 62 89 91
f 62 91 50
f 76 94 70
f 70 94 95
f 70 95 93
f 76 95 94
f 70 93 53
f 53 93 95
f 61 95 76
f 96 61 53
f 96 53 95
f 61 96 95
f 64 55 54
f 64 54 69
f 69 54 52
f 69 52 63
f 82 87 91
f 82 91 86
f 86 91 89
f 86 89 83
f 83 89 88
f 83 88 81
f 81 88 90
f 81 90 84
f 84 90 92
f 84 92 85
f 85 92 87
f 85 87 82
f 80 94 95
f 80 95 77
f 77 95 96
f 77 96 78
f 78 96 95
f 78 95 77
f 77 95 93
f 77 93 79
f 79 93 95
f 79 95 77
f 77 95 94
f 77 94 80
f 55 64 67
f 55 67 56
f 61 76 75
f 61 75 60
f 50 66 70
f 50 70 53
f 98 97 100
f 100 97 99
f 102 101 104
f 104 101 103
f 105 106 107
f 107 106 108
f 98 105 104
f 104 105 107
f 109 98 110
f 110 98 104
f 106 109 108
f 108 109 110
f 111 106 112
f 112 106 108
f 113 111 114
f 114 111 112
f 115 113 116
f 116 113 114
f 117 115 118
f 118 115 116
f 97 117 103
f 103 117 118
f 119 97 120
f 120 97 103
f 113 119 114
f 114 119 120
f 121 113 122
f 122 113 114
f 123 121 124
f 124 121 122
f 99 123 101
f 101 123 124
f 125 99 126
f 126 99 101
f 127 125 128
f 128 125 126
f 121 127 122
f 122 127 128
f 129 121 130
f 130 121 122
f 131 129 132
f 132 129 130
f 133 131 134
f 134 131 132
f 100 133 102
f 102 133 134
f 135 100 136
f 136 100 102
f 131 135 132
f 132 135 136
f 106 131 108
f 108 131 132
f 137 138 139
f 137 139 140
f 140 139 138
f 140 138 137
f 119 113 97
f 99 125 127
f 121 123 99
f 100 131 133
f 115 117 97
f 115 97 113
f 135 131 100
f 127 121 99
f 98 109 105
f 105 109 106
f 113 106 111
f 131 140 137
f 131 137 129
f 137 113 121
f 129 137 121
f 137 140 106
f 106 140 131
f 113 137 106
f 114 120 103
f 122 114 130
f 128 126 101
f 128 101 122
f 124 122 101
f 114 103 116
f 116 103 118
f 134 132 102
f 102 132 136
f 110 104 107
f 107 108 110
f 114 112 130
f 138 139 132
f 132 139 108
f 139 138 108
f 108 138 112
f 130 138 132
f 112 138 130
f 141 142 143
f 143 142 144
f 6 141 100
f 100 141 143
f 145 6 133
f 133 6 100
f 142 145 144
f 144 145 133
f 146 142 147
f 147 142 144
f 148 146 149
f 149 146 147
f 150 148 127
f 127 148 149
f 151 150 125
f 125 150 127
f 5 151 99
f 99 151 125
f 152 5 153
f 153 5 99
f 148 152 149
f 149 152 153
f 154 148 155
f 155 148 149
f 156 154 157
f 157 154 155
f 158 156 159
f 159 156 157
f 160 158 161
f 161 158 159
f 162 160 163
f 163 160 161
f 154 162 155
f 155 162 163
f 164 154 165
f 165 154 155
f 166 164 167
f 167 164 165
f 168 166 169
f 169 166 167
f 170 168 171
f 171 168 169
f 172 170 173
f 173 170 171
f 166 172 167
f 167 172 173
f 142 166 144
f 144 166 167
f 174 175 176
f 174 176 177
f 177 176 175
f 177 175 174
f 152 148 5
f 158 160 162
f 154 156 158
f 170 166 168
f 5 148 150
f 5 150 151
f 170 172 166
f 162 154 158
f 6 145 141
f 141 145 142
f 148 142 146
f 166 174 164
f 166 177 174
f 174 148 154
f 174 177 142
f 142 177 166
f 164 174 154
f 174 142 148
f 149 153 99
f 155 149 165
f 163 161 159
f 163 159 155
f 176 144 167
f 157 155 159
f 149 99 127
f 169 167 171
f 171 167 173
f 133 100 143
f 143 144 133
f 149 147 165
f 147 144 175
f 144 176 175
f 167 175 176
f 165 175 167
f 147 175 165
f 178 179 180
f 180 179 181
f 182 178 183
f 183 178 180
f 178 182 180
f 180 182 183
f 178 180 184
f 178 184 185
f 186 185 187
f 187 185 184
f 188 186 189
f 189 186 187
f 179 188 181
f 181 188 189
f 190 179 191
f 191 179 181
f 192 190 193
f 193 190 191
f 194 192 195
f 195 192 193
f 196 194 197
f 197 194 195
f 198 196 199
f 199 196 197
f 198 199 200
f 198 200 201
f 202 201 203
f 203 201 200
f 204 202 205
f 205 202 203
f 192 204 193
f 193 204 205
f 204 192 205
f 205 192 193
f 206 204 207
f 207 204 205
f 208 206 209
f 209 206 207
f 206 208 207
f 207 208 209
f 210 206 211
f 211 206 207
f 212 210 213
f 213 210 211
f 214 212 215
f 215 212 213
f 208 214 209
f 209 214 215
f 216 208 217
f 217 208 209
f 218 216 219
f 219 216 217
f 220 218 221
f 221 218 219
f 222 220 223
f 223 220 221
f 224 222 225
f 225 222 223
f 222 224 223
f 223 224 225
f 218 222 219
f 219 222 223
f 179 218 181
f 181 218 219
f 190 191 181
f 190 181 179
f 179 181 219
f 179 219 218
f 218 219 217
f 218 217 216
f 216 217 191
f 216 191 190
f 202 204 201
f 201 204 192
f 212 214 208
f 206 210 208
f 208 210 212
f 198 201 192
f 198 192 196
f 196 192 194
f 222 218 220
f 186 188 185
f 178 188 179
f 204 179 190
f 204 190 192
f 178 185 188
f 190 204 216
f 216 204 206
f 208 216 206
f 205 203 193
f 193 203 200
f 207 205 217
f 209 215 213
f 199 193 200
f 211 207 213
f 213 207 209
f 193 199 195
f 195 199 197
f 207 217 209
f 223 221 219
f 189 187 184
f 189 184 180
f 180 181 189
f 205 193 191
f 205 191 217
f 230 231 232
f 226 227 232
f 226 232 233
f 228 229 231
f 227 230 232
f 228 231 236
f 236 231 230
f 238 237 230
f 230 237 236
f 226 234 239
f 226 239 227
f 241 243 242
f 241 242 244
f 245 246 241
f 241 246 243
f 240 247 245
f 249 250 243
f 243 250 242
f 245 247 251
f 245 251 246
f 252 253 251
f 251 253 246
f 236 255 254
f 254 256 236
f 236 256 251
f 252 254 237
f 254 255 237
f 237 255 236
f 251 256 254
f 251 254 257
f 251 257 252
f 252 257 254
f 228 236 247
f 247 236 251
f 228 247 240
f 228 240 229
f 241 248 232
f 232 248 235
f 235 248 241
f 235 241 232
f 244 242 233
f 233 242 226
f 250 234 258
f 242 259 226
f 260 258 234
f 258 261 250
f 250 261 242
f 261 262 242
f 262 259 242
f 226 259 263
f 226 263 234
f 234 263 260
f 239 234 249
f 249 234 250
f 227 264 243
f 265 239 249
f 239 265 266
f 249 267 265
f 268 264 227
f 264 269 243
f 243 269 249
f 249 269 267
f 239 266 268
f 239 268 227
f 253 271 246
f 246 271 272
f 246 272 270
f 253 272 271
f 246 270 230
f 230 270 272
f 238 272 253
f 273 238 230
f 273 230 272
f 238 273 272
f 241 232 231
f 241 231 245
f 245 231 229
f 245 229 240
f 259 264 268
f 259 268 263
f 263 268 266
f 263 266 260
f 260 266 265
f 260 265 258
f 258 265 267
f 258 267 261
f 261 267 269
f 261 269 262
f 262 269 264
f 262 264 259
f 257 271 272
f 257 272 254
f 254 272 273
f 254 273 255
f 255 273 272
f 255 272 254
f 254 272 270
f 254 270 256
f 256 270 272
f 256 272 254
f 254 272 271
f 254 271 257
f 232 241 244
f 232 244 233
f 238 253 252
f 238 252 237
f 227 243 246
f 227 246 230
f 277 278 275
f 274 275 278
f 274 278 280
f 276 277 282
f 282 277 275
f 284 283 275
f 275 283 282
f 274 281 285
f 274 285 275
f 290 289 287
f 287 289 288
f 287 288 291
f 293 294 289
f 289 294 288
f 290 292 295
f 290 295 289
f 295 296 297
f 295 297 289
f 297 296 284
f 284 296 283
f 282 299 298
f 298 300 282
f 282 300 295
f 296 298 283
f 298 299 283
f 283 299 282
f 295 300 298
f 295 298 301
f 295 301 296
f 296 301 298
f 276 282 292
f 292 282 295
f 276 292 286
f 276 286 279
f 291 288 280
f 280 288 274
f 302 303 294
f 294 281 302
f 288 303 274
f 304 303 281
f 281 303 302
f 303 305 294
f 294 305 288
f 305 303 288
f 274 303 304
f 274 304 281
f 285 281 293
f 293 281 294
f 275 306 289
f 307 285 293
f 285 307 306
f 285 306 308
f 293 309 306
f 293 306 307
f 308 306 275
f 306 309 289
f 289 309 293
f 285 308 275
f 297 311 289
f 289 311 312
f 289 312 310
f 297 312 311
f 289 310 275
f 275 310 312
f 284 312 297
f 313 284 275
f 313 275 312
f 284 313 312
f 287 278 277
f 287 277 290
f 290 277 276
f 290 276 292
f 292 276 279
f 292 279 286
f 303 306 308
f 303 308 304
f 304 308 306
f 304 306 303
f 303 306 307
f 303 307 302
f 302 307 306
f 302 306 303
f 303 306 309
f 303 309 305
f 305 309 306
f 305 306 303
f 301 311 312
f 301 312 298
f 298 312 313
f 298 313 299
f 299 313 312
f 299 312 298
f 298 312 310
f 298 310 300
f 300 310 312
f 300 312 298
f 298 312 311
f 298 311 301
f 278 287 291
f 278 291 280
f 314 315 316
f 316 315 317
f 2 314 8
f 8 314 316
f 318 2 319
f 319 2 8
f 315 318 317
f 317 318 319
f 320 315 321
f 321 315 317
f 322 320 323
f 323 320 321
f 324 322 325
f 325 322 323
f 326 324 327
f 327 324 325
f 1 326 7
f 7 326 327
f 328 1 329
f 329 1 7
f 322 328 323
f 323 328 329
f 330 322 331
f 331 322 323
f 332 330 333
f 333 330 331
f 3 332 5
f 5 332 333
f 334 3 151
f 151 3 5
f 335 334 150
f 150 334 151
f 330 335 331
f 331 335 150
f 336 330 337
f 337 330 331
f 338 336 339
f 339 336 337
f 340 338 145
f 145 338 339
f 4 340 6
f 6 340 145
f 341 4 342
f 342 4 6
f 338 341 339
f 339 341 342
f 315 338 317
f 317 338 339
f 343 344 345
f 343 345 346
f 346 345 344
f 346 344 343
f 328 322 1
f 3 334 335
f 330 332 3
f 4 338 340
f 324 326 1
f 324 1 322
f 341 338 4
f 335 330 3
f 2 318 314
f 314 318 315
f 322 315 320
f 338 346 343
f 338 343 336
f 343 322 330
f 336 343 330
f 343 346 315
f 315 346 338
f 322 343 315
f 323 329 7
f 331 323 337
f 150 5 331
f 333 331 5
f 323 7 325
f 325 7 327
f 145 339 6
f 6 339 342
f 319 8 316
f 316 317 319
f 323 321 337
f 344 345 339
f 339 345 317
f 345 344 317
f 317 344 321
f 337 344 339
f 321 344 337
