# Simplified Clearpath Husky demo mesh. See README.md for source/license.
# from top_chassis.dae, grid=0.005m
v -0.282658 -0.125500 0.217178
v -0.397565 -0.125500 0.120760
v -0.282658 -0.145500 0.217178
v -0.297979 -0.175500 0.204322
v -0.382244 -0.175500 0.133616
v -0.397565 -0.145500 0.120760
v -0.325538 -0.161260 0.180316
v -0.327709 -0.161917 0.178963
v -0.325366 -0.164345 0.180382
v -0.327794 -0.163513 0.178874
v -0.318798 -0.163917 0.171057
v -0.318556 -0.161777 0.171261
v -0.317400 -0.162254 0.172231
v -0.317310 -0.163251 0.172306
v -0.282658 0.125500 0.217178
v -0.397565 0.125500 0.120760
v -0.282658 0.145500 0.217178
v -0.297979 0.175500 0.204322
v -0.382244 0.175500 0.133616
v -0.397565 0.145500 0.120760
v -0.273725 0.203404 0.222127
v -0.274073 0.203460 0.223583
v -0.321704 -0.095922 0.184637
v -0.286097 -0.097350 0.212089
v -0.286097 -0.136200 0.212089
v -0.330191 -0.135350 0.176126
v -0.321688 -0.136200 0.183261
v -0.330191 -0.145500 0.176126
v -0.321688 -0.151300 0.183261
v -0.345921 -0.145500 0.161891
v -0.348729 -0.151300 0.160571
v -0.345921 -0.135350 0.161891
v -0.350261 -0.135633 0.159285
v -0.348729 -0.097350 0.160571
v -0.378605 -0.145500 0.135502
v -0.404651 -0.151300 0.113647
v -0.378605 -0.135350 0.135502
v -0.404651 -0.136200 0.113647
v -0.404979 -0.097203 0.113412
v -0.373881 -0.135520 0.139673
v -0.372349 -0.097350 0.139715
v -0.371838 -0.135520 0.140973
v -0.374009 -0.145500 0.139359
v -0.372349 -0.151300 0.139715
v -0.371711 -0.145500 0.141287
v -0.365625 -0.135633 0.145703
v -0.365965 -0.097350 0.146108
v -0.365455 -0.145500 0.145500
v -0.365965 -0.151300 0.146108
v -0.360220 -0.135350 0.150929
v -0.357412 -0.097350 0.152249
v -0.357412 -0.136200 0.152249
v -0.360220 -0.145500 0.150929
v -0.357412 -0.151300 0.152249
v -0.355624 -0.145500 0.154786
v -0.355624 -0.135350 0.154786
v -0.351027 -0.145500 0.158642
v -0.312046 -0.151413 0.191144
v -0.314029 -0.150096 0.191269
v -0.286097 -0.151300 0.212089
v -0.299430 -0.151096 0.201938
v -0.299223 -0.144691 0.201963
v -0.301371 -0.140193 0.201520
v -0.304377 -0.138928 0.199993
v -0.306411 -0.137934 0.196739
v -0.310303 -0.139184 0.194552
v -0.311898 -0.141154 0.192210
v -0.312071 -0.143656 0.190985
v -0.314015 -0.145102 0.191246
v -0.311776 -0.153668 0.192131
v -0.321688 -0.205237 0.183261
v -0.306471 -0.157067 0.196630
v -0.286097 -0.205237 0.212089
v -0.304433 -0.156145 0.199918
v -0.301367 -0.154813 0.201533
v -0.310374 -0.155793 0.194498
v -0.348729 -0.205237 0.160571
v -0.357412 -0.205237 0.152249
v -0.365965 -0.205237 0.146108
v -0.372349 -0.205237 0.139715
v -0.404967 -0.205237 0.113190
v -0.273725 -0.203404 0.222127
v -0.274228 -0.151300 0.222049
v -0.274228 -0.136200 0.222049
v -0.273679 -0.097350 0.222134
v -0.346941 -0.145500 0.163107
v -0.346941 -0.135350 0.163107
v -0.373370 -0.151300 0.140931
v -0.373370 -0.097350 0.140931
v -0.367625 -0.145500 0.145752
v -0.367625 -0.135350 0.145752
v -0.365326 -0.135350 0.147680
v -0.365326 -0.145500 0.147680
v -0.358432 -0.151300 0.153465
v -0.358432 -0.136200 0.153465
v -0.358432 -0.097350 0.153465
v -0.299416 -0.144951 0.203786
v -0.287118 -0.151300 0.213305
v -0.299373 -0.149797 0.203823
v -0.287118 -0.136200 0.213305
v -0.287118 -0.205237 0.213305
v -0.358432 -0.205237 0.153465
v -0.373370 -0.205237 0.140931
v -0.274195 -0.203460 0.223599
v -0.275248 -0.151300 0.223265
v -0.275248 -0.136200 0.223265
v -0.274091 -0.097294 0.223687
v -0.287118 -0.097350 0.213305
v -0.405002 -0.205237 0.044017
v -0.405002 0.205237 0.044017
v -0.405206 0.092350 0.070000
v -0.405206 0.205237 0.112455
v -0.404165 0.096975 0.111710
v -0.405206 0.093575 0.074886
v -0.405206 0.092402 0.074254
v -0.404165 -0.096975 0.111710
v -0.405206 -0.205237 0.112455
v -0.405206 -0.093575 0.074886
v -0.405206 -0.092402 0.074254
v -0.405206 -0.092350 0.070000
v -0.404967 0.205237 0.113190
v -0.404979 0.097203 0.113412
v -0.342189 0.143977 0.165541
v -0.341568 0.140778 0.166925
v -0.341294 0.139102 0.170304
v -0.273679 0.097350 0.222134
v -0.331227 0.139627 0.176319
v -0.331163 0.155330 0.176404
v -0.342189 0.151023 0.165541
v -0.344510 0.145341 0.166186
v -0.341333 0.155897 0.170255
v -0.341461 0.153997 0.166877
v -0.299234 0.145728 0.201618
v -0.299234 0.149272 0.201618
v -0.311576 0.145448 0.191401
v -0.328778 0.144383 0.176966
v -0.301443 0.153827 0.200507
v -0.311061 0.141753 0.192178
v -0.309584 0.140057 0.194077
v -0.306344 0.139296 0.195988
v -0.306416 0.155889 0.196076
v -0.309801 0.154788 0.193895
v -0.311233 0.152963 0.192034
v -0.311586 0.149962 0.191531
v -0.304216 0.139058 0.198699
v -0.301392 0.141163 0.200637
v -0.304006 0.155858 0.198875
v -0.328958 0.151241 0.176954
v -0.299375 0.149100 0.203020
v -0.273969 0.097294 0.223670
v -0.299323 0.146151 0.203064
v -0.344525 0.150118 0.166282
v -0.311727 0.143479 0.192655
v -0.330042 0.145183 0.179755
v -0.311727 0.151521 0.192655
v -0.330019 0.150094 0.179715
v -0.313325 0.145684 0.191315
v -0.351101 0.205237 -0.001479
v -0.351101 -0.205237 -0.001479
v -0.272209 -0.097350 0.223224
v -0.271846 -0.204692 0.223347
v -0.265022 -0.203237 0.212264
v -0.263806 -0.203237 0.213284
v -0.263806 -0.097350 0.213284
v -0.265022 -0.097350 0.212264
v -0.271693 0.205056 0.223326
v -0.272083 0.097350 0.223120
v -0.265022 0.097350 0.212264
v -0.263806 0.097350 0.213284
v -0.263806 0.203237 0.213284
v -0.265022 0.203237 0.212264
v -0.402449 0.096850 0.112261
v -0.402128 0.096850 0.112640
v -0.404413 0.096850 0.071000
v -0.402128 -0.096850 0.112640
v -0.402449 -0.096850 0.112261
v -0.272270 -0.096850 0.221619
v -0.404413 -0.096850 0.071000
v -0.305294 0.086534 0.195981
v -0.305294 0.074166 0.195981
v -0.305294 -0.086534 0.195981
v -0.306204 -0.088777 0.194527
v -0.316168 -0.093522 0.190906
v -0.320107 -0.090931 0.185422
v -0.310496 -0.069149 0.195665
v -0.306204 -0.071923 0.194527
v -0.305294 -0.074166 0.195981
v -0.324590 -0.089700 0.185424
v -0.320378 -0.069413 0.185750
v -0.311645 0.092831 0.189961
v -0.310193 0.091207 0.195509
v -0.310269 -0.091044 0.195132
v -0.306204 0.071923 0.194527
v -0.310491 0.069032 0.195814
v -0.306204 0.088777 0.194527
v -0.326321 0.074586 0.184404
v -0.326291 0.085933 0.184380
v -0.324605 0.089693 0.185444
v -0.311645 -0.092831 0.189961
v -0.310276 0.068380 0.190557
v -0.326300 -0.085856 0.184474
v -0.326293 -0.074469 0.184427
v -0.324311 -0.070672 0.185621
v -0.320485 0.069495 0.185660
v -0.320107 0.090931 0.185422
v -0.316274 0.093517 0.190817
v -0.324439 0.070844 0.185513
v -0.315948 -0.067706 0.190367
v -0.315948 0.067706 0.190367
v -0.310276 -0.068380 0.190557
v -0.272270 0.096850 0.221619
v -0.319924 0.089030 0.181633
v -0.321356 0.086534 0.180431
v -0.321356 -0.086534 0.180431
v -0.319924 -0.089030 0.181633
v -0.308223 -0.091554 0.191451
v -0.314402 -0.092887 0.186266
v -0.316703 -0.092046 0.184336
v -0.308223 0.091554 0.191451
v -0.319924 -0.071670 0.181633
v -0.321356 -0.074166 0.180431
v -0.314402 0.092887 0.186266
v -0.316703 0.092046 0.184336
v -0.321356 0.074166 0.180431
v -0.319924 0.071670 0.181633
v -0.315169 0.068093 0.185623
v -0.315169 -0.068093 0.185623
v -0.284189 0.073903 0.170596
v -0.309763 0.074887 0.200420
v -0.309529 0.070604 0.198938
v -0.285907 0.071195 0.169154
v -0.289971 0.068235 0.165743
v -0.315271 0.069243 0.195426
v -0.293292 0.067631 0.162957
v -0.320918 0.069233 0.190198
v -0.295915 0.068436 0.160757
v -0.298846 0.070571 0.158297
v -0.300278 0.072444 0.157096
v -0.301042 0.073903 0.156454
v -0.305190 0.092210 0.171250
v -0.321200 0.090667 0.190189
v -0.296555 0.091983 0.160219
v -0.298762 0.092210 0.163589
v -0.320006 0.093843 0.189930
v -0.303632 0.092825 0.172556
v -0.300941 0.092988 0.174814
v -0.314930 0.094144 0.194276
v -0.315128 0.090810 0.195872
v -0.298039 0.092210 0.177250
v -0.291611 0.092210 0.169589
v -0.288675 0.091983 0.166831
v -0.295217 0.093008 0.165258
v -0.294633 0.092825 0.161832
v -0.291268 0.092947 0.164656
v -0.293168 0.092825 0.168283
v -0.301042 0.086797 0.156454
v -0.300278 0.088256 0.157096
v -0.298846 0.090129 0.158297
v -0.285907 0.089505 0.169154
v -0.309255 0.089723 0.199168
v -0.309968 0.085115 0.200621
v -0.284189 0.086797 0.170596
v -0.319057 0.080090 0.208321
v -0.309798 0.079994 0.201323
v -0.319506 0.076502 0.207854
v -0.320662 0.074171 0.206663
v -0.312991 0.073938 0.198644
v -0.313939 0.070407 0.197849
v -0.321647 0.072071 0.205007
v -0.324277 0.071638 0.203763
v -0.326130 0.071242 0.201519
v -0.318812 0.069735 0.193760
v -0.328214 0.072044 0.200080
v -0.330150 0.074437 0.199265
v -0.324621 0.074715 0.188886
v -0.331347 0.076005 0.196823
v -0.332252 0.080132 0.196529
v -0.325538 0.080350 0.188116
v -0.331441 0.084386 0.196726
v -0.324315 0.085458 0.189142
v -0.330631 0.085603 0.198943
v -0.328510 0.088261 0.200138
v -0.326169 0.089399 0.201558
v -0.318922 0.089731 0.193667
v -0.324435 0.088703 0.203930
v -0.321497 0.088257 0.205437
v -0.313939 0.090293 0.197849
v -0.320505 0.086221 0.206837
v -0.312991 0.086762 0.198644
v -0.319439 0.083931 0.207884
v -0.317477 0.080350 0.207934
v -0.323088 0.086989 0.205804
v -0.324354 0.073070 0.204714
v -0.327064 0.072656 0.202468
v -0.332009 0.080053 0.198189
v -0.306465 0.075283 0.201020
v -0.305754 0.080350 0.201616
v -0.306841 0.087739 0.199888
v -0.306411 0.085085 0.201181
v -0.327481 0.080350 0.182569
v -0.312386 0.067008 0.195888
v -0.314773 0.066207 0.194212
v -0.317090 0.065874 0.191941
v -0.319859 0.066509 0.189836
v -0.322375 0.092572 0.186854
v -0.311887 0.093372 0.196307
v -0.323731 0.069799 0.188980
v -0.327682 0.076660 0.184359
v -0.327998 0.080350 0.184420
v -0.327682 0.084040 0.184359
v -0.323005 0.092545 0.187631
v -0.311064 0.092572 0.197650
v -0.318646 0.092815 0.193899
v -0.324440 0.089789 0.189037
v -0.291356 0.093522 0.169803
v -0.299017 0.093522 0.163375
v -0.297784 0.097850 0.177464
v -0.305444 0.097850 0.171036
v -0.301042 -0.073903 0.156454
v -0.300278 -0.072444 0.157096
v -0.298846 -0.070571 0.158297
v -0.321067 -0.069305 0.190072
v -0.295915 -0.068436 0.160757
v -0.293292 -0.067631 0.162957
v -0.289971 -0.068235 0.165743
v -0.315395 -0.069116 0.195508
v -0.285907 -0.071195 0.169154
v -0.309435 -0.070423 0.198799
v -0.310121 -0.075157 0.200493
v -0.284189 -0.073903 0.170596
v -0.298039 -0.092210 0.177250
v -0.288675 -0.091983 0.166831
v -0.291611 -0.092210 0.169589
v -0.314977 -0.090741 0.195999
v -0.314962 -0.093970 0.194498
v -0.300941 -0.092988 0.174814
v -0.319762 -0.094031 0.189877
v -0.303632 -0.092825 0.172556
v -0.321292 -0.090883 0.190373
v -0.305190 -0.092210 0.171250
v -0.298762 -0.092210 0.163589
v -0.296555 -0.091983 0.160219
v -0.293168 -0.092825 0.168283
v -0.291268 -0.092947 0.164656
v -0.295217 -0.093008 0.165258
v -0.294633 -0.092825 0.161832
v -0.284189 -0.086797 0.170596
v -0.310005 -0.085118 0.200497
v -0.309413 -0.089906 0.199035
v -0.285907 -0.089505 0.169154
v -0.298846 -0.090129 0.158297
v -0.300278 -0.088256 0.157096
v -0.301042 -0.086797 0.156454
v -0.332252 -0.080132 0.196529
v -0.325538 -0.080350 0.188116
v -0.331347 -0.076005 0.196823
v -0.324697 -0.074849 0.188822
v -0.330150 -0.074437 0.199265
v -0.328216 -0.072046 0.200078
v -0.326130 -0.071242 0.201519
v -0.319067 -0.069757 0.193546
v -0.324277 -0.071638 0.203763
v -0.321647 -0.072071 0.205007
v -0.313573 -0.070691 0.198156
v -0.320662 -0.074171 0.206663
v -0.312991 -0.073938 0.198644
v -0.319506 -0.076502 0.207854
v -0.319057 -0.080090 0.208321
v -0.309962 -0.080350 0.201186
v -0.317477 -0.080350 0.207934
v -0.319439 -0.083931 0.207884
v -0.320505 -0.086221 0.206837
v -0.312991 -0.086762 0.198644
v -0.321497 -0.088257 0.205437
v -0.313573 -0.090009 0.198156
v -0.324435 -0.088703 0.203930
v -0.326169 -0.089399 0.201558
v -0.318922 -0.089731 0.193667
v -0.328509 -0.088262 0.200139
v -0.330631 -0.085603 0.198943
v -0.324697 -0.085851 0.188822
v -0.331441 -0.084386 0.196726
v -0.332009 -0.080053 0.198189
v -0.327064 -0.072656 0.202468
v -0.324354 -0.073070 0.204714
v -0.323088 -0.086989 0.205804
v -0.327407 -0.080350 0.182631
v -0.327933 -0.080101 0.184409
v -0.305799 -0.080350 0.201695
v -0.306368 -0.085079 0.201101
v -0.306492 -0.075326 0.201051
v -0.307241 -0.072144 0.199553
v -0.319622 -0.066424 0.190034
v -0.316720 -0.065858 0.192252
v -0.314591 -0.066256 0.194364
v -0.312049 -0.067212 0.196171
v -0.307362 -0.088148 0.200103
v -0.311556 -0.093153 0.196585
v -0.327730 -0.076528 0.183666
v -0.324109 -0.070178 0.188663
v -0.311078 -0.092545 0.197639
v -0.323018 -0.092572 0.187620
v -0.327725 -0.083839 0.184323
v -0.324472 -0.089839 0.189010
v -0.319283 -0.092759 0.193364
v -0.299017 -0.093522 0.163375
v -0.291356 -0.093522 0.169803
v -0.305444 -0.097850 0.171036
v -0.297784 -0.097850 0.177464
v -0.321364 0.155500 0.162377
v -0.320067 0.154053 0.163466
v -0.318421 0.150219 0.164846
v -0.318421 0.144781 0.164846
v -0.320067 0.140947 0.163466
v -0.321364 0.139500 0.162377
v -0.330187 0.154415 0.154973
v -0.330187 0.140585 0.154973
v -0.332058 0.150759 0.153404
v -0.332554 0.148059 0.152987
v -0.332554 0.146941 0.152987
v -0.332058 0.144241 0.153404
v -0.339652 0.144789 0.173976
v -0.339549 0.150357 0.174038
v -0.336277 0.145590 0.176474
v -0.336355 0.149659 0.176417
v -0.340800 0.146461 0.172176
v -0.340760 0.148885 0.172210
v -0.333647 0.145021 0.179393
v -0.333607 0.150321 0.179405
v -0.335595 0.138974 0.176500
v -0.339544 0.139533 0.174121
v -0.344577 0.144917 0.169651
v -0.344504 0.150291 0.169747
v -0.339520 0.155478 0.174121
v -0.335538 0.156089 0.176452
v -0.334074 0.140909 0.178372
v -0.334174 0.154156 0.178326
v -0.343420 0.153919 0.169683
v -0.343381 0.141089 0.169809
v -0.330746 0.141100 0.178610
v -0.331012 0.154007 0.178638
v -0.335365 0.136979 0.174168
v -0.335477 0.158019 0.174180
v -0.338136 0.157858 0.173211
v -0.338226 0.137181 0.173187
v -0.338818 0.157975 0.171132
v -0.338825 0.137029 0.170964
v -0.343409 0.153785 0.166820
v -0.343497 0.141360 0.166796
v -0.336643 0.158464 0.171918
v -0.336786 0.136536 0.171856
v -0.313403 0.150322 0.191249
v -0.312621 0.142223 0.191905
v -0.304966 0.140052 0.206161
v -0.308202 0.138127 0.203446
v -0.310666 0.137827 0.201378
v -0.313938 0.139186 0.198633
v -0.316492 0.140633 0.196489
v -0.317142 0.143970 0.195944
v -0.318889 0.145651 0.194478
v -0.319236 0.149933 0.194187
v -0.317136 0.150950 0.195949
v -0.316390 0.155265 0.196575
v -0.314005 0.155821 0.198576
v -0.311215 0.157101 0.200918
v -0.308740 0.157040 0.202994
v -0.305344 0.155368 0.205844
v -0.303661 0.152217 0.207256
v -0.302982 0.149782 0.207826
v -0.302872 0.145923 0.207918
v -0.303411 0.143429 0.207466
v -0.318355 0.154471 0.194926
v -0.315520 0.158191 0.197305
v -0.315777 0.137062 0.197090
v -0.318502 0.140903 0.194803
v -0.305919 0.136163 0.205361
v -0.310391 0.134916 0.205188
v -0.310933 0.134846 0.201154
v -0.313743 0.135643 0.198797
v -0.313981 0.159230 0.198597
v -0.311188 0.160124 0.200940
v -0.309680 0.160037 0.204592
v -0.305617 0.158693 0.205615
v -0.300719 0.144682 0.209725
v -0.301738 0.141173 0.208870
v -0.305331 0.138938 0.210627
v -0.305506 0.156307 0.210480
v -0.301869 0.154116 0.208760
v -0.300692 0.149899 0.209747
v -0.310460 0.135429 0.210767
v -0.315618 0.134069 0.205711
v -0.319864 0.135937 0.205270
v -0.320388 0.136084 0.201249
v -0.321691 0.139201 0.200530
v -0.323916 0.140623 0.200755
v -0.325342 0.145328 0.200352
v -0.325177 0.150191 0.200324
v -0.321320 0.156008 0.200467
v -0.320087 0.159254 0.201211
v -0.315828 0.160818 0.205814
v -0.310642 0.159703 0.210628
v -0.305833 0.154631 0.214625
v -0.305715 0.150094 0.216060
v -0.305673 0.144938 0.216126
v -0.305663 0.140742 0.214768
v -0.324883 0.145616 0.196607
v -0.324747 0.150449 0.196721
v -0.324028 0.153549 0.197325
v -0.323837 0.154647 0.200824
v -0.324095 0.141708 0.197268
v -0.302454 0.148583 0.215427
v -0.302431 0.146958 0.215447
v -0.306561 0.136833 0.213286
v -0.306865 0.135777 0.211726
v -0.306712 0.159039 0.211855
v -0.310778 0.136864 0.213330
v -0.315198 0.135284 0.210196
v -0.322961 0.137022 0.200831
v -0.323250 0.157589 0.200588
v -0.320069 0.158964 0.205266
v -0.315168 0.159744 0.210169
v -0.310513 0.158246 0.213307
v -0.309896 0.139989 0.215633
v -0.310016 0.155154 0.215560
v -0.322145 0.137801 0.204961
v -0.322082 0.157257 0.204625
v -0.313086 0.150550 0.216610
v -0.310805 0.150948 0.217248
v -0.313171 0.144323 0.216541
v -0.309870 0.149493 0.217778
v -0.314830 0.139761 0.214711
v -0.309870 0.145732 0.217803
v -0.310847 0.144209 0.217266
v -0.314481 0.136891 0.213229
v -0.319236 0.136443 0.209278
v -0.320371 0.139092 0.210237
v -0.317819 0.139623 0.212654
v -0.324048 0.140183 0.205108
v -0.323065 0.141058 0.208099
v -0.325481 0.145106 0.205278
v -0.323602 0.143132 0.207820
v -0.325443 0.150160 0.205322
v -0.323984 0.154891 0.205113
v -0.323693 0.151688 0.207744
v -0.323009 0.154094 0.208087
v -0.319077 0.158608 0.209391
v -0.320350 0.155900 0.210247
v -0.314365 0.158165 0.213203
v -0.314853 0.155208 0.214701
v -0.317627 0.155454 0.212806
v -0.307259 0.147155 0.217505
v -0.291626 -0.154879 0.181133
v -0.295097 -0.154971 0.179905
v -0.294592 -0.153313 0.177009
v -0.296533 -0.150654 0.175802
v -0.296837 -0.145452 0.175517
v -0.287894 -0.143458 0.185895
v -0.290007 -0.140722 0.184275
v -0.290055 -0.154327 0.184301
v -0.295877 -0.141835 0.177106
v -0.295128 -0.140015 0.179938
v -0.287901 -0.151539 0.186019
v -0.287039 -0.149049 0.186270
v -0.291086 -0.140371 0.181161
v -0.287071 -0.145600 0.186159
v -0.299077 -0.150059 0.176686
v -0.299060 -0.144955 0.176674
v -0.297708 -0.143021 0.177528
v -0.297994 -0.141795 0.177838
v -0.297937 -0.153238 0.177845
v -0.298220 -0.152336 0.177587
v -0.311693 -0.143153 0.195904
v -0.300502 -0.141136 0.203224
v -0.305694 -0.137123 0.198848
v -0.308757 -0.137185 0.196356
v -0.313049 -0.140608 0.193443
v -0.313233 -0.141785 0.192044
v -0.313377 -0.153270 0.192105
v -0.313167 -0.154545 0.193222
v -0.308638 -0.157828 0.196423
v -0.305778 -0.157905 0.198745
v -0.300455 -0.153800 0.203194
v -0.308020 -0.158457 0.198051
v -0.307909 -0.136515 0.198144
v -0.309126 -0.140435 0.198710
v -0.313473 -0.145138 0.195054
v -0.313486 -0.149775 0.195043
v -0.309129 -0.154506 0.198704
v -0.304355 -0.153324 0.202725
v -0.303333 -0.150453 0.203561
v -0.303378 -0.144764 0.203523
v -0.304275 -0.141761 0.202792
v -0.311932 -0.151367 0.196322
v -0.304939 -0.152044 0.202137
v -0.305046 -0.142879 0.202178
v -0.307011 -0.157710 0.197052
v -0.307180 -0.137181 0.197143
v -0.292745 -0.139069 0.182586
v -0.292766 -0.155934 0.182568
v -0.287248 -0.142727 0.182388
v -0.298752 -0.142499 0.177460
v 0.274195 0.203460 0.223599
v 0.273725 0.203404 0.222127
v 0.404967 0.205237 0.113190
v 0.405206 0.205237 0.112455
v 0.405206 -0.205237 0.112455
v 0.404967 -0.205237 0.113190
v 0.405002 -0.205237 0.044017
v 0.405002 0.205237 0.044017
v 0.351101 -0.205237 -0.001479
v 0.351101 0.205237 -0.001479
v 0.273725 -0.203404 0.222127
v 0.274195 -0.203460 0.223599
v 0.271846 -0.204692 0.223347
v 0.271846 0.204692 0.223347
v 0.265022 0.203237 0.212264
v 0.263806 0.203237 0.213284
v 0.263806 -0.203237 0.213284
v 0.265022 -0.203237 0.212264
v -0.102534 0.206875 0.223531
v -0.101516 0.206875 0.223299
v -0.101372 0.206875 0.222214
v -0.100452 0.206875 0.068599
v -0.100202 0.206875 0.067033
v 0.196484 0.206875 0.068701
v 0.198152 0.206875 0.068395
v 0.197521 0.206875 0.067375
v 0.196607 0.206875 0.066948
v 0.198428 0.206875 0.222228
v 0.196790 0.206875 0.222179
v 0.197108 0.206875 0.223138
v 0.198606 0.206875 0.223393
v 0.198606 -0.206875 0.223393
v 0.198428 -0.206875 0.222228
v 0.198152 -0.206875 0.068395
v 0.197521 -0.206875 0.067375
v 0.196607 -0.206875 0.066948
v -0.100202 -0.206875 0.067033
v -0.100452 -0.206875 0.068599
v -0.101372 -0.206875 0.222214
v -0.101516 -0.206875 0.223299
v -0.102534 -0.206875 0.223531
v 0.196484 -0.206875 0.068701
v 0.196790 -0.206875 0.222179
v 0.197108 -0.206875 0.223138
f 2 1 3
f 2 3 6
f 6 3 4
f 6 4 5
f 8 10 9
f 8 9 7
f 11 9 7
f 11 7 12
f 12 7 13
f 13 7 9
f 13 9 14
f 14 9 11
f 12 13 11
f 14 11 13
f 16 15 17
f 16 17 20
f 20 17 18
f 20 18 19
f 23 24 25
f 26 27 28
f 28 27 29
f 28 29 30
f 30 29 31
f 30 31 32
f 32 31 33
f 32 33 34
f 32 34 26
f 26 34 23
f 35 36 37
f 37 36 38
f 37 38 39
f 37 39 40
f 40 39 41
f 40 41 42
f 40 42 43
f 43 42 44
f 43 44 35
f 35 44 36
f 45 44 42
f 42 41 46
f 46 41 47
f 48 46 49
f 48 49 45
f 45 49 44
f 46 47 50
f 50 47 51
f 50 51 52
f 50 52 53
f 53 52 54
f 53 54 48
f 48 54 49
f 55 54 56
f 56 54 52
f 56 52 51
f 56 51 33
f 33 51 34
f 57 33 31
f 57 31 55
f 55 31 54
f 58 29 59
f 60 61 62
f 60 62 25
f 25 62 63
f 25 63 64
f 25 64 65
f 27 65 66
f 66 67 27
f 27 67 68
f 27 68 69
f 27 69 29
f 29 69 59
f 70 71 58
f 71 72 73
f 73 72 74
f 73 74 75
f 73 75 60
f 60 75 61
f 70 76 71
f 71 76 72
f 25 65 27
f 25 27 23
f 23 27 26
f 29 58 71
f 29 71 31
f 31 71 77
f 31 77 54
f 54 77 78
f 54 78 49
f 49 78 79
f 49 79 44
f 44 79 80
f 44 80 36
f 36 80 81
f 82 73 60
f 82 60 83
f 83 60 25
f 83 25 84
f 84 25 24
f 84 24 85
f 27 26 29
f 29 26 28
f 29 28 31
f 31 28 86
f 31 86 33
f 33 86 87
f 33 87 34
f 34 87 23
f 37 38 35
f 35 38 36
f 35 36 43
f 43 36 88
f 43 88 40
f 40 89 37
f 37 89 39
f 42 89 40
f 42 40 45
f 45 40 88
f 45 88 90
f 90 88 49
f 90 49 91
f 91 49 46
f 91 46 47
f 91 47 42
f 42 47 89
f 92 47 46
f 92 46 93
f 93 46 49
f 93 49 53
f 53 49 94
f 53 94 50
f 50 94 95
f 50 95 96
f 50 96 92
f 92 96 47
f 56 96 95
f 56 95 55
f 55 95 94
f 55 94 57
f 57 94 31
f 33 34 56
f 56 34 96
f 98 97 99
f 27 69 67
f 100 63 97
f 64 100 65
f 65 100 27
f 100 64 63
f 70 59 29
f 99 75 101
f 101 75 74
f 101 74 71
f 71 74 72
f 71 70 29
f 71 29 77
f 77 29 31
f 77 31 102
f 102 31 94
f 102 94 79
f 79 94 49
f 79 49 103
f 103 49 88
f 103 88 81
f 81 88 36
f 99 101 98
f 98 101 104
f 98 104 105
f 105 106 98
f 98 106 100
f 98 100 97
f 106 107 100
f 100 107 108
f 100 108 27
f 27 108 23
f 26 23 87
f 109 110 111
f 112 113 110
f 110 113 114
f 111 110 115
f 115 110 114
f 116 117 118
f 118 117 109
f 119 118 109
f 119 109 120
f 120 109 111
f 113 112 121
f 113 121 122
f 117 116 39
f 117 39 81
f 81 39 38
f 81 38 36
f 122 123 124
f 122 124 125
f 122 125 126
f 126 125 127
f 121 21 128
f 121 129 122
f 122 129 130
f 122 130 123
f 128 131 121
f 121 131 132
f 132 129 121
f 135 127 136
f 126 133 21
f 134 137 21
f 127 135 138
f 138 139 127
f 127 139 126
f 126 139 140
f 133 134 21
f 21 141 128
f 128 141 142
f 142 143 128
f 128 143 144
f 126 140 145
f 145 146 126
f 133 126 146
f 147 141 21
f 144 148 128
f 135 136 144
f 144 136 148
f 21 137 147
f 150 127 122
f 122 127 125
f 22 149 150
f 150 149 151
f 150 151 133
f 122 124 130
f 152 121 130
f 130 121 122
f 121 152 132
f 133 146 150
f 150 146 145
f 150 145 140
f 150 140 139
f 150 139 127
f 22 134 149
f 127 139 153
f 127 153 135
f 154 136 135
f 128 142 22
f 128 22 131
f 131 22 121
f 128 144 155
f 128 155 142
f 22 142 141
f 141 147 22
f 148 156 144
f 144 156 157
f 157 156 154
f 157 154 135
f 147 137 22
f 22 137 134
f 122 121 112
f 122 112 113
f 81 39 116
f 81 116 117
f 110 109 120
f 117 116 109
f 109 116 118
f 113 112 114
f 114 112 110
f 120 111 110
f 82 104 73
f 73 104 101
f 73 101 71
f 78 77 102
f 78 102 79
f 80 79 103
f 80 103 81
f 109 159 110
f 110 159 158
f 159 109 158
f 158 109 110
f 121 22 21
f 126 150 122
f 41 39 89
f 41 89 47
f 51 47 96
f 51 96 34
f 24 23 108
f 24 108 85
f 85 108 107
f 86 28 30
f 86 30 87
f 87 30 32
f 87 32 26
f 91 42 46
f 91 46 90
f 90 46 48
f 90 48 45
f 93 48 92
f 92 48 46
f 50 92 46
f 93 53 48
f 132 152 129
f 129 152 130
f 123 130 124
f 136 154 156
f 136 156 148
f 58 59 70
f 75 99 61
f 61 99 97
f 61 97 62
f 62 97 63
f 67 69 68
f 143 142 155
f 143 155 144
f 144 157 135
f 135 153 139
f 135 139 138
f 133 151 149
f 133 149 134
f 85 107 160
f 82 161 104
f 107 106 105
f 105 104 107
f 107 104 161
f 107 161 160
f 85 82 83
f 85 83 84
f 162 163 82
f 82 163 161
f 164 165 160
f 160 165 85
f 163 164 161
f 161 164 160
f 85 165 82
f 82 165 162
f 164 163 165
f 165 163 162
f 166 21 22
f 126 167 150
f 22 150 167
f 22 167 166
f 168 169 126
f 126 169 167
f 170 171 166
f 166 171 21
f 169 170 167
f 167 170 166
f 21 171 126
f 126 171 168
f 170 169 171
f 171 169 168
f 113 122 172
f 172 122 173
f 175 39 176
f 176 39 116
f 175 177 39
f 39 177 107
f 174 113 178
f 178 113 116
f 113 174 116
f 116 174 178
f 113 116 39
f 113 39 122
f 150 179 180
f 150 181 107
f 107 181 182
f 183 184 39
f 185 186 150
f 150 186 187
f 150 187 181
f 39 184 188
f 190 191 150
f 182 192 107
f 180 193 185
f 185 193 194
f 180 185 150
f 150 191 195
f 150 195 179
f 196 197 122
f 122 197 198
f 192 199 107
f 107 199 183
f 107 183 39
f 185 194 200
f 188 201 39
f 39 201 202
f 39 202 122
f 122 202 203
f 122 203 189
f 198 205 122
f 205 206 122
f 122 206 150
f 150 206 190
f 189 204 122
f 122 204 207
f 122 207 196
f 189 208 204
f 204 208 209
f 209 208 200
f 200 208 210
f 200 210 185
f 211 150 177
f 177 150 107
f 212 213 173
f 214 215 175
f 199 216 177
f 211 179 195
f 177 216 182
f 175 217 177
f 177 217 199
f 215 184 175
f 175 184 218
f 175 218 217
f 182 181 177
f 177 181 187
f 177 187 211
f 211 187 186
f 211 195 219
f 211 186 210
f 189 220 173
f 173 220 175
f 175 220 221
f 175 221 214
f 200 193 210
f 210 193 211
f 211 193 180
f 211 180 179
f 222 223 173
f 173 223 205
f 173 205 212
f 219 190 211
f 211 190 173
f 173 190 222
f 213 224 173
f 173 224 225
f 173 225 189
f 225 204 189
f 189 204 226
f 189 226 227
f 227 226 210
f 210 226 200
f 173 175 176
f 173 176 172
f 172 176 116
f 172 116 113
f 122 150 173
f 173 150 211
f 224 196 207
f 224 207 225
f 225 207 204
f 226 204 209
f 226 209 200
f 200 194 193
f 196 224 197
f 197 224 213
f 195 191 219
f 219 191 190
f 190 206 222
f 222 206 205
f 222 205 223
f 212 205 198
f 212 198 197
f 212 197 213
f 214 201 188
f 214 188 215
f 215 188 184
f 218 184 183
f 218 183 217
f 217 183 199
f 199 192 216
f 216 192 182
f 201 214 202
f 202 214 221
f 186 185 210
f 210 208 227
f 227 208 189
f 220 189 203
f 220 203 202
f 220 202 221
f 228 229 230
f 228 230 231
f 231 230 194
f 231 194 232
f 232 194 233
f 232 233 209
f 232 209 234
f 234 209 235
f 234 235 236
f 236 235 204
f 236 204 237
f 237 204 207
f 237 207 238
f 238 207 196
f 238 196 239
f 240 241 244
f 240 244 245
f 245 244 206
f 245 206 246
f 246 206 247
f 246 247 248
f 246 248 249
f 249 248 191
f 249 191 250
f 242 243 252
f 242 252 253
f 254 252 255
f 254 255 250
f 254 250 251
f 256 197 198
f 256 198 257
f 257 198 258
f 258 198 205
f 258 205 241
f 258 241 242
f 242 241 240
f 242 240 243
f 250 191 251
f 251 191 259
f 259 191 260
f 259 260 261
f 259 261 262
f 265 229 263
f 263 229 264
f 229 265 266
f 266 267 229
f 267 266 268
f 269 233 268
f 269 268 266
f 233 269 270
f 271 272 270
f 270 272 233
f 272 271 273
f 272 273 235
f 274 275 235
f 274 235 273
f 275 274 276
f 275 276 277
f 275 277 278
f 279 280 278
f 279 278 277
f 280 279 281
f 280 281 282
f 280 282 241
f 241 282 283
f 241 283 284
f 285 248 284
f 285 284 283
f 248 285 286
f 248 286 287
f 288 289 286
f 286 289 287
f 288 261 289
f 261 288 290
f 261 290 264
f 290 263 264
f 264 263 291
f 269 266 270
f 293 294 271
f 271 294 274
f 271 274 273
f 294 293 274
f 276 274 277
f 274 295 277
f 277 295 281
f 277 281 279
f 282 285 283
f 286 285 288
f 266 293 270
f 270 293 271
f 288 285 292
f 293 266 285
f 285 282 293
f 282 281 293
f 288 265 263
f 295 274 281
f 293 281 274
f 288 292 265
f 290 288 263
f 292 285 265
f 265 285 266
f 232 254 251
f 252 254 232
f 252 232 253
f 253 232 242
f 236 242 232
f 236 232 234
f 239 256 238
f 238 256 257
f 238 257 258
f 259 232 251
f 231 232 259
f 231 259 262
f 231 262 228
f 236 237 242
f 242 237 238
f 242 238 258
f 297 298 299
f 300 197 196
f 261 296 229
f 229 296 230
f 233 194 301
f 233 301 302
f 233 302 209
f 209 302 303
f 209 303 235
f 235 303 304
f 235 304 204
f 205 198 305
f 205 305 241
f 241 305 244
f 248 247 306
f 248 306 191
f 261 260 298
f 261 298 296
f 296 298 297
f 235 307 204
f 204 307 207
f 196 308 309
f 196 309 300
f 300 309 197
f 309 310 197
f 198 311 305
f 305 311 244
f 306 312 191
f 312 260 191
f 298 260 299
f 196 207 275
f 275 207 307
f 307 235 304
f 235 304 272
f 272 304 303
f 303 302 272
f 272 302 233
f 233 302 268
f 302 301 268
f 268 301 194
f 194 230 268
f 229 296 264
f 264 296 297
f 264 297 261
f 297 299 261
f 261 299 260
f 260 312 287
f 287 312 306
f 287 306 247
f 287 247 248
f 313 247 206
f 206 244 313
f 241 244 314
f 314 244 311
f 311 198 314
f 314 198 197
f 267 230 229
f 267 268 230
f 275 307 235
f 280 197 310
f 280 310 278
f 278 310 309
f 278 309 275
f 275 309 308
f 275 308 196
f 241 314 280
f 280 314 197
f 248 247 284
f 284 247 313
f 284 313 244
f 284 244 241
f 289 261 260
f 289 260 287
f 250 255 315
f 315 255 252
f 315 252 316
f 316 252 243
f 317 315 318
f 318 315 316
f 249 317 246
f 240 245 318
f 318 245 246
f 318 246 317
f 315 317 250
f 250 317 249
f 240 318 243
f 243 318 316
f 262 261 228
f 228 261 229
f 239 196 256
f 256 196 197
f 319 202 203
f 319 203 320
f 320 203 321
f 321 203 189
f 321 189 322
f 321 322 323
f 323 322 208
f 323 208 324
f 324 208 325
f 325 208 326
f 325 326 185
f 325 185 327
f 327 185 328
f 327 328 329
f 327 329 330
f 192 334 331
f 331 334 335
f 331 335 336
f 336 335 183
f 336 183 337
f 336 337 338
f 338 337 339
f 338 339 340
f 340 339 341
f 332 333 343
f 332 343 344
f 344 343 345
f 346 345 341
f 346 341 342
f 347 348 349
f 347 349 350
f 350 349 192
f 350 192 332
f 332 192 331
f 332 331 333
f 341 339 342
f 342 339 184
f 342 184 351
f 351 184 188
f 351 188 352
f 352 188 201
f 352 201 353
f 356 357 354
f 354 357 355
f 357 356 358
f 357 358 322
f 359 322 358
f 322 359 360
f 322 360 361
f 362 326 361
f 362 361 360
f 326 362 363
f 326 363 364
f 365 366 364
f 365 364 363
f 365 329 366
f 329 365 367
f 329 367 368
f 329 368 369
f 368 370 369
f 371 348 369
f 371 369 368
f 348 371 372
f 372 373 348
f 373 372 374
f 373 374 375
f 374 334 375
f 334 374 376
f 377 378 376
f 376 378 334
f 378 377 379
f 378 379 339
f 380 381 379
f 379 381 339
f 381 380 382
f 381 382 355
f 382 354 355
f 354 382 380
f 354 380 383
f 358 356 354
f 358 354 383
f 358 384 360
f 360 384 362
f 358 385 384
f 384 385 362
f 362 385 365
f 372 386 376
f 377 376 379
f 360 359 358
f 362 365 363
f 372 376 374
f 365 372 371
f 358 376 385
f 376 386 385
f 380 358 383
f 368 365 371
f 367 365 368
f 372 365 385
f 386 372 385
f 380 379 358
f 358 379 376
f 323 346 342
f 345 346 344
f 344 346 323
f 344 323 332
f 332 323 324
f 325 332 324
f 330 347 327
f 327 347 350
f 351 352 323
f 351 323 342
f 321 323 352
f 321 352 353
f 321 353 320
f 320 353 319
f 325 327 332
f 332 327 350
f 387 188 201
f 387 201 388
f 389 390 348
f 389 348 391
f 391 348 329
f 328 392 329
f 329 392 391
f 189 203 322
f 322 189 393
f 322 393 208
f 208 393 394
f 208 394 326
f 326 394 395
f 326 395 185
f 185 395 396
f 348 390 397
f 348 397 349
f 192 349 398
f 192 398 334
f 334 398 335
f 339 337 23
f 339 23 184
f 184 23 188
f 201 188 202
f 202 188 387
f 387 388 399
f 387 399 202
f 203 400 189
f 400 322 189
f 392 328 391
f 349 401 398
f 23 337 402
f 23 402 188
f 201 403 387
f 403 388 387
f 369 389 391
f 369 391 329
f 329 391 328
f 328 185 364
f 364 185 396
f 364 396 326
f 396 395 326
f 326 395 361
f 395 394 361
f 361 394 393
f 361 393 322
f 400 203 357
f 357 203 202
f 202 399 388
f 201 188 381
f 381 188 404
f 188 402 404
f 404 402 337
f 404 337 339
f 339 337 405
f 337 183 405
f 405 183 335
f 334 398 375
f 375 398 401
f 401 349 375
f 348 390 369
f 390 389 369
f 357 202 355
f 355 202 388
f 322 400 357
f 366 329 328
f 366 328 364
f 373 375 349
f 373 349 348
f 378 405 335
f 378 335 334
f 355 388 403
f 355 403 381
f 381 403 201
f 381 404 339
f 378 339 405
f 341 345 406
f 406 345 407
f 345 343 407
f 407 343 333
f 408 406 409
f 409 406 407
f 340 408 338
f 331 336 409
f 409 336 408
f 408 336 338
f 406 408 341
f 341 408 340
f 331 409 333
f 333 409 407
f 353 201 319
f 319 201 202
f 330 329 347
f 347 329 348
f 410 128 411
f 411 128 148
f 411 148 412
f 412 148 156
f 412 156 154
f 412 154 413
f 413 154 136
f 413 136 127
f 413 127 414
f 414 127 415
f 414 415 417
f 416 410 411
f 412 413 416
f 412 416 411
f 414 416 413
f 419 418 420
f 420 418 417
f 420 417 421
f 414 417 416
f 416 417 418
f 424 423 422
f 423 424 425
f 426 422 423
f 426 423 427
f 424 428 429
f 424 429 425
f 427 423 422
f 427 422 426
f 422 431 430
f 125 431 422
f 422 432 125
f 423 433 422
f 422 433 432
f 433 423 131
f 131 423 434
f 423 435 434
f 422 430 424
f 424 430 436
f 425 435 423
f 424 436 428
f 429 437 425
f 425 437 435
f 433 131 438
f 432 439 125
f 428 154 429
f 429 154 156
f 428 436 154
f 436 440 154
f 429 156 437
f 437 156 441
f 435 443 434
f 434 443 444
f 433 152 432
f 432 152 130
f 431 125 445
f 431 445 430
f 430 445 442
f 434 444 446
f 434 446 131
f 125 447 445
f 436 430 127
f 436 127 440
f 437 441 128
f 437 128 435
f 438 448 433
f 433 448 152
f 432 130 439
f 439 130 449
f 444 443 446
f 445 447 442
f 443 450 446
f 438 131 448
f 439 449 125
f 447 451 442
f 430 442 127
f 131 132 448
f 449 124 125
f 451 125 442
f 442 125 127
f 129 152 448
f 129 448 132
f 125 451 447
f 136 440 127
f 124 449 123
f 123 449 130
f 136 154 440
f 450 443 131
f 450 131 446
f 443 128 131
f 128 443 435
f 128 441 148
f 148 441 156
f 417 125 124
f 417 124 123
f 417 123 421
f 421 123 130
f 421 130 420
f 420 130 152
f 420 152 419
f 419 152 418
f 418 152 129
f 418 129 132
f 418 132 416
f 416 132 131
f 127 125 415
f 415 125 417
f 131 128 416
f 416 128 410
f 141 147 142
f 142 147 139
f 139 147 137
f 145 151 146
f 139 151 140
f 140 151 145
f 139 452 143
f 453 157 138
f 138 157 139
f 452 139 157
f 142 139 143
f 139 137 149
f 151 139 149
f 146 454 145
f 145 454 455
f 145 455 456
f 145 456 140
f 140 456 139
f 139 456 457
f 139 457 458
f 139 458 138
f 138 458 453
f 453 458 459
f 453 459 157
f 157 459 460
f 157 460 461
f 157 461 452
f 452 461 462
f 452 462 463
f 452 463 143
f 143 463 142
f 142 463 464
f 142 464 465
f 142 465 141
f 141 465 466
f 141 466 147
f 147 466 467
f 147 467 137
f 137 467 468
f 137 468 149
f 149 468 469
f 149 469 470
f 149 470 151
f 151 470 471
f 151 471 454
f 151 454 146
f 462 461 472
f 462 472 463
f 464 463 473
f 457 474 458
f 458 475 459
f 459 475 460
f 454 476 455
f 455 476 477
f 455 477 456
f 456 477 478
f 456 478 457
f 457 478 479
f 457 479 474
f 473 480 464
f 464 480 465
f 465 480 481
f 465 481 466
f 466 481 482
f 466 482 467
f 467 482 483
f 470 484 471
f 471 484 485
f 471 485 454
f 454 485 486
f 467 487 488
f 467 488 468
f 468 488 469
f 469 488 489
f 469 489 470
f 470 489 484
f 454 486 490
f 454 490 476
f 476 490 477
f 477 491 478
f 478 491 479
f 479 491 492
f 479 492 493
f 479 493 474
f 474 493 494
f 474 494 458
f 458 494 475
f 475 494 495
f 475 495 496
f 475 496 460
f 460 496 497
f 460 497 461
f 461 497 498
f 461 498 472
f 472 498 463
f 463 498 499
f 463 499 473
f 473 499 480
f 480 499 500
f 480 500 481
f 481 500 482
f 482 501 483
f 483 501 487
f 483 487 467
f 487 502 488
f 488 502 503
f 488 503 489
f 489 503 504
f 489 504 484
f 484 504 505
f 484 505 485
f 485 505 486
f 496 506 497
f 497 506 507
f 497 507 508
f 497 508 498
f 498 508 509
f 498 509 499
f 492 491 493
f 494 493 495
f 495 510 496
f 496 510 506
f 503 511 512
f 503 512 504
f 486 505 513
f 486 513 490
f 490 513 514
f 477 490 491
f 482 500 501
f 501 515 487
f 487 515 502
f 513 516 514
f 514 516 490
f 490 517 491
f 493 518 495
f 507 497 509
f 507 509 508
f 509 519 499
f 499 520 500
f 500 521 501
f 501 522 515
f 515 522 502
f 511 503 504
f 511 504 512
f 494 495 518
f 494 518 493
f 520 499 498
f 498 499 519
f 498 519 509
f 490 516 523
f 523 516 513
f 523 513 505
f 524 502 522
f 524 522 501
f 525 494 493
f 525 493 492
f 526 498 509
f 526 520 498
f 532 530 528
f 532 528 533
f 533 528 527
f 533 527 529
f 523 533 532
f 517 490 516
f 517 516 534
f 517 535 492
f 531 536 517
f 517 536 535
f 492 525 538
f 492 535 525
f 525 536 538
f 495 538 496
f 538 540 496
f 540 542 497
f 497 542 543
f 497 543 509
f 543 526 520
f 542 544 545
f 542 545 543
f 520 546 500
f 500 546 521
f 543 545 547
f 543 547 526
f 526 547 546
f 526 546 520
f 521 548 501
f 501 548 522
f 546 547 548
f 546 548 521
f 547 549 548
f 502 524 503
f 524 528 503
f 549 527 524
f 524 527 528
f 503 530 551
f 503 551 504
f 504 532 533
f 534 516 523
f 534 523 531
f 492 491 517
f 534 531 517
f 531 537 536
f 538 495 494
f 538 494 525
f 535 536 525
f 536 539 538
f 540 538 539
f 540 539 541
f 496 540 497
f 543 526 509
f 524 522 548
f 524 548 549
f 547 550 549
f 524 528 530
f 528 530 503
f 530 532 551
f 551 532 504
f 523 505 504
f 523 504 533
f 529 531 523
f 529 523 533
f 540 529 542
f 542 529 527
f 541 529 540
f 541 539 529
f 529 539 536
f 542 527 549
f 545 549 550
f 545 544 549
f 550 547 545
f 549 544 542
f 529 536 537
f 531 529 537
f 552 553 554
f 556 552 554
f 556 554 555
f 552 556 559
f 559 556 560
f 559 560 561
f 559 561 562
f 561 563 562
f 554 553 555
f 555 566 556
f 556 566 567
f 568 569 561
f 561 564 558
f 568 567 569
f 553 570 571
f 571 570 566
f 572 67 66
f 68 69 572
f 572 69 67
f 76 70 58
f 75 74 582
f 583 580 581
f 573 63 64
f 584 574 575
f 576 577 69
f 584 585 574
f 574 585 64
f 575 585 584
f 575 66 585
f 69 586 576
f 59 586 69
f 59 587 586
f 578 587 59
f 579 587 578
f 580 588 76
f 583 588 580
f 581 588 583
f 581 74 588
f 582 589 74
f 582 590 589
f 99 590 582
f 573 591 97
f 64 592 573
f 573 592 591
f 76 587 579
f 593 587 76
f 572 66 576
f 572 576 586
f 590 99 591
f 591 99 97
f 595 591 592
f 595 592 64
f 594 74 589
f 594 589 590
f 64 76 588
f 586 66 572
f 586 64 66
f 64 586 587
f 593 76 64
f 593 64 587
f 588 74 64
f 595 64 591
f 591 64 74
f 591 74 594
f 585 66 64
f 590 591 594
f 70 578 59
f 69 577 67
f 75 99 582
f 63 573 97
f 74 581 72
f 72 581 596
f 72 596 76
f 70 76 578
f 66 575 65
f 65 575 597
f 65 597 574
f 65 574 64
f 76 596 580
f 67 577 576
f 67 576 66
f 596 581 580
f 76 579 578
f 597 575 574
f 571 76 58
f 58 566 571
f 566 58 59
f 69 566 59
f 69 567 566
f 567 69 68
f 567 68 572
f 66 569 572
f 572 569 567
f 569 66 561
f 561 66 65
f 561 65 64
f 561 64 598
f 598 64 558
f 558 64 63
f 558 63 557
f 557 63 62
f 557 62 565
f 97 565 62
f 99 563 97
f 97 563 565
f 61 563 99
f 61 562 563
f 562 61 75
f 562 75 559
f 74 559 75
f 74 599 559
f 74 553 599
f 553 74 72
f 553 72 76
f 570 553 76
f 571 570 76
f 554 553 571
f 554 571 555
f 555 571 566
f 556 567 568
f 556 568 561
f 556 561 560
f 564 558 557
f 564 557 600
f 600 557 565
f 563 564 600
f 565 563 600
f 563 561 564
f 569 567 601
f 599 553 559
f 553 552 559
f 558 561 598
f 604 603 602
f 611 609 610
f 610 609 608
f 609 611 608
f 608 611 610
f 605 609 606
f 606 609 608
f 605 606 607
f 605 607 604
f 603 604 607
f 603 607 612
f 613 607 604
f 613 604 602
f 604 607 606
f 604 606 605
f 609 605 608
f 608 605 606
f 607 613 612
f 612 613 614
f 603 615 602
f 613 602 615
f 613 615 614
f 616 617 603
f 603 617 615
f 618 619 614
f 614 619 612
f 617 618 615
f 615 618 614
f 612 619 603
f 603 619 616
f 618 617 619
f 619 617 616
f 625 626 627
f 625 627 628
f 628 624 625
f 625 624 623
f 629 630 631
f 629 631 632
f 629 626 630
f 630 626 625
f 614 615 633
f 633 615 632
f 633 632 614
f 614 632 615
f 632 633 634
f 632 634 629
f 635 626 634
f 634 626 629
f 626 635 636
f 626 636 627
f 627 636 637
f 627 637 628
f 638 624 637
f 637 624 628
f 624 638 639
f 624 639 623
f 640 622 639
f 639 622 623
f 622 640 641
f 622 641 621
f 621 641 642
f 621 642 620
f 161 166 642
f 642 166 620
f 642 620 161
f 161 620 166
f 620 642 641
f 620 641 621
f 621 641 640
f 621 640 622
f 639 623 640
f 640 623 622
f 643 625 639
f 639 625 623
f 644 630 643
f 643 630 625
f 630 644 645
f 630 645 631
f 631 645 633
f 631 633 632
f 643 637 636
f 643 636 635
f 638 637 639
f 639 637 643
f 634 633 645
f 634 645 644
f 635 634 643
f 643 634 644
