# Simplified Clearpath Husky demo mesh. See README.md for source/license.
# from bumper.dae, grid=0.005m
v -0.012571 -0.187500 0.000000
v -0.012571 0.187500 0.000000
v -0.011466 0.187500 -0.005347
v -0.011466 -0.187500 -0.005347
v -0.008946 0.187500 -0.008946
v -0.008946 -0.187500 -0.008946
v -0.005347 0.187500 -0.011466
v -0.005347 -0.187500 -0.011466
v 0.000000 0.187500 -0.012571
v 0.000000 -0.187500 -0.012571
v 0.005347 0.187500 -0.011466
v 0.005347 -0.187500 -0.011466
v 0.008946 0.187500 -0.008946
v 0.008946 -0.187500 -0.008946
v 0.011466 0.187500 -0.005347
v 0.011466 -0.187500 -0.005347
v 0.012571 0.187500 0.000000
v 0.012571 -0.187500 0.000000
v 0.011466 0.187500 0.005347
v 0.011466 -0.187500 0.005347
v 0.008946 0.187500 0.008946
v 0.008946 -0.187500 0.008946
v 0.005347 0.187500 0.011466
v 0.005347 -0.187500 0.011466
v 0.000000 0.187500 0.012571
v 0.000000 -0.187500 0.012571
v -0.005347 0.187500 0.011466
v -0.005347 -0.187500 0.011466
v -0.008946 0.187500 0.008946
v -0.008946 -0.187500 0.008946
v -0.011466 0.187500 0.005347
v -0.011466 -0.187500 0.005347
v -0.027177 0.227628 0.000000
v -0.046460 0.250610 0.000000
v -0.045614 0.251320 -0.005347
v -0.026330 0.228339 -0.005347
v -0.044283 0.252437 -0.008163
v -0.024400 0.229959 -0.008946
v -0.043084 0.253443 -0.009729
v -0.040926 0.255254 -0.011466
v -0.022411 0.231627 -0.010998
v -0.020874 0.232917 -0.011934
v -0.038520 0.257273 -0.012507
v -0.018391 0.235000 -0.012603
v -0.035986 0.259399 -0.012603
v -0.015857 0.237127 -0.012507
v -0.033503 0.261482 -0.011934
v -0.013451 0.239146 -0.011466
v -0.030640 0.263885 -0.009630
v -0.010694 0.241459 -0.008946
v -0.028047 0.266061 -0.005347
v -0.008763 0.243079 -0.005347
v -0.027200 0.266771 0.000000
v -0.007916 0.243790 0.000000
v -0.028047 0.266061 0.005347
v -0.008763 0.243079 0.005347
v -0.030640 0.263885 0.009630
v -0.010694 0.241459 0.008946
v -0.013451 0.239146 0.011466
v -0.033503 0.261482 0.011934
v -0.035986 0.259399 0.012603
v -0.015857 0.237127 0.012507
v -0.018391 0.235000 0.012603
v -0.038520 0.257273 0.012507
v -0.040926 0.255254 0.011466
v -0.020874 0.232917 0.011934
v -0.022411 0.231627 0.010998
v -0.043084 0.253443 0.009729
v -0.024400 0.229959 0.008946
v -0.044283 0.252437 0.008163
v -0.045614 0.251320 0.005347
v -0.026330 0.228339 0.005347
v -0.012882 0.193716 0.000000
v -0.011782 0.193826 0.005347
v -0.009274 0.194077 0.008946
v -0.005693 0.194435 0.011466
v -0.002567 0.194748 0.012507
v 0.000724 0.195077 0.012603
v 0.004948 0.195500 0.011466
v 0.008529 0.195858 0.008946
v 0.011037 0.196109 0.005347
v 0.012136 0.196219 0.000000
v 0.011037 0.196109 -0.005347
v 0.008529 0.195858 -0.008946
v 0.004948 0.195500 -0.011466
v 0.000724 0.195077 -0.012603
v -0.002567 0.194748 -0.012507
v -0.005693 0.194435 -0.011466
v -0.009274 0.194077 -0.008946
v -0.011782 0.193826 -0.005347
v -0.013809 0.199870 0.000000
v -0.013184 0.199996 0.004344
v -0.012267 0.200182 0.006350
v -0.009408 0.200760 0.009630
v -0.005745 0.201500 0.011934
v -0.003649 0.201924 0.012507
v -0.001487 0.202361 0.012700
v 0.000675 0.202798 0.012507
v 0.004674 0.203606 0.010887
v 0.008049 0.204289 0.008163
v 0.009752 0.204633 0.005347
v 0.010835 0.204852 0.000000
v 0.009752 0.204633 -0.005347
v 0.008049 0.204289 -0.008163
v 0.004674 0.203606 -0.010887
v 0.000675 0.202798 -0.012507
v -0.001487 0.202361 -0.012700
v -0.003649 0.201924 -0.012507
v -0.005745 0.201500 -0.011934
v -0.009408 0.200760 -0.009630
v -0.012267 0.200182 -0.006350
v -0.013184 0.199996 -0.004344
v -0.015345 0.205901 0.000000
v -0.014289 0.206227 0.005347
v -0.012628 0.206739 0.008163
v -0.011133 0.207200 0.009729
v -0.009400 0.207735 0.010998
v -0.007483 0.208326 0.011934
v -0.004386 0.209282 0.012603
v -0.001225 0.210257 0.012507
v 0.000819 0.210887 0.011934
v 0.004390 0.211988 0.009630
v 0.007178 0.212848 0.006350
v 0.008072 0.213124 0.004344
v 0.008681 0.213312 0.000000
v 0.008072 0.213124 -0.004344
v 0.007178 0.212848 -0.006350
v 0.004390 0.211988 -0.009630
v 0.000819 0.210887 -0.011934
v -0.001225 0.210257 -0.012507
v -0.004386 0.209282 -0.012603
v -0.007483 0.208326 -0.011934
v -0.009400 0.207735 -0.010998
v -0.011133 0.207200 -0.009729
v -0.012628 0.206739 -0.008163
v -0.014289 0.206227 -0.005347
v -0.017592 0.211699 0.000000
v -0.017414 0.211774 0.000000
v -0.016455 0.212179 0.005347
v -0.014133 0.213158 0.008946
v -0.010816 0.214556 0.011466
v -0.007921 0.215776 0.012507
v -0.004873 0.217061 0.012603
v -0.000097 0.219074 0.010887
v 0.003076 0.220412 0.008163
v 0.004677 0.221087 0.005347
v 0.005695 0.221516 0.000000
v 0.004677 0.221087 -0.005347
v 0.003076 0.220412 -0.008163
v -0.000097 0.219074 -0.010887
v -0.004873 0.217061 -0.012603
v -0.007921 0.215776 -0.012507
v -0.010816 0.214556 -0.011466
v -0.014133 0.213158 -0.008946
v -0.016455 0.212179 -0.005347
v -0.020174 0.217357 0.000000
v -0.019203 0.217885 0.005347
v -0.017677 0.218716 0.008163
v -0.014654 0.220363 0.010887
v -0.011070 0.222314 0.012507
v -0.009133 0.223369 0.012700
v -0.007197 0.224424 0.012507
v -0.004438 0.225926 0.011466
v -0.001964 0.227273 0.009729
v -0.000589 0.228022 0.008163
v 0.000937 0.228853 0.005347
v 0.001907 0.229381 0.000000
v 0.000937 0.228853 -0.005347
v -0.000589 0.228022 -0.008163
v -0.001964 0.227273 -0.009729
v -0.004438 0.225926 -0.011466
v -0.007197 0.224424 -0.012507
v -0.009133 0.223369 -0.012700
v -0.011070 0.222314 -0.012507
v -0.014654 0.220363 -0.010887
v -0.017677 0.218716 -0.008163
v -0.019203 0.217885 -0.005347
v -0.023419 0.222667 0.000000
v -0.022892 0.223026 0.004344
v -0.022119 0.223553 0.006350
v -0.019709 0.225197 0.009630
v -0.016621 0.227302 0.011934
v -0.013943 0.229128 0.012603
v -0.011210 0.230991 0.012507
v -0.009443 0.232196 0.011934
v -0.007785 0.233326 0.010998
v -0.005640 0.234789 0.008946
v -0.003558 0.236208 0.005347
v -0.002645 0.236831 0.000000
v -0.003558 0.236208 -0.005347
v -0.005640 0.234789 -0.008946
v -0.007785 0.233326 -0.010998
v -0.009443 0.232196 -0.011934
v -0.011210 0.230991 -0.012507
v -0.013943 0.229128 -0.012603
v -0.016621 0.227302 -0.011934
v -0.019709 0.225197 -0.009630
v -0.022119 0.223553 -0.006350
v -0.022892 0.223026 -0.004344
v -0.007916 -0.243790 0.000000
v -0.027200 -0.266771 0.000000
v -0.028047 -0.266061 -0.005347
v -0.008763 -0.243079 -0.005347
v -0.030640 -0.263885 -0.009630
v -0.010694 -0.241459 -0.008946
v -0.013451 -0.239146 -0.011466
v -0.033503 -0.261482 -0.011934
v -0.035986 -0.259399 -0.012603
v -0.015857 -0.237127 -0.012507
v -0.018391 -0.235000 -0.012603
v -0.038520 -0.257273 -0.012507
v -0.040926 -0.255254 -0.011466
v -0.020874 -0.232917 -0.011934
v -0.022411 -0.231627 -0.010998
v -0.043084 -0.253443 -0.009729
v -0.024400 -0.229959 -0.008946
v -0.044283 -0.252437 -0.008163
v -0.045614 -0.251320 -0.005347
v -0.026330 -0.228339 -0.005347
v -0.046460 -0.250610 0.000000
v -0.027177 -0.227628 0.000000
v -0.045614 -0.251320 0.005347
v -0.026330 -0.228339 0.005347
v -0.044283 -0.252437 0.008163
v -0.024400 -0.229959 0.008946
v -0.043084 -0.253443 0.009729
v -0.040926 -0.255254 0.011466
v -0.022411 -0.231627 0.010998
v -0.020874 -0.232917 0.011934
v -0.038520 -0.257273 0.012507
v -0.018391 -0.235000 0.012603
v -0.035986 -0.259399 0.012603
v -0.015857 -0.237127 0.012507
v -0.033503 -0.261482 0.011934
v -0.013451 -0.239146 0.011466
v -0.030640 -0.263885 0.009630
v -0.010694 -0.241459 0.008946
v -0.028047 -0.266061 0.005347
v -0.008763 -0.243079 0.005347
v -0.036830 -0.258690 0.000000
v -0.036830 0.258690 0.000000
v -0.012882 -0.193716 0.000000
v -0.011782 -0.193826 -0.005347
v -0.009274 -0.194077 -0.008946
v -0.005693 -0.194435 -0.011466
v -0.002567 -0.194748 -0.012507
v 0.000724 -0.195077 -0.012603
v 0.004948 -0.195500 -0.011466
v 0.008529 -0.195858 -0.008946
v 0.011037 -0.196109 -0.005347
v 0.012136 -0.196219 0.000000
v 0.011037 -0.196109 0.005347
v 0.008529 -0.195858 0.008946
v 0.004948 -0.195500 0.011466
v 0.000724 -0.195077 0.012603
v -0.002567 -0.194748 0.012507
v -0.005693 -0.194435 0.011466
v -0.009274 -0.194077 0.008946
v -0.011782 -0.193826 0.005347
v -0.013809 -0.199870 0.000000
v -0.013184 -0.199996 -0.004344
v -0.012267 -0.200182 -0.006350
v -0.009408 -0.200760 -0.009630
v -0.005745 -0.201500 -0.011934
v -0.003649 -0.201924 -0.012507
v -0.001487 -0.202361 -0.012700
v 0.000675 -0.202798 -0.012507
v 0.004674 -0.203606 -0.010887
v 0.008049 -0.204289 -0.008163
v 0.009752 -0.204633 -0.005347
v 0.010835 -0.204852 0.000000
v 0.009752 -0.204633 0.005347
v 0.008049 -0.204289 0.008163
v 0.004674 -0.203606 0.010887
v 0.000675 -0.202798 0.012507
v -0.001487 -0.202361 0.012700
v -0.003649 -0.201924 0.012507
v -0.005745 -0.201500 0.011934
v -0.009408 -0.200760 0.009630
v -0.012267 -0.200182 0.006350
v -0.013184 -0.199996 0.004344
v -0.015345 -0.205901 0.000000
v -0.014289 -0.206227 -0.005347
v -0.012628 -0.206739 -0.008163
v -0.011133 -0.207200 -0.009729
v -0.009400 -0.207735 -0.010998
v -0.007483 -0.208326 -0.011934
v -0.004386 -0.209282 -0.012603
v -0.001225 -0.210257 -0.012507
v 0.000819 -0.210887 -0.011934
v 0.004390 -0.211988 -0.009630
v 0.007178 -0.212848 -0.006350
v 0.008072 -0.213124 -0.004344
v 0.008681 -0.213312 0.000000
v 0.008072 -0.213124 0.004344
v 0.007178 -0.212848 0.006350
v 0.004390 -0.211988 0.009630
v 0.000819 -0.210887 0.011934
v -0.001225 -0.210257 0.012507
v -0.004386 -0.209282 0.012603
v -0.007483 -0.208326 0.011934
v -0.009400 -0.207735 0.010998
v -0.011133 -0.207200 0.009729
v -0.012628 -0.206739 0.008163
v -0.014289 -0.206227 0.005347
v -0.017592 -0.211699 0.000000
v -0.017414 -0.211774 0.000000
v -0.016455 -0.212179 -0.005347
v -0.014133 -0.213158 -0.008946
v -0.010816 -0.214556 -0.011466
v -0.007921 -0.215776 -0.012507
v -0.004873 -0.217061 -0.012603
v -0.000097 -0.219074 -0.010887
v 0.003076 -0.220412 -0.008163
v 0.004677 -0.221087 -0.005347
v 0.005695 -0.221516 0.000000
v 0.004677 -0.221087 0.005347
v 0.003076 -0.220412 0.008163
v -0.000097 -0.219074 0.010887
v -0.004873 -0.217061 0.012603
v -0.007921 -0.215776 0.012507
v -0.010816 -0.214556 0.011466
v -0.014133 -0.213158 0.008946
v -0.016455 -0.212179 0.005347
v -0.020174 -0.217357 0.000000
v -0.019203 -0.217885 -0.005347
v -0.017677 -0.218716 -0.008163
v -0.014654 -0.220363 -0.010887
v -0.011070 -0.222314 -0.012507
v -0.009133 -0.223369 -0.012700
v -0.007197 -0.224424 -0.012507
v -0.004438 -0.225926 -0.011466
v -0.001964 -0.227273 -0.009729
v -0.000589 -0.228022 -0.008163
v 0.000937 -0.228853 -0.005347
v 0.001907 -0.229381 0.000000
v 0.000937 -0.228853 0.005347
v -0.000589 -0.228022 0.008163
v -0.001964 -0.227273 0.009729
v -0.004438 -0.225926 0.011466
v -0.007197 -0.224424 0.012507
v -0.009133 -0.223369 0.012700
v -0.011070 -0.222314 0.012507
v -0.014654 -0.220363 0.010887
v -0.017677 -0.218716 0.008163
v -0.019203 -0.217885 0.005347
v -0.023419 -0.222667 0.000000
v -0.022892 -0.223026 -0.004344
v -0.022119 -0.223553 -0.006350
v -0.019709 -0.225197 -0.009630
v -0.016621 -0.227302 -0.011934
v -0.013943 -0.229128 -0.012603
v -0.011210 -0.230991 -0.012507
v -0.009443 -0.232196 -0.011934
v -0.007785 -0.233326 -0.010998
v -0.005640 -0.234789 -0.008946
v -0.003558 -0.236208 -0.005347
v -0.002645 -0.236831 0.000000
v -0.003558 -0.236208 0.005347
v -0.005640 -0.234789 0.008946
v -0.007785 -0.233326 0.010998
v -0.009443 -0.232196 0.011934
v -0.011210 -0.230991 0.012507
v -0.013943 -0.229128 0.012603
v -0.016621 -0.227302 0.011934
v -0.019709 -0.225197 0.009630
v -0.022119 -0.223553 0.006350
v -0.022892 -0.223026 0.004344
v -0.075000 0.098962 0.000000
v -0.075000 0.100534 0.005283
v -0.075000 0.104862 0.008680
v -0.075000 0.110337 0.009222
v -0.075000 0.113344 0.008111
v -0.075000 0.116100 0.005238
v -0.075000 0.117784 0.000000
v -0.075000 0.116100 -0.005238
v -0.075000 0.113344 -0.008111
v -0.075000 0.110337 -0.009222
v -0.075000 0.104862 -0.008680
v -0.075000 0.100534 -0.005283
v -0.075000 0.108351 -0.000005
v -0.011544 0.100461 0.005062
v -0.012616 0.117762 0.000031
v -0.011468 0.116122 0.005199
v -0.009715 0.113211 0.008169
v -0.008908 0.109702 0.009016
v -0.009183 0.104945 0.008732
v -0.012613 0.098941 -0.000168
v -0.012467 0.099137 -0.000000
v -0.011407 0.100671 -0.005345
v -0.009184 0.104868 -0.008738
v -0.008780 0.109940 -0.009162
v -0.009797 0.113374 -0.008071
v -0.011459 0.116108 -0.005223
v -0.012582 0.108351 -0.000005
v -0.012100 0.108351 -0.000005
v -0.010886 0.108546 -0.006511
v -0.011216 0.108868 0.005957
v -0.075000 -0.117738 0.000000
v -0.075000 -0.116166 0.005283
v -0.075000 -0.113326 0.008082
v -0.075000 -0.109548 0.009357
v -0.075000 -0.104833 0.008753
v -0.075000 -0.100600 0.005238
v -0.075000 -0.098916 0.000000
v -0.075000 -0.100600 -0.005238
v -0.075000 -0.104833 -0.008753
v -0.075000 -0.109548 -0.009357
v -0.075000 -0.113326 -0.008082
v -0.075000 -0.116166 -0.005283
v -0.075000 -0.108349 -0.000005
v -0.011544 -0.116239 0.005062
v -0.012616 -0.098938 0.000031
v -0.011468 -0.100578 0.005199
v -0.009154 -0.105151 0.008775
v -0.008870 -0.109827 0.009054
v -0.009845 -0.113458 0.008009
v -0.012613 -0.117758 -0.000168
v -0.012467 -0.117563 -0.000000
v -0.011407 -0.116029 -0.005345
v -0.009735 -0.113245 -0.008143
v -0.008788 -0.110124 -0.009155
v -0.009124 -0.105045 -0.008801
v -0.011459 -0.100592 -0.005222
v -0.012582 -0.108349 -0.000005
v -0.012100 -0.108349 -0.000005
v -0.010886 -0.108154 -0.006511
v -0.011216 -0.107832 0.005957
f 1 2 3
f 1 3 4
f 4 3 5
f 4 5 6
f 6 5 7
f 6 7 8
f 8 7 9
f 8 9 10
f 10 9 11
f 10 11 12
f 12 11 13
f 12 13 14
f 14 13 15
f 14 15 16
f 16 15 17
f 16 17 18
f 18 17 19
f 18 19 20
f 20 19 21
f 20 21 22
f 22 21 23
f 22 23 24
f 24 23 25
f 24 25 26
f 26 25 27
f 26 27 28
f 28 27 29
f 28 29 30
f 30 29 31
f 30 31 32
f 32 31 2
f 32 2 1
f 33 34 35
f 33 35 36
f 36 35 37
f 36 37 38
f 38 37 39
f 38 39 40
f 38 40 41
f 41 40 42
f 42 40 43
f 42 43 44
f 44 43 45
f 44 45 46
f 46 45 47
f 46 47 48
f 48 47 49
f 48 49 50
f 50 49 51
f 50 51 52
f 52 51 53
f 52 53 54
f 54 53 55
f 54 55 56
f 56 55 57
f 56 57 58
f 58 57 59
f 59 57 60
f 59 60 61
f 59 61 62
f 62 61 63
f 63 61 64
f 63 64 65
f 63 65 66
f 66 65 67
f 67 65 68
f 67 68 69
f 69 68 70
f 69 70 71
f 69 71 72
f 72 71 34
f 72 34 33
f 73 2 31
f 73 31 74
f 74 31 29
f 74 29 75
f 75 29 27
f 75 27 76
f 76 27 25
f 76 25 77
f 77 25 78
f 78 25 23
f 78 23 79
f 79 23 21
f 79 21 80
f 80 21 19
f 80 19 81
f 81 19 17
f 81 17 82
f 82 17 15
f 82 15 83
f 83 15 13
f 83 13 84
f 84 13 11
f 84 11 85
f 85 11 9
f 85 9 86
f 86 9 87
f 87 9 7
f 87 7 88
f 88 7 5
f 88 5 89
f 89 5 3
f 89 3 90
f 90 3 2
f 90 2 73
f 91 73 74
f 91 74 92
f 92 74 93
f 93 74 75
f 93 75 94
f 94 75 76
f 94 76 95
f 95 76 77
f 95 77 96
f 96 77 78
f 96 78 97
f 97 78 98
f 98 78 79
f 98 79 99
f 99 79 80
f 99 80 100
f 100 80 81
f 100 81 101
f 101 81 82
f 101 82 102
f 102 82 83
f 102 83 103
f 103 83 84
f 103 84 104
f 104 84 105
f 105 84 85
f 105 85 86
f 105 86 106
f 106 86 107
f 107 86 87
f 107 87 108
f 108 87 88
f 108 88 109
f 109 88 110
f 110 88 89
f 110 89 90
f 110 90 111
f 111 90 112
f 112 90 73
f 112 73 91
f 113 91 92
f 113 92 114
f 114 92 93
f 114 93 94
f 114 94 115
f 115 94 116
f 116 94 117
f 117 94 95
f 117 95 118
f 118 95 96
f 118 96 119
f 119 96 97
f 119 97 98
f 119 98 120
f 120 98 99
f 120 99 121
f 121 99 122
f 122 99 100
f 122 100 101
f 122 101 123
f 123 101 124
f 124 101 102
f 124 102 125
f 125 102 103
f 125 103 126
f 126 103 127
f 127 103 104
f 127 104 128
f 128 104 105
f 128 105 129
f 129 105 106
f 129 106 130
f 130 106 107
f 130 107 131
f 131 107 108
f 131 108 109
f 131 109 132
f 132 109 110
f 132 110 133
f 133 110 134
f 134 110 135
f 135 110 111
f 135 111 136
f 136 111 112
f 136 112 91
f 136 91 113
f 137 113 138
f 138 113 114
f 138 114 139
f 139 114 115
f 139 115 140
f 140 115 116
f 140 116 117
f 140 117 141
f 141 117 118
f 141 118 119
f 141 119 142
f 142 119 143
f 143 119 120
f 143 120 121
f 143 121 144
f 144 121 122
f 144 122 145
f 145 122 123
f 145 123 146
f 146 123 124
f 146 124 125
f 146 125 147
f 147 125 126
f 147 126 148
f 148 126 127
f 148 127 128
f 148 128 149
f 149 128 150
f 150 128 129
f 150 129 130
f 150 130 151
f 151 130 131
f 151 131 152
f 152 131 132
f 152 132 153
f 153 132 133
f 153 133 134
f 153 134 154
f 154 134 135
f 154 135 136
f 154 136 155
f 155 136 113
f 155 113 138
f 156 138 139
f 156 139 157
f 157 139 140
f 157 140 158
f 158 140 159
f 159 140 141
f 159 141 142
f 159 142 160
f 160 142 143
f 160 143 161
f 161 143 162
f 162 143 144
f 162 144 163
f 163 144 164
f 164 144 145
f 164 145 165
f 165 145 146
f 165 146 166
f 166 146 147
f 166 147 167
f 167 147 148
f 167 148 168
f 168 148 149
f 168 149 169
f 169 149 150
f 169 150 170
f 170 150 171
f 171 150 151
f 171 151 172
f 172 151 173
f 173 151 152
f 173 152 174
f 174 152 153
f 174 153 175
f 175 153 154
f 175 154 176
f 176 154 155
f 176 155 177
f 177 155 138
f 177 138 156
f 156 138 137
f 178 156 157
f 178 157 179
f 179 157 180
f 180 157 158
f 180 158 181
f 181 158 159
f 181 159 182
f 182 159 160
f 182 160 183
f 183 160 161
f 183 161 162
f 183 162 184
f 184 162 163
f 184 163 185
f 185 163 186
f 186 163 164
f 186 164 187
f 187 164 165
f 187 165 166
f 187 166 188
f 188 166 167
f 188 167 189
f 189 167 168
f 189 168 190
f 190 168 169
f 190 169 191
f 191 169 170
f 191 170 171
f 191 171 192
f 192 171 193
f 193 171 172
f 193 172 194
f 194 172 173
f 194 173 195
f 195 173 174
f 195 174 175
f 195 175 196
f 196 175 197
f 197 175 176
f 197 176 177
f 197 177 198
f 198 177 199
f 199 177 156
f 199 156 178
f 33 178 179
f 33 179 72
f 72 179 180
f 72 180 181
f 72 181 69
f 69 181 67
f 67 181 182
f 67 182 66
f 66 182 183
f 66 183 63
f 63 183 184
f 63 184 62
f 62 184 185
f 62 185 59
f 59 185 186
f 59 186 187
f 59 187 58
f 58 187 188
f 58 188 56
f 56 188 189
f 56 189 54
f 54 189 190
f 54 190 52
f 52 190 191
f 52 191 50
f 50 191 192
f 50 192 48
f 48 192 193
f 48 193 194
f 48 194 46
f 46 194 195
f 46 195 44
f 44 195 196
f 44 196 42
f 42 196 197
f 42 197 41
f 41 197 38
f 38 197 198
f 38 198 36
f 36 198 199
f 36 199 178
f 36 178 33
f 200 201 202
f 200 202 203
f 203 202 204
f 203 204 205
f 205 204 206
f 206 204 207
f 206 207 208
f 206 208 209
f 209 208 210
f 210 208 211
f 210 211 212
f 210 212 213
f 213 212 214
f 214 212 215
f 214 215 216
f 216 215 217
f 216 217 218
f 216 218 219
f 219 218 220
f 219 220 221
f 221 220 222
f 221 222 223
f 223 222 224
f 223 224 225
f 225 224 226
f 225 226 227
f 225 227 228
f 228 227 229
f 229 227 230
f 229 230 231
f 231 230 232
f 231 232 233
f 233 232 234
f 233 234 235
f 235 234 236
f 235 236 237
f 237 236 238
f 237 238 239
f 239 238 201
f 239 201 200
f 220 218 240
f 202 201 240
f 236 234 240
f 222 220 240
f 217 215 240
f 212 211 240
f 234 232 240
f 226 224 240
f 238 236 240
f 211 208 240
f 224 222 240
f 230 227 240
f 208 207 240
f 218 217 240
f 227 226 240
f 204 202 240
f 207 204 240
f 232 230 240
f 201 238 240
f 45 43 241
f 37 35 241
f 57 55 241
f 49 47 241
f 71 70 241
f 70 68 241
f 61 60 241
f 39 37 241
f 40 39 241
f 68 65 241
f 43 40 241
f 60 57 241
f 51 49 241
f 47 45 241
f 65 64 241
f 35 34 241
f 64 61 241
f 53 51 241
f 55 53 241
f 215 212 240
f 34 71 241
f 242 1 4
f 242 4 243
f 243 4 6
f 243 6 244
f 244 6 8
f 244 8 245
f 245 8 10
f 245 10 246
f 246 10 247
f 247 10 12
f 247 12 248
f 248 12 14
f 248 14 249
f 249 14 16
f 249 16 250
f 250 16 18
f 250 18 251
f 251 18 20
f 251 20 252
f 252 20 22
f 252 22 253
f 253 22 24
f 253 24 254
f 254 24 26
f 254 26 255
f 255 26 256
f 256 26 28
f 256 28 257
f 257 28 30
f 257 30 258
f 258 30 32
f 258 32 259
f 259 32 1
f 259 1 242
f 260 242 243
f 260 243 261
f 261 243 262
f 262 243 244
f 262 244 263
f 263 244 245
f 263 245 264
f 264 245 246
f 264 246 265
f 265 246 247
f 265 247 266
f 266 247 267
f 267 247 248
f 267 248 268
f 268 248 249
f 268 249 269
f 269 249 250
f 269 250 270
f 270 250 251
f 270 251 271
f 271 251 252
f 271 252 272
f 272 252 253
f 272 253 273
f 273 253 274
f 274 253 254
f 274 254 255
f 274 255 275
f 275 255 276
f 276 255 256
f 276 256 277
f 277 256 257
f 277 257 278
f 278 257 279
f 279 257 258
f 279 258 259
f 279 259 280
f 280 259 281
f 281 259 242
f 281 242 260
f 282 260 261
f 282 261 283
f 283 261 262
f 283 262 263
f 283 263 284
f 284 263 285
f 285 263 286
f 286 263 264
f 286 264 287
f 287 264 265
f 287 265 288
f 288 265 266
f 288 266 267
f 288 267 289
f 289 267 268
f 289 268 290
f 290 268 291
f 291 268 269
f 291 269 270
f 291 270 292
f 292 270 293
f 293 270 271
f 293 271 294
f 294 271 272
f 294 272 295
f 295 272 296
f 296 272 273
f 296 273 297
f 297 273 274
f 297 274 298
f 298 274 275
f 298 275 299
f 299 275 276
f 299 276 300
f 300 276 277
f 300 277 278
f 300 278 301
f 301 278 279
f 301 279 302
f 302 279 303
f 303 279 304
f 304 279 280
f 304 280 305
f 305 280 281
f 305 281 260
f 305 260 282
f 306 282 307
f 307 282 283
f 307 283 308
f 308 283 284
f 308 284 309
f 309 284 285
f 309 285 286
f 309 286 310
f 310 286 287
f 310 287 288
f 310 288 311
f 311 288 312
f 312 288 289
f 312 289 290
f 312 290 313
f 313 290 291
f 313 291 314
f 314 291 292
f 314 292 315
f 315 292 293
f 315 293 294
f 315 294 316
f 316 294 295
f 316 295 317
f 317 295 296
f 317 296 297
f 317 297 318
f 318 297 319
f 319 297 298
f 319 298 299
f 319 299 320
f 320 299 300
f 320 300 321
f 321 300 301
f 321 301 322
f 322 301 302
f 322 302 303
f 322 303 323
f 323 303 304
f 323 304 305
f 323 305 324
f 324 305 282
f 324 282 307
f 325 307 308
f 325 308 326
f 326 308 309
f 326 309 327
f 327 309 328
f 328 309 310
f 328 310 311
f 328 311 329
f 329 311 312
f 329 312 330
f 330 312 331
f 331 312 313
f 331 313 332
f 332 313 333
f 333 313 314
f 333 314 334
f 334 314 315
f 334 315 335
f 335 315 316
f 335 316 336
f 336 316 317
f 336 317 337
f 337 317 318
f 337 318 338
f 338 318 319
f 338 319 339
f 339 319 340
f 340 319 320
f 340 320 341
f 341 320 342
f 342 320 321
f 342 321 343
f 343 321 322
f 343 322 344
f 344 322 323
f 344 323 345
f 345 323 324
f 345 324 346
f 346 324 307
f 346 307 325
f 325 307 306
f 347 325 326
f 347 326 348
f 348 326 349
f 349 326 327
f 349 327 350
f 350 327 328
f 350 328 351
f 351 328 329
f 351 329 352
f 352 329 330
f 352 330 331
f 352 331 353
f 353 331 332
f 353 332 354
f 354 332 355
f 355 332 333
f 355 333 356
f 356 333 334
f 356 334 335
f 356 335 357
f 357 335 336
f 357 336 358
f 358 336 337
f 358 337 359
f 359 337 338
f 359 338 360
f 360 338 339
f 360 339 340
f 360 340 361
f 361 340 362
f 362 340 341
f 362 341 363
f 363 341 342
f 363 342 364
f 364 342 343
f 364 343 344
f 364 344 365
f 365 344 366
f 366 344 345
f 366 345 346
f 366 346 367
f 367 346 368
f 368 346 325
f 368 325 347
f 221 347 348
f 221 348 219
f 219 348 349
f 219 349 350
f 219 350 216
f 216 350 214
f 214 350 351
f 214 351 213
f 213 351 352
f 213 352 210
f 210 352 353
f 210 353 209
f 209 353 354
f 209 354 206
f 206 354 355
f 206 355 356
f 206 356 205
f 205 356 357
f 205 357 203
f 203 357 358
f 203 358 200
f 200 358 359
f 200 359 239
f 239 359 360
f 239 360 237
f 237 360 361
f 237 361 235
f 235 361 362
f 235 362 363
f 235 363 233
f 233 363 364
f 233 364 231
f 231 364 365
f 231 365 229
f 229 365 366
f 229 366 228
f 228 366 225
f 225 366 367
f 225 367 223
f 223 367 368
f 223 368 347
f 223 347 221
f 381 369 370
f 381 370 371
f 381 371 372
f 381 372 373
f 381 373 374
f 381 374 375
f 381 375 376
f 381 376 377
f 381 377 378
f 381 378 379
f 381 379 380
f 381 380 369
f 384 383 374
f 374 383 375
f 384 374 373
f 384 373 385
f 385 372 386
f 372 385 373
f 371 387 372
f 372 387 386
f 370 382 371
f 382 387 371
f 369 388 389
f 369 389 370
f 370 389 382
f 380 390 369
f 369 390 389
f 379 390 380
f 379 391 390
f 391 379 392
f 392 379 378
f 393 392 378
f 377 393 378
f 376 394 377
f 377 394 393
f 375 383 376
f 376 383 394
f 383 395 394
f 397 394 390
f 390 394 396
f 397 390 391
f 394 397 393
f 397 391 393
f 393 391 392
f 388 389 395
f 390 395 389
f 395 382 389
f 382 396 384
f 382 384 398
f 384 385 386
f 382 384 386
f 382 386 387
f 385 387 386
f 395 383 384
f 411 399 400
f 411 400 401
f 411 401 402
f 411 402 403
f 411 403 404
f 411 404 405
f 411 405 406
f 411 406 407
f 411 407 408
f 411 408 409
f 411 409 410
f 411 410 399
f 414 413 404
f 404 413 405
f 414 404 403
f 414 403 415
f 416 415 402
f 402 415 403
f 401 416 402
f 401 417 416
f 400 412 401
f 412 417 401
f 399 418 419
f 399 419 400
f 400 419 412
f 410 420 399
f 399 420 419
f 409 420 410
f 409 421 420
f 408 422 409
f 409 422 421
f 423 422 408
f 407 423 408
f 406 424 407
f 407 424 423
f 405 413 406
f 406 413 424
f 413 425 424
f 427 424 420
f 420 424 426
f 427 420 421
f 424 427 423
f 427 421 423
f 423 421 422
f 418 419 425
f 420 425 419
f 425 412 419
f 412 426 414
f 412 414 428
f 414 415 416
f 412 414 416
f 412 416 417
f 415 417 416
f 425 413 414
